<svg width="36" height="34" viewBox="0 0 36 34" fill="none" xmlns="http://www.w3.org/2000/svg">
<path d="M0.49707 0.822266H7.62667L8.4423 3.81538H35.4971L30.0107 20.2775H12.1403L11.392 23.2706H33.4213V26.2638H7.56082L9.42554 18.7974L5.33993 3.81538H0.49707V0.822266ZM6.4833 30.7534C6.4833 29.9596 6.79865 29.1983 7.35997 28.637C7.92128 28.0757 8.68259 27.7603 9.47642 27.7603C10.2702 27.7603 11.0316 28.0757 11.5929 28.637C12.1542 29.1983 12.4695 29.9596 12.4695 30.7534C12.4695 31.5472 12.1542 32.3086 11.5929 32.8699C11.0316 33.4312 10.2702 33.7465 9.47642 33.7465C8.68259 33.7465 7.92128 33.4312 7.35997 32.8699C6.79865 32.3086 6.4833 31.5472 6.4833 30.7534ZM27.4351 30.7534C27.4351 29.9596 27.7505 29.1983 28.3118 28.637C28.8731 28.0757 29.6344 27.7603 30.4282 27.7603C31.2221 27.7603 31.9834 28.0757 32.5447 28.637C33.106 29.1983 33.4213 29.9596 33.4213 30.7534C33.4213 31.5472 33.106 32.3086 32.5447 32.8699C31.9834 33.4312 31.2221 33.7465 30.4282 33.7465C29.6344 33.7465 28.8731 33.4312 28.3118 32.8699C27.7505 32.3086 27.4351 31.5472 27.4351 30.7534Z" fill="#EF7D37"/>
</svg>
