<svg width="36" height="33" viewBox="0 0 36 33" fill="none" xmlns="http://www.w3.org/2000/svg">
<path d="M0.874634 -0.0032959H8.00424L8.81986 2.98982H35.8746L30.3883 19.452H12.5179L11.7696 22.4451H33.7989V25.4382H7.93839L9.8031 17.9719L5.7175 2.98982H0.874634V-0.0032959ZM6.86087 29.9279C6.86087 29.134 7.17621 28.3727 7.73753 27.8114C8.29885 27.2501 9.06016 26.9347 9.85398 26.9347C10.6478 26.9347 11.4091 27.2501 11.9704 27.8114C12.5318 28.3727 12.8471 29.134 12.8471 29.9279C12.8471 30.7217 12.5318 31.483 11.9704 32.0443C11.4091 32.6056 10.6478 32.921 9.85398 32.921C9.06016 32.921 8.29885 32.6056 7.73753 32.0443C7.17621 31.483 6.86087 30.7217 6.86087 29.9279ZM27.8127 29.9279C27.8127 29.134 28.128 28.3727 28.6893 27.8114C29.2507 27.2501 30.012 26.9347 30.8058 26.9347C31.5996 26.9347 32.3609 27.2501 32.9222 27.8114C33.4836 28.3727 33.7989 29.134 33.7989 29.9279C33.7989 30.7217 33.4836 31.483 32.9222 32.0443C32.3609 32.6056 31.5996 32.921 30.8058 32.921C30.012 32.921 29.2507 32.6056 28.6893 32.0443C28.128 31.483 27.8127 30.7217 27.8127 29.9279Z" fill="#FF9FC5"/>
</svg>
