<svg width="1451" height="716" viewBox="0 0 1451 716" fill="none" xmlns="http://www.w3.org/2000/svg">
<g filter="url(#filter0_d_190_12403)">
<path d="M4.90918 534.706L19.9092 554.374C34.9092 573.887 64.9092 613.223 94.9092 631.807C124.909 650.39 154.909 648.222 184.909 622.205C214.909 596.188 244.909 546.012 274.909 537.029C304.909 528.047 334.909 559.949 364.909 583.179C394.909 606.409 424.909 620.966 454.909 595.568C484.909 570.325 514.909 505.282 544.909 477.871C574.909 450.615 604.909 460.836 634.909 467.031C664.909 473.225 694.909 475.393 724.909 467.805C754.909 460.371 784.909 443.336 814.909 452.164C844.909 460.836 874.909 495.526 904.909 498.623C934.909 501.72 964.909 473.225 994.909 484.066C1024.91 494.906 1054.91 545.082 1084.91 560.569C1114.91 576.055 1144.91 556.852 1174.91 556.388C1204.91 555.923 1234.91 573.887 1264.91 562.892C1294.91 551.742 1324.91 511.477 1354.91 518.136C1384.91 524.95 1414.91 578.533 1429.91 605.48L1444.91 632.271V0.423584H1429.91C1414.91 0.423584 1384.91 0.423584 1354.91 0.423584C1324.91 0.423584 1294.91 0.423584 1264.91 0.423584C1234.91 0.423584 1204.91 0.423584 1174.91 0.423584C1144.91 0.423584 1114.91 0.423584 1084.91 0.423584C1054.91 0.423584 1024.91 0.423584 994.909 0.423584C964.909 0.423584 934.909 0.423584 904.909 0.423584C874.909 0.423584 844.909 0.423584 814.909 0.423584C784.909 0.423584 754.909 0.423584 724.909 0.423584C694.909 0.423584 664.909 0.423584 634.909 0.423584C604.909 0.423584 574.909 0.423584 544.909 0.423584C514.909 0.423584 484.909 0.423584 454.909 0.423584C424.909 0.423584 394.909 0.423584 364.909 0.423584C334.909 0.423584 304.909 0.423584 274.909 0.423584C244.909 0.423584 214.909 0.423584 184.909 0.423584C154.909 0.423584 124.909 0.423584 94.9092 0.423584C64.9092 0.423584 34.9092 0.423584 19.9092 0.423584H4.90918V534.706Z" fill="#F2AC81"/>
</g>
<g filter="url(#filter1_d_190_12403)">
<path d="M4.90918 437.753L19.9092 455.324C34.9092 472.896 64.9092 508.038 94.9092 527.952C124.909 547.671 154.909 552.357 184.909 534.005C214.909 515.848 244.909 474.848 274.909 458.643C304.909 442.244 334.909 450.834 364.909 448.491C394.909 446.148 424.909 433.263 454.909 442.244C484.909 451.42 514.909 482.658 544.909 486.953C574.909 491.053 604.909 468.405 634.909 491.053C664.909 513.895 694.909 582.228 724.909 605.266C754.909 628.499 784.909 606.242 814.909 587.109C844.909 567.976 874.909 551.576 904.909 538.69C934.909 525.61 964.909 515.848 994.909 517.214C1024.91 518.386 1054.91 530.881 1084.91 545.719C1114.91 560.752 1144.91 578.323 1174.91 566.023C1204.91 553.528 1234.91 511.357 1264.91 515.262C1294.91 519.167 1324.91 569.147 1354.91 595.895C1384.91 622.642 1414.91 625.766 1429.91 627.523L1444.91 629.085V0.423584H1429.91C1414.91 0.423584 1384.91 0.423584 1354.91 0.423584C1324.91 0.423584 1294.91 0.423584 1264.91 0.423584C1234.91 0.423584 1204.91 0.423584 1174.91 0.423584C1144.91 0.423584 1114.91 0.423584 1084.91 0.423584C1054.91 0.423584 1024.91 0.423584 994.909 0.423584C964.909 0.423584 934.909 0.423584 904.909 0.423584C874.909 0.423584 844.909 0.423584 814.909 0.423584C784.909 0.423584 754.909 0.423584 724.909 0.423584C694.909 0.423584 664.909 0.423584 634.909 0.423584C604.909 0.423584 574.909 0.423584 544.909 0.423584C514.909 0.423584 484.909 0.423584 454.909 0.423584C424.909 0.423584 394.909 0.423584 364.909 0.423584C334.909 0.423584 304.909 0.423584 274.909 0.423584C244.909 0.423584 214.909 0.423584 184.909 0.423584C154.909 0.423584 124.909 0.423584 94.9092 0.423584C64.9092 0.423584 34.9092 0.423584 19.9092 0.423584H4.90918V437.753Z" fill="#82DFFF"/>
</g>
<g filter="url(#filter2_d_190_12403)">
<path d="M4.90918 376.185L19.9092 385.041C34.9092 393.657 64.9092 411.368 94.9092 437.217C124.909 463.065 154.909 497.53 184.909 501.838C214.909 506.146 244.909 480.776 274.909 448.466C304.909 416.155 334.909 376.903 364.909 388.152C394.909 399.401 424.909 460.672 454.909 486.999C484.909 513.326 514.909 504.71 544.909 492.983C574.909 481.494 604.909 467.134 634.909 467.134C664.909 467.134 694.909 481.494 724.909 488.674C754.909 495.855 784.909 495.855 814.909 471.203C844.909 446.311 874.909 397.008 904.909 368.287C934.909 339.566 964.909 331.429 994.909 365.415C1024.91 399.401 1054.91 475.032 1084.91 475.511C1114.91 475.989 1144.91 400.837 1174.91 382.887C1204.91 364.936 1234.91 404.188 1264.91 443.679C1294.91 483.17 1324.91 522.9 1354.91 519.31C1384.91 515.72 1414.91 468.809 1429.91 445.115L1444.91 421.66V0.423584H1429.91C1414.91 0.423584 1384.91 0.423584 1354.91 0.423584C1324.91 0.423584 1294.91 0.423584 1264.91 0.423584C1234.91 0.423584 1204.91 0.423584 1174.91 0.423584C1144.91 0.423584 1114.91 0.423584 1084.91 0.423584C1054.91 0.423584 1024.91 0.423584 994.909 0.423584C964.909 0.423584 934.909 0.423584 904.909 0.423584C874.909 0.423584 844.909 0.423584 814.909 0.423584C784.909 0.423584 754.909 0.423584 724.909 0.423584C694.909 0.423584 664.909 0.423584 634.909 0.423584C604.909 0.423584 574.909 0.423584 544.909 0.423584C514.909 0.423584 484.909 0.423584 454.909 0.423584C424.909 0.423584 394.909 0.423584 364.909 0.423584C334.909 0.423584 304.909 0.423584 274.909 0.423584C244.909 0.423584 214.909 0.423584 184.909 0.423584C154.909 0.423584 124.909 0.423584 94.9092 0.423584C64.9092 0.423584 34.9092 0.423584 19.9092 0.423584H4.90918V376.185Z" fill="#FF9FC5"/>
</g>
<g filter="url(#filter3_d_190_12403)">
<path d="M6.66162 416.662L21.6616 425.187C36.6616 433.211 66.6616 450.262 96.6616 475.337C126.662 500.411 156.662 533.51 186.662 567.11C216.662 600.71 246.662 633.808 276.662 613.748C306.662 593.689 336.662 520.471 366.662 462.799C396.662 405.128 426.662 363.002 456.662 354.978C486.662 346.453 516.662 371.528 546.662 380.053C576.662 388.077 606.662 380.053 636.662 406.632C666.662 433.211 696.662 495.396 726.662 557.08C756.662 618.763 786.662 680.948 816.662 675.933C846.662 670.919 876.662 598.704 906.662 530.501C936.662 461.796 966.662 396.602 996.662 413.152C1026.66 430.202 1056.66 528.495 1086.66 554.572C1116.66 580.65 1146.66 533.51 1176.66 519.468C1206.66 505.426 1236.66 523.48 1266.66 505.426C1296.66 486.871 1326.66 431.707 1356.66 459.289C1386.66 486.871 1416.66 597.199 1431.66 652.363L1446.66 707.527V0.423584H1431.66C1416.66 0.423584 1386.66 0.423584 1356.66 0.423584C1326.66 0.423584 1296.66 0.423584 1266.66 0.423584C1236.66 0.423584 1206.66 0.423584 1176.66 0.423584C1146.66 0.423584 1116.66 0.423584 1086.66 0.423584C1056.66 0.423584 1026.66 0.423584 996.662 0.423584C966.662 0.423584 936.662 0.423584 906.662 0.423584C876.662 0.423584 846.662 0.423584 816.662 0.423584C786.662 0.423584 756.662 0.423584 726.662 0.423584C696.662 0.423584 666.662 0.423584 636.662 0.423584C606.662 0.423584 576.662 0.423584 546.662 0.423584C516.662 0.423584 486.662 0.423584 456.662 0.423584C426.662 0.423584 396.662 0.423584 366.662 0.423584C336.662 0.423584 306.662 0.423584 276.662 0.423584C246.662 0.423584 216.662 0.423584 186.662 0.423584C156.662 0.423584 126.662 0.423584 96.6616 0.423584C66.6616 0.423584 36.6616 0.423584 21.6616 0.423584H6.66162V416.662Z" fill="#FEFAF1"/>
</g>
<defs>
<filter id="filter0_d_190_12403" x="0.90918" y="0.423584" width="1448" height="651.6" filterUnits="userSpaceOnUse" color-interpolation-filters="sRGB">
<feFlood flood-opacity="0" result="BackgroundImageFix"/>
<feColorMatrix in="SourceAlpha" type="matrix" values="0 0 0 0 0 0 0 0 0 0 0 0 0 0 0 0 0 0 127 0" result="hardAlpha"/>
<feOffset dy="4"/>
<feGaussianBlur stdDeviation="2"/>
<feComposite in2="hardAlpha" operator="out"/>
<feColorMatrix type="matrix" values="0 0 0 0 0 0 0 0 0 0 0 0 0 0 0 0 0 0 0.25 0"/>
<feBlend mode="normal" in2="BackgroundImageFix" result="effect1_dropShadow_190_12403"/>
<feBlend mode="normal" in="SourceGraphic" in2="effect1_dropShadow_190_12403" result="shape"/>
</filter>
<filter id="filter1_d_190_12403" x="0.90918" y="0.423584" width="1448" height="636.661" filterUnits="userSpaceOnUse" color-interpolation-filters="sRGB">
<feFlood flood-opacity="0" result="BackgroundImageFix"/>
<feColorMatrix in="SourceAlpha" type="matrix" values="0 0 0 0 0 0 0 0 0 0 0 0 0 0 0 0 0 0 127 0" result="hardAlpha"/>
<feOffset dy="4"/>
<feGaussianBlur stdDeviation="2"/>
<feComposite in2="hardAlpha" operator="out"/>
<feColorMatrix type="matrix" values="0 0 0 0 0 0 0 0 0 0 0 0 0 0 0 0 0 0 0.25 0"/>
<feBlend mode="normal" in2="BackgroundImageFix" result="effect1_dropShadow_190_12403"/>
<feBlend mode="normal" in="SourceGraphic" in2="effect1_dropShadow_190_12403" result="shape"/>
</filter>
<filter id="filter2_d_190_12403" x="0.90918" y="0.423584" width="1448" height="527.113" filterUnits="userSpaceOnUse" color-interpolation-filters="sRGB">
<feFlood flood-opacity="0" result="BackgroundImageFix"/>
<feColorMatrix in="SourceAlpha" type="matrix" values="0 0 0 0 0 0 0 0 0 0 0 0 0 0 0 0 0 0 127 0" result="hardAlpha"/>
<feOffset dy="4"/>
<feGaussianBlur stdDeviation="2"/>
<feComposite in2="hardAlpha" operator="out"/>
<feColorMatrix type="matrix" values="0 0 0 0 0 0 0 0 0 0 0 0 0 0 0 0 0 0 0.25 0"/>
<feBlend mode="normal" in2="BackgroundImageFix" result="effect1_dropShadow_190_12403"/>
<feBlend mode="normal" in="SourceGraphic" in2="effect1_dropShadow_190_12403" result="shape"/>
</filter>
<filter id="filter3_d_190_12403" x="2.66162" y="0.423584" width="1448" height="715.104" filterUnits="userSpaceOnUse" color-interpolation-filters="sRGB">
<feFlood flood-opacity="0" result="BackgroundImageFix"/>
<feColorMatrix in="SourceAlpha" type="matrix" values="0 0 0 0 0 0 0 0 0 0 0 0 0 0 0 0 0 0 127 0" result="hardAlpha"/>
<feOffset dy="4"/>
<feGaussianBlur stdDeviation="2"/>
<feComposite in2="hardAlpha" operator="out"/>
<feColorMatrix type="matrix" values="0 0 0 0 0 0 0 0 0 0 0 0 0 0 0 0 0 0 0.25 0"/>
<feBlend mode="normal" in2="BackgroundImageFix" result="effect1_dropShadow_190_12403"/>
<feBlend mode="normal" in="SourceGraphic" in2="effect1_dropShadow_190_12403" result="shape"/>
</filter>
</defs>
</svg>
