<svg width="1440" height="392" viewBox="0 0 1440 392" fill="none" xmlns="http://www.w3.org/2000/svg">
<g clip-path="url(#clip0_221_2997)">
<g filter="url(#filter0_d_221_2997)">
<path d="M19 154.5L26.668 178.91C41.4412 225.938 57.3063 276.601 95.2032 308.124C98.9801 311.266 103.06 314.246 107.5 317C137.479 335.595 149.896 333.202 179.875 307.168C209.854 281.135 239.833 230.927 269.812 221.94C299.792 212.952 329.771 244.874 359.75 268.118C389.729 291.362 419.708 305.928 449.688 280.515C479.667 255.256 509.646 190.173 539.625 162.745C569.604 135.471 599.583 145.699 629.562 151.897C659.542 158.096 689.521 160.265 719.5 152.672C749.479 145.234 779.458 128.188 809.438 137.021C839.417 145.699 869.396 180.41 899.375 183.509C929.354 186.609 959.333 158.096 989.312 168.943C1019.29 179.79 1049.27 229.998 1079.25 245.494C1109.23 260.99 1139.21 241.775 1169.19 241.31C1199.17 240.845 1229.15 258.82 1259.12 247.818C1289.1 236.661 1319.08 196.371 1349.06 203.034C1379.04 209.853 1400.01 240.537 1415 267.5L1430 291L1439 -315H1424.01C1409.02 -315 1379.04 -315 1349.06 -315C1319.08 -315 1289.1 -315 1259.12 -315C1229.15 -315 1199.17 -315 1169.19 -315C1139.21 -315 1109.23 -315 1079.25 -315C1049.27 -315 1019.29 -315 989.312 -315C959.333 -315 929.354 -315 899.375 -315C869.396 -315 839.417 -315 809.438 -315C779.458 -315 749.479 -315 719.5 -315C689.521 -315 659.542 -315 629.562 -315C599.583 -315 569.604 -315 539.625 -315C509.646 -315 479.667 -315 449.688 -315C419.708 -315 389.729 -315 359.75 -315C329.771 -315 299.792 -315 269.812 -315C239.833 -315 209.854 -315 179.875 -315C149.896 -315 119.917 -315 89.9375 -315C59.9583 -315 29.9792 -315 14.9896 -315H0L19 154.5Z" fill="#F2AC81"/>
</g>
<g filter="url(#filter1_d_221_2997)">
<path d="M16.5 7.5L15 120.5V120.5C27.7475 130.306 37.2607 143.539 41.7122 158.993C51.2953 192.262 66.2983 243.572 89 255.5C120 270.5 148.437 213.963 178.125 195.776C207.813 177.783 237.5 137.152 267.188 121.093C296.875 104.841 326.562 113.354 356.25 111.033C385.938 108.711 415.625 95.9413 445.312 104.841C475 113.935 504.687 144.891 534.375 149.148C564.063 153.211 593.75 130.767 623.438 153.211C653.125 175.848 682.812 243.565 712.5 266.396C742.188 289.42 771.875 267.363 801.562 248.402C831.25 229.441 860.937 213.189 890.625 200.42C920.313 187.457 950 177.783 979.688 179.137C1009.38 180.298 1039.06 192.68 1068.75 207.385C1098.44 222.283 1128.12 239.696 1157.81 227.507C1187.5 215.124 1217.19 173.333 1246.88 177.202C1276.56 181.072 1306.25 230.602 1335.94 257.109C1365.63 283.615 1395.31 286.711 1410.16 288.452L1425 290V-333H1410.16C1395.31 -333 1365.63 -333 1335.94 -333C1306.25 -333 1276.56 -333 1246.88 -333C1217.19 -333 1187.5 -333 1157.81 -333C1128.12 -333 1098.44 -333 1068.75 -333C1039.06 -333 1009.38 -333 979.688 -333C950 -333 920.313 -333 890.625 -333C860.937 -333 831.25 -333 801.562 -333C771.875 -333 742.188 -333 712.5 -333C682.812 -333 653.125 -333 623.438 -333C593.75 -333 564.063 -333 534.375 -333C504.687 -333 475 -333 445.312 -333C415.625 -333 385.938 -333 356.25 -333C326.562 -333 296.875 -333 267.188 -333C237.5 -333 207.813 -333 178.125 -333C148.437 -333 118.75 -333 89.0625 -333C59.375 -333 29.6875 -333 14.8438 -333H0L16.5 7.5Z" fill="#82DFFF"/>
</g>
<g filter="url(#filter2_d_221_2997)">
<path d="M58.5 1.00004L101.5 61.5C116.448 70.0812 118.292 95.272 148.188 121.016C178.083 146.759 207.979 181.083 237.875 185.374C267.771 189.665 297.667 164.398 327.562 132.219C357.458 100.039 387.354 60.9476 417.25 72.1508C447.146 83.3539 477.042 144.375 506.938 170.595C536.833 196.816 566.729 188.234 596.625 176.555C626.521 165.113 656.417 150.811 686.312 150.811C716.208 150.811 746.104 165.113 776 172.264C805.896 179.415 835.792 179.415 865.688 154.863C895.583 130.073 925.479 80.9704 955.375 52.3665C985.271 23.7626 1015.17 15.6582 1045.06 49.5061C1074.96 83.354 1104.85 158.677 1134.75 159.154C1164.65 159.631 1194.54 84.7842 1224.44 66.9068C1254.33 49.0294 1284.23 88.1211 1314.12 127.451C1344.02 166.782 1373.92 206.35 1403.81 202.775C1433.71 199.199 1463.6 152.48 1478.55 128.882L1490.51 105.876L1493.5 -314H1478.55C1463.6 -314 1433.71 -314 1403.81 -314C1373.92 -314 1344.02 -314 1314.12 -314C1284.23 -314 1254.33 -314 1224.44 -314C1194.54 -314 1164.65 -314 1134.75 -314C1104.85 -314 1074.96 -314 1045.06 -314C1015.17 -314 985.271 -314 955.375 -314C925.479 -314 895.583 -314 865.688 -314C835.792 -314 805.896 -314 776 -314C746.104 -314 716.208 -314 686.312 -314C656.417 -314 626.521 -314 596.625 -314C566.729 -314 536.833 -314 506.938 -314C477.042 -314 447.146 -314 417.25 -314C387.354 -314 357.458 -314 327.562 -314C297.667 -314 267.771 -314 237.875 -314C207.979 -314 178.083 -314 148.188 -314C118.292 -314 88.3958 -314 73.4479 -314H58.5V1.00004Z" fill="#FF9FC5"/>
</g>
<g filter="url(#filter3_d_221_2997)">
<path d="M0 235.5V258.668C0 262.385 5.42455 262.783 5.96779 259.106L25 130.284V130.284C28.3743 115.499 43.521 110.082 53.3681 121.616C62.6418 132.478 73.8724 145.944 89.875 159.342C119.833 184.424 149.792 217.533 179.75 251.143C209.708 284.753 239.667 317.862 269.625 297.796C299.583 277.73 329.542 204.49 359.5 146.801C389.458 89.1118 419.417 46.9736 449.375 38.9473C479.333 30.4194 509.292 55.5016 539.25 64.0295C569.208 72.0559 599.167 64.0296 629.125 90.6168C659.083 117.204 689.042 179.408 719 241.11C748.958 302.813 778.917 365.017 808.875 360C838.833 354.984 868.792 282.747 898.75 214.523C928.708 145.798 958.667 80.5839 988.625 97.1382C1018.58 114.194 1048.54 212.516 1078.5 238.602C1108.46 264.687 1138.42 217.533 1168.38 203.487C1198.33 189.441 1228.29 207.5 1258.25 189.441C1288.21 170.88 1318.17 115.699 1348.12 143.289C1375.31 168.328 1413.39 263.644 1431.4 322.304C1432.39 325.524 1437.33 325.017 1437.58 321.658L1440 290.284L1453 -315.716H1423.02C1408.04 -315.716 1378.08 -315.716 1348.12 -315.716C1318.17 -315.716 1288.21 -315.716 1258.25 -315.716C1228.29 -315.716 1198.33 -315.716 1168.38 -315.716C1138.42 -315.716 1108.46 -315.716 1078.5 -315.716C1048.54 -315.716 1018.58 -315.716 988.625 -315.716C958.667 -315.716 928.708 -315.716 898.75 -315.716C868.792 -315.716 838.833 -315.716 808.875 -315.716C778.917 -315.716 748.958 -315.716 719 -315.716C689.042 -315.716 659.083 -315.716 629.125 -315.716C599.167 -315.716 569.208 -315.716 539.25 -315.716C509.292 -315.716 479.333 -315.716 449.375 -315.716C419.417 -315.716 389.458 -315.716 359.5 -315.716C329.542 -315.716 299.583 -315.716 269.625 -315.716C239.667 -315.716 209.708 -315.716 179.75 -315.716C149.792 -315.716 119.833 -315.716 89.875 -315.716C59.9167 -315.716 29.9583 -315.716 14.9792 -315.716H0V235.5Z" fill="#FEFAF1"/>
</g>
</g>
<defs>
<filter id="filter0_d_221_2997" x="-6" y="-315" width="1447" height="652.135" filterUnits="userSpaceOnUse" color-interpolation-filters="sRGB">
<feFlood flood-opacity="0" result="BackgroundImageFix"/>
<feColorMatrix in="SourceAlpha" type="matrix" values="0 0 0 0 0 0 0 0 0 0 0 0 0 0 0 0 0 0 127 0" result="hardAlpha"/>
<feOffset dx="-2" dy="4"/>
<feGaussianBlur stdDeviation="2"/>
<feComposite in2="hardAlpha" operator="out"/>
<feColorMatrix type="matrix" values="0 0 0 0 0 0 0 0 0 0 0 0 0 0 0 0 0 0 0.25 0"/>
<feBlend mode="normal" in2="BackgroundImageFix" result="effect1_dropShadow_221_2997"/>
<feBlend mode="normal" in="SourceGraphic" in2="effect1_dropShadow_221_2997" result="shape"/>
</filter>
<filter id="filter1_d_221_2997" x="-6" y="-333" width="1433" height="631" filterUnits="userSpaceOnUse" color-interpolation-filters="sRGB">
<feFlood flood-opacity="0" result="BackgroundImageFix"/>
<feColorMatrix in="SourceAlpha" type="matrix" values="0 0 0 0 0 0 0 0 0 0 0 0 0 0 0 0 0 0 127 0" result="hardAlpha"/>
<feOffset dx="-2" dy="4"/>
<feGaussianBlur stdDeviation="2"/>
<feComposite in2="hardAlpha" operator="out"/>
<feColorMatrix type="matrix" values="0 0 0 0 0 0 0 0 0 0 0 0 0 0 0 0 0 0 0.25 0"/>
<feBlend mode="normal" in2="BackgroundImageFix" result="effect1_dropShadow_221_2997"/>
<feBlend mode="normal" in="SourceGraphic" in2="effect1_dropShadow_221_2997" result="shape"/>
</filter>
<filter id="filter2_d_221_2997" x="52.5" y="-314" width="1443" height="525" filterUnits="userSpaceOnUse" color-interpolation-filters="sRGB">
<feFlood flood-opacity="0" result="BackgroundImageFix"/>
<feColorMatrix in="SourceAlpha" type="matrix" values="0 0 0 0 0 0 0 0 0 0 0 0 0 0 0 0 0 0 127 0" result="hardAlpha"/>
<feOffset dx="-2" dy="4"/>
<feGaussianBlur stdDeviation="2"/>
<feComposite in2="hardAlpha" operator="out"/>
<feColorMatrix type="matrix" values="0 0 0 0 0 0 0 0 0 0 0 0 0 0 0 0 0 0 0.25 0"/>
<feBlend mode="normal" in2="BackgroundImageFix" result="effect1_dropShadow_221_2997"/>
<feBlend mode="normal" in="SourceGraphic" in2="effect1_dropShadow_221_2997" result="shape"/>
</filter>
<filter id="filter3_d_221_2997" x="-6" y="-315.716" width="1461" height="684" filterUnits="userSpaceOnUse" color-interpolation-filters="sRGB">
<feFlood flood-opacity="0" result="BackgroundImageFix"/>
<feColorMatrix in="SourceAlpha" type="matrix" values="0 0 0 0 0 0 0 0 0 0 0 0 0 0 0 0 0 0 127 0" result="hardAlpha"/>
<feOffset dx="-2" dy="4"/>
<feGaussianBlur stdDeviation="2"/>
<feComposite in2="hardAlpha" operator="out"/>
<feColorMatrix type="matrix" values="0 0 0 0 0 0 0 0 0 0 0 0 0 0 0 0 0 0 0.25 0"/>
<feBlend mode="normal" in2="BackgroundImageFix" result="effect1_dropShadow_221_2997"/>
<feBlend mode="normal" in="SourceGraphic" in2="effect1_dropShadow_221_2997" result="shape"/>
</filter>
<clipPath id="clip0_221_2997">
<rect width="1440" height="392" fill="white"/>
</clipPath>
</defs>
</svg>
