<svg id="visual" viewBox="0 0 960 540" width="960" height="540" xmlns="http://www.w3.org/2000/svg" xmlns:xlink="http://www.w3.org/1999/xlink" version="1.1"><rect x="0" y="0" width="960" height="540" fill="none"></rect><path d="M0 345L10 357.7C20 370.3 40 395.7 60 407.7C80 419.7 100 418.3 120 401.5C140 384.7 160 352.3 180 346.5C200 340.7 220 361.3 240 376.3C260 391.3 280 400.7 300 384.3C320 368 340 326 360 308.3C380 290.7 400 297.3 420 301.3C440 305.3 460 306.7 480 301.8C500 297 520 286 540 291.7C560 297.3 580 319.7 600 321.7C620 323.7 640 305.3 660 312.3C680 319.3 700 351.7 720 361.7C740 371.7 760 359.3 780 359C800 358.7 820 370.3 840 363.2C860 356 880 330 900 334.3C920 338.7 940 373.3 950 390.7L960 408L960 0L950 0C940 0 920 0 900 0C880 0 860 0 840 0C820 0 800 0 780 0C760 0 740 0 720 0C700 0 680 0 660 0C640 0 620 0 600 0C580 0 560 0 540 0C520 0 500 0 480 0C460 0 440 0 420 0C400 0 380 0 360 0C340 0 320 0 300 0C280 0 260 0 240 0C220 0 200 0 180 0C160 0 140 0 120 0C100 0 80 0 60 0C40 0 20 0 10 0L0 0Z" fill="#835949"></path><path d="M0 224L10 233C20 242 40 260 60 270.2C80 280.3 100 282.7 120 273.3C140 264 160 243 180 234.7C200 226.3 220 230.7 240 229.5C260 228.3 280 221.7 300 226.3C320 231 340 247 360 249.2C380 251.3 400 239.7 420 251.3C440 263 460 298 480 309.8C500 321.7 520 310.3 540 300.5C560 290.7 580 282.3 600 275.7C620 269 640 264 660 264.7C680 265.3 700 271.7 720 279.3C740 287 760 296 780 289.7C800 283.3 820 261.7 840 263.7C860 265.7 880 291.3 900 305C920 318.7 940 320.3 950 321.2L960 322L960 0L950 0C940 0 920 0 900 0C880 0 860 0 840 0C820 0 800 0 780 0C760 0 740 0 720 0C700 0 680 0 660 0C640 0 620 0 600 0C580 0 560 0 540 0C520 0 500 0 480 0C460 0 440 0 420 0C400 0 380 0 360 0C340 0 320 0 300 0C280 0 260 0 240 0C220 0 200 0 180 0C160 0 140 0 120 0C100 0 80 0 60 0C40 0 20 0 10 0L0 0Z" fill="#82DFFF"></path><path d="M0 157L10 160.7C20 164.3 40 171.7 60 182.5C80 193.3 100 207.7 120 209.5C140 211.3 160 200.7 180 187.2C200 173.7 220 157.3 240 162C260 166.7 280 192.3 300 203.3C320 214.3 340 210.7 360 205.8C380 201 400 195 420 195C440 195 460 201 480 204C500 207 520 207 540 196.7C560 186.3 580 165.7 600 153.7C620 141.7 640 138.3 660 152.5C680 166.7 700 198.3 720 198.5C740 198.7 760 167.3 780 159.8C800 152.3 820 168.7 840 185.2C860 201.7 880 218.3 900 216.8C920 215.3 940 195.7 950 185.8L960 176L960 0L950 0C940 0 920 0 900 0C880 0 860 0 840 0C820 0 800 0 780 0C760 0 740 0 720 0C700 0 680 0 660 0C640 0 620 0 600 0C580 0 560 0 540 0C520 0 500 0 480 0C460 0 440 0 420 0C400 0 380 0 360 0C340 0 320 0 300 0C280 0 260 0 240 0C220 0 200 0 180 0C160 0 140 0 120 0C100 0 80 0 60 0C40 0 20 0 10 0L0 0Z" fill="#FF9FC5"></path><path d="M0 83L10 84.7C20 86.3 40 89.7 60 94.7C80 99.7 100 106.3 120 113C140 119.7 160 126.3 180 122.3C200 118.3 220 103.7 240 92.2C260 80.7 280 72.3 300 70.7C320 69 340 74 360 75.7C380 77.3 400 75.7 420 81C440 86.3 460 98.7 480 111C500 123.3 520 135.7 540 134.7C560 133.7 580 119.3 600 105.7C620 92 640 79 660 82.3C680 85.7 700 105.3 720 110.5C740 115.7 760 106.3 780 103.5C800 100.7 820 104.3 840 100.7C860 97 880 86 900 91.5C920 97 940 119 950 130L960 141L960 0L950 0C940 0 920 0 900 0C880 0 860 0 840 0C820 0 800 0 780 0C760 0 740 0 720 0C700 0 680 0 660 0C640 0 620 0 600 0C580 0 560 0 540 0C520 0 500 0 480 0C460 0 440 0 420 0C400 0 380 0 360 0C340 0 320 0 300 0C280 0 260 0 240 0C220 0 200 0 180 0C160 0 140 0 120 0C100 0 80 0 60 0C40 0 20 0 10 0L0 0Z" fill="#FEE98E"></path></svg>