<svg width="152" height="134" viewBox="0 0 152 134" fill="none" xmlns="http://www.w3.org/2000/svg">
<g clip-path="url(#clip0_623_2750)">
<path d="M138.379 65.3638C138.379 30.0772 109.821 1.47168 74.5941 1.47168C39.3669 1.47168 10.8096 30.0772 10.8096 65.3638C10.8096 100.65 39.3669 129.256 74.5941 129.256C109.821 129.256 138.379 100.65 138.379 65.3638Z" fill="#82DFFF" stroke="#49ACCE" stroke-width="2"/>
<path d="M53.1587 99.0608L95.7522 101.257L94.8253 102.078L94.8454 102.55C95.3398 114.199 86.0452 123.914 74.4052 123.914C62.8032 123.914 53.5229 114.26 53.9611 102.647L54.0569 100.107L53.1587 99.0608Z" fill="#333333"/>
<path d="M71.8861 117.306C72.6229 116.669 73.5091 116.23 74.4614 116.03L74.5838 116.004C75.3765 115.838 76.1971 115.859 76.9802 116.065C77.9383 116.318 78.8045 116.838 79.478 117.565L83.2009 121.586L79.7297 122.996L75.7892 123.591H71.323L69.3165 122.996L66.4956 121.967L71.8861 117.306Z" fill="#F56BA3"/>
<path d="M57.3148 99.2201L92.3908 100.954C92.3908 104.3 89.6835 107.012 86.3438 107.012H64.8633C60.6639 107.012 57.3148 103.427 57.3148 99.2201Z" fill="white"/>
<g filter="url(#filter0_d_623_2750)">
<path d="M21.2087 89.0034C20.583 88.836 20.0905 88.4276 19.7313 87.7785C19.4715 87.2744 19.223 86.709 18.9859 86.0826C18.8022 85.4408 18.5955 84.719 18.3659 83.9168C18.1743 83.0458 18.025 82.423 17.9178 82.0488C15.2929 73.4847 12.9011 65.4324 10.7426 57.8918C9.57911 53.8275 8.44231 49.7554 7.33223 45.6757C7.2019 45.0185 6.94538 44.0215 6.56265 42.6845C6.21801 41.2788 5.95383 40.255 5.77013 39.6132C5.66298 39.239 5.55579 38.8645 5.44863 38.4903C5.32617 38.0623 5.21901 37.6881 5.12716 37.3671C5.02 36.9928 4.96622 36.603 4.96582 36.198C4.95013 35.7395 4.97645 35.327 5.04476 34.96C5.15114 34.5243 5.29953 34.1344 5.48995 33.7904C5.93944 33.1403 6.93067 32.5663 8.46364 32.0682C11.621 30.9875 13.5734 30.34 14.3209 30.1253C14.4811 30.0792 14.8204 29.953 15.339 29.7459C15.911 29.524 16.3381 29.4012 16.6203 29.3779C16.8873 29.3013 17.261 29.1941 17.7415 29.0559C18.2754 28.9025 18.6911 28.841 18.9887 28.8712C19.3396 28.8864 19.7059 28.9547 20.0875 29.0767C20.5071 29.1297 20.8696 29.2861 21.175 29.5456C21.5185 29.7363 21.8049 30.0302 22.0341 30.4273C22.4314 31.0078 22.8214 31.9665 23.2041 33.3035C23.6328 34.801 24.2871 36.9858 25.1672 39.8583C26.0854 42.662 26.7357 44.7324 27.1184 46.0694C27.7308 48.2087 28.6378 51.276 29.8393 55.2715C30.7807 58.3579 31.2514 59.9012 31.2514 59.9012C31.2819 60.0081 31.3548 60.3633 31.4698 60.967C31.6383 61.5553 31.8026 62.0289 31.9632 62.388C32.1085 62.6934 32.3186 62.9224 32.5932 63.0752C33.0361 63.4108 33.7304 63.4139 34.676 63.0846C35.9574 62.7166 36.9108 62.4138 37.5361 62.1763C38.2836 61.9616 38.76 61.7089 38.9657 61.4184C39.3164 61.0283 39.4531 60.4971 39.3763 59.8245C39.3684 59.5953 39.2419 59.0529 38.9969 58.1972C38.7368 57.2881 38.3885 55.9701 37.9519 54.2435C37.5687 52.5014 37.3159 51.4166 37.1935 50.9889C36.2594 47.3215 35.5432 44.5178 35.0457 42.577C33.7593 37.6797 32.7906 33.9936 32.14 31.5182C32.0785 31.3044 31.9866 30.9833 31.8643 30.5556C31.7953 30.1123 31.7299 29.784 31.6687 29.5699C31.2936 28.0573 31.323 26.949 31.7573 26.2457C32.0999 25.6263 32.9577 25.0906 34.3305 24.6384C39.2877 22.983 42.7428 21.9327 44.6954 21.4877C45.6717 21.2651 46.3545 21.3294 46.744 21.6806C46.9499 21.795 47.1332 22.0317 47.2939 22.3907C47.6531 23.0399 47.9322 23.7122 48.1311 24.4074C48.3837 25.0873 48.6208 25.9162 48.8429 26.8942C49.1033 27.8033 49.2946 28.4717 49.4172 28.8997C49.5703 29.4345 49.7617 30.1029 49.9913 30.9051C50.2589 31.6384 50.5 32.3796 50.7143 33.1283C50.9819 33.8616 51.2001 34.5224 51.3685 35.1108C52.5013 39.0682 53.7262 43.549 55.0433 48.5531C56.2604 53.0071 57.4778 57.4613 58.6949 61.9152C59.5676 64.9635 60.2182 67.2365 60.647 68.7339C60.754 69.1082 60.8995 69.6162 61.083 70.258C61.2668 70.8998 61.4199 71.4346 61.5425 71.8623C61.7183 72.2749 61.8638 72.7829 61.9786 73.3866C62.0937 73.9901 62.1858 74.5134 62.2548 74.9568C62.3244 75.8049 62.1189 76.5004 61.6389 77.0436C61.2884 77.4337 60.667 77.7858 59.7745 78.0998C58.8823 78.414 55.2596 79.4835 48.9062 81.3084C48.2121 81.5077 47.6555 81.581 47.2358 81.5278C46.8315 81.5283 46.5186 81.4443 46.297 81.2766C45.8161 81.0096 45.3004 80.1159 44.7498 78.5958C44.1989 77.0754 43.7245 75.6202 43.3265 74.2297C42.9667 72.7704 42.6373 71.6206 42.339 70.7803C42.056 69.9935 41.7162 69.5124 41.3192 69.3369C40.4416 68.8946 38.8168 69.2743 36.4453 70.4765C36.0871 70.6371 35.8697 70.7866 35.7934 70.924C35.481 71.2453 35.3938 71.849 35.532 72.7354C35.6164 73.2322 35.7239 73.8091 35.854 74.466C35.9691 75.0697 36.1071 75.7535 36.268 76.5176C36.4135 77.2282 36.5211 77.8051 36.59 78.2481C36.6208 78.3551 36.7088 78.7637 36.8546 79.4743C37.0381 80.1161 37.1493 80.6051 37.1878 80.9413C37.2643 81.2088 37.2914 81.606 37.269 82.1333C37.2466 82.6606 37.167 83.0888 37.0298 83.4174C36.7252 83.9679 36.0886 84.4692 35.1201 84.9208C32.1309 86.1846 28.146 87.5029 23.1654 88.8756C22.2578 89.1361 21.6056 89.1789 21.2087 89.0034Z" fill="#FE9FC5"/>
<path d="M71.7972 74.225C71.9292 73.0982 72.1047 71.9268 72.3239 70.7112C72.6129 69.4597 72.9792 67.9704 73.4228 66.243C73.9365 64.4795 74.2877 63.3071 74.4764 62.725C75.6011 58.1772 76.7206 54.0959 77.8349 50.4806C78.417 48.5057 79.3907 44.874 80.7557 39.5859C82.1207 34.2974 83.293 30.2331 84.2727 27.3931C84.9605 25.4525 85.8915 24.2931 87.0654 23.9147C87.5382 23.7176 88.3284 23.7116 89.4364 23.8967C96.8393 25.0191 102.504 26.1901 106.43 27.4093C107.486 27.753 108.218 28.1961 108.626 28.7385C108.858 29.1062 109.036 29.5446 109.163 30.0539C109.344 30.7562 109.49 33.8165 109.602 39.2343C109.783 44.6166 109.856 48.4426 109.821 50.7125C110.535 49.9505 111.544 48.6411 112.847 46.7838C114.203 44.9437 115.61 42.945 117.069 40.7875C118.581 38.647 119.441 37.4354 119.65 37.1525C120.953 35.2952 122.201 34.2387 123.393 33.9834C124.042 33.785 124.797 33.7967 125.659 34.0189C126.575 34.2583 127.332 34.5342 127.931 34.8461C128.249 34.9494 128.61 35.0962 129.015 35.2866C129.438 35.4243 129.825 35.5794 130.178 35.7528C130.547 35.8731 130.917 35.9935 131.287 36.1138C131.657 36.2342 132.018 36.3811 132.371 36.5542C132.793 36.6917 133.181 36.8471 133.533 37.0205C134.52 37.4 135.885 37.9614 137.63 38.7047C139.427 39.4651 140.634 39.9749 141.251 40.2342C141.973 40.5278 142.449 40.7703 142.679 40.9623C143.668 41.6935 144.079 42.6756 143.913 43.9086C143.897 44.1373 143.786 44.5692 143.58 45.2042C142.961 46.9329 142.514 48.2207 142.24 49.0674C138.766 58.8758 135.831 66.6657 133.433 72.4369C132.501 74.5904 131.242 77.6611 129.656 81.6493C128.071 85.6377 127.036 88.1966 126.553 89.3263C126.071 90.6318 125.366 91.4553 124.438 91.7967C123.842 92.0124 122.938 92.0103 121.724 91.791C116.993 90.8944 112.805 89.941 109.162 88.9307C107.454 88.4334 106.439 87.7814 106.117 86.9745C105.832 86.4138 105.756 85.6578 105.889 84.7068C106.04 83.7027 106.269 82.6366 106.576 81.5082C106.901 80.3271 107.227 79.2337 107.552 78.2284C107.932 77.2402 108.31 76.1642 108.687 75.0001C109.118 73.8534 109.461 72.7952 109.717 71.8256C105.978 76.6921 103.192 79.9683 101.361 81.6535C100.785 82.168 100.313 82.4531 99.9447 82.5089C99.2964 82.7073 98.6716 82.5623 98.0707 82.0744C97.5583 81.6736 97.2733 81.1129 97.215 80.3918C96.7247 75.9621 96.3798 72.1646 96.1801 68.9992C95.944 70.2676 95.5782 71.8451 95.0833 73.7314C94.6053 75.5647 93.9268 77.5667 93.0474 79.7375C92.221 81.9252 91.44 83.1629 90.7045 83.4498C90.0388 83.7012 89.0906 83.7437 87.86 83.577C84.0264 82.9728 79.8893 81.6848 75.4483 79.713C73.5095 78.848 72.352 77.9154 71.9758 76.9156C71.7077 76.3019 71.6481 75.4051 71.7972 74.225Z" fill="#FE9FC5"/>
<mask id="mask0_623_2750" style="mask-type:luminance" maskUnits="userSpaceOnUse" x="2" y="18" width="147" height="79">
<path d="M148.151 18.7502H2.35791V96.9855H148.151V18.7502Z" fill="white"/>
<path d="M21.2087 89.0034C20.583 88.836 20.0905 88.4276 19.7313 87.7785C19.4715 87.2744 19.223 86.709 18.9859 86.0826C18.8022 85.4408 18.5955 84.719 18.3659 83.9168C18.1743 83.0458 18.025 82.423 17.9178 82.0488C15.2929 73.4847 12.9011 65.4324 10.7426 57.8918C9.57911 53.8275 8.44231 49.7554 7.33223 45.6757C7.2019 45.0185 6.94538 44.0215 6.56265 42.6845C6.21801 41.2788 5.95383 40.255 5.77013 39.6132C5.66298 39.239 5.55579 38.8645 5.44863 38.4903C5.32617 38.0623 5.21901 37.6881 5.12716 37.3671C5.02 36.9928 4.96622 36.603 4.96582 36.198C4.95013 35.7395 4.97645 35.327 5.04476 34.96C5.15114 34.5243 5.29953 34.1344 5.48995 33.7904C5.93944 33.1403 6.93067 32.5663 8.46364 32.0682C11.621 30.9875 13.5734 30.34 14.3209 30.1253C14.4811 30.0792 14.8204 29.953 15.339 29.7459C15.911 29.524 16.3381 29.4012 16.6203 29.3779C16.8873 29.3013 17.261 29.1941 17.7415 29.0559C18.2754 28.9025 18.6911 28.841 18.9887 28.8712C19.3396 28.8864 19.7059 28.9547 20.0875 29.0767C20.5071 29.1297 20.8696 29.2861 21.175 29.5456C21.5185 29.7363 21.8049 30.0302 22.0341 30.4273C22.4314 31.0078 22.8214 31.9665 23.2041 33.3035C23.6328 34.801 24.2871 36.9858 25.1672 39.8583C26.0854 42.662 26.7357 44.7324 27.1184 46.0694C27.7308 48.2087 28.6378 51.276 29.8393 55.2715C30.7807 58.3579 31.2514 59.9012 31.2514 59.9012C31.2819 60.0081 31.3548 60.3633 31.4698 60.967C31.6383 61.5553 31.8026 62.0289 31.9632 62.388C32.1085 62.6934 32.3186 62.9224 32.5932 63.0752C33.0361 63.4108 33.7304 63.4139 34.676 63.0846C35.9574 62.7166 36.9108 62.4138 37.5361 62.1763C38.2836 61.9616 38.76 61.7089 38.9657 61.4184C39.3164 61.0283 39.4531 60.4971 39.3763 59.8245C39.3684 59.5953 39.2419 59.0529 38.9969 58.1972C38.7368 57.2881 38.3885 55.9701 37.9519 54.2435C37.5687 52.5014 37.3159 51.4166 37.1935 50.9889C36.2594 47.3215 35.5432 44.5178 35.0457 42.577C33.7593 37.6797 32.7906 33.9936 32.14 31.5182C32.0785 31.3044 31.9866 30.9833 31.8643 30.5556C31.7953 30.1123 31.7299 29.784 31.6687 29.5699C31.2936 28.0573 31.323 26.949 31.7573 26.2457C32.0999 25.6263 32.9577 25.0906 34.3305 24.6384C39.2877 22.983 42.7428 21.9327 44.6954 21.4877C45.6717 21.2651 46.3545 21.3294 46.744 21.6806C46.9499 21.795 47.1332 22.0317 47.2939 22.3907C47.6531 23.0399 47.9322 23.7122 48.1311 24.4074C48.3837 25.0873 48.6208 25.9162 48.8429 26.8942C49.1033 27.8033 49.2946 28.4717 49.4172 28.8997C49.5703 29.4345 49.7617 30.1029 49.9913 30.9051C50.2589 31.6384 50.5 32.3796 50.7143 33.1283C50.9819 33.8616 51.2001 34.5224 51.3685 35.1108C52.5013 39.0682 53.7262 43.549 55.0433 48.5531C56.2604 53.0071 57.4778 57.4613 58.6949 61.9152C59.5676 64.9635 60.2182 67.2365 60.647 68.7339C60.754 69.1082 60.8995 69.6162 61.083 70.258C61.2668 70.8998 61.4199 71.4346 61.5425 71.8623C61.7183 72.2749 61.8638 72.7829 61.9786 73.3866C62.0937 73.9901 62.1858 74.5134 62.2548 74.9568C62.3244 75.8049 62.1189 76.5004 61.6389 77.0436C61.2884 77.4337 60.667 77.7858 59.7745 78.0998C58.8823 78.414 55.2596 79.4835 48.9062 81.3084C48.2121 81.5077 47.6555 81.581 47.2358 81.5278C46.8315 81.5283 46.5186 81.4443 46.297 81.2766C45.8161 81.0096 45.3004 80.1159 44.7498 78.5958C44.1989 77.0754 43.7245 75.6202 43.3265 74.2297C42.9667 72.7704 42.6373 71.6206 42.339 70.7803C42.056 69.9935 41.7162 69.5124 41.3192 69.3369C40.4416 68.8946 38.8168 69.2743 36.4453 70.4765C36.0871 70.6371 35.8697 70.7866 35.7934 70.924C35.481 71.2453 35.3938 71.849 35.532 72.7354C35.6164 73.2322 35.7239 73.8091 35.854 74.466C35.9691 75.0697 36.1071 75.7535 36.268 76.5176C36.4135 77.2282 36.5211 77.8051 36.59 78.2481C36.6208 78.3551 36.7088 78.7637 36.8546 79.4743C37.0381 80.1161 37.1493 80.6051 37.1878 80.9413C37.2643 81.2088 37.2914 81.606 37.269 82.1333C37.2466 82.6606 37.167 83.0888 37.0298 83.4174C36.7252 83.9679 36.0886 84.4692 35.1201 84.9208C32.1309 86.1846 28.146 87.5029 23.1654 88.8756C22.2578 89.1361 21.6056 89.1789 21.2087 89.0034Z" fill="black"/>
<path d="M71.7972 74.225C71.9292 73.0982 72.1047 71.9268 72.3239 70.7112C72.6129 69.4597 72.9792 67.9704 73.4228 66.243C73.9365 64.4795 74.2877 63.3071 74.4764 62.725C75.6011 58.1772 76.7206 54.0959 77.8349 50.4806C78.417 48.5057 79.3907 44.874 80.7557 39.5859C82.1207 34.2974 83.293 30.2331 84.2727 27.3931C84.9605 25.4525 85.8915 24.2931 87.0654 23.9147C87.5382 23.7176 88.3284 23.7116 89.4364 23.8967C96.8393 25.0191 102.504 26.1901 106.43 27.4093C107.486 27.753 108.218 28.1961 108.626 28.7385C108.858 29.1062 109.036 29.5446 109.163 30.0539C109.344 30.7562 109.49 33.8165 109.602 39.2343C109.783 44.6166 109.856 48.4426 109.821 50.7125C110.535 49.9505 111.544 48.6411 112.847 46.7838C114.203 44.9437 115.61 42.945 117.069 40.7875C118.581 38.647 119.441 37.4354 119.65 37.1525C120.953 35.2952 122.201 34.2387 123.393 33.9834C124.042 33.785 124.797 33.7967 125.659 34.0189C126.575 34.2583 127.332 34.5342 127.931 34.8461C128.249 34.9494 128.61 35.0962 129.015 35.2866C129.438 35.4243 129.825 35.5794 130.178 35.7528C130.547 35.8731 130.917 35.9935 131.287 36.1138C131.657 36.2342 132.018 36.3811 132.371 36.5542C132.793 36.6917 133.181 36.8471 133.533 37.0205C134.52 37.4 135.885 37.9614 137.63 38.7047C139.427 39.4651 140.634 39.9749 141.251 40.2342C141.973 40.5278 142.449 40.7703 142.679 40.9623C143.668 41.6935 144.079 42.6756 143.913 43.9086C143.897 44.1373 143.786 44.5692 143.58 45.2042C142.961 46.9329 142.514 48.2207 142.24 49.0674C138.766 58.8758 135.831 66.6657 133.433 72.4369C132.501 74.5904 131.242 77.6611 129.656 81.6493C128.071 85.6377 127.036 88.1966 126.553 89.3263C126.071 90.6318 125.366 91.4553 124.438 91.7967C123.842 92.0124 122.938 92.0103 121.724 91.791C116.993 90.8944 112.805 89.941 109.162 88.9307C107.454 88.4334 106.439 87.7814 106.117 86.9745C105.832 86.4138 105.756 85.6578 105.889 84.7068C106.04 83.7027 106.269 82.6366 106.576 81.5082C106.901 80.3271 107.227 79.2337 107.552 78.2284C107.932 77.2402 108.31 76.1642 108.687 75.0001C109.118 73.8534 109.461 72.7952 109.717 71.8256C105.978 76.6921 103.192 79.9683 101.361 81.6535C100.785 82.168 100.313 82.4531 99.9447 82.5089C99.2964 82.7073 98.6716 82.5623 98.0707 82.0744C97.5583 81.6736 97.2733 81.1129 97.215 80.3918C96.7247 75.9621 96.3798 72.1646 96.1801 68.9992C95.944 70.2676 95.5782 71.8451 95.0833 73.7314C94.6053 75.5647 93.9268 77.5667 93.0474 79.7375C92.221 81.9252 91.44 83.1629 90.7045 83.4498C90.0388 83.7012 89.0906 83.7437 87.86 83.577C84.0264 82.9728 79.8893 81.6848 75.4483 79.713C73.5095 78.848 72.352 77.9154 71.9758 76.9156C71.7077 76.3019 71.6481 75.4051 71.7972 74.225Z" fill="black"/>
</mask>
<g mask="url(#mask0_623_2750)">
<path d="M21.2087 89.0034C20.583 88.836 20.0905 88.4276 19.7313 87.7785C19.4715 87.2744 19.223 86.709 18.9859 86.0826C18.8022 85.4408 18.5955 84.719 18.3659 83.9168C18.1743 83.0458 18.025 82.423 17.9178 82.0488C15.2929 73.4847 12.9011 65.4324 10.7426 57.8918C9.57911 53.8275 8.44231 49.7554 7.33223 45.6757C7.2019 45.0185 6.94538 44.0215 6.56265 42.6845C6.21801 41.2788 5.95383 40.255 5.77013 39.6132C5.66298 39.239 5.55579 38.8645 5.44863 38.4903C5.32617 38.0623 5.21901 37.6881 5.12716 37.3671C5.02 36.9928 4.96622 36.603 4.96582 36.198C4.95013 35.7395 4.97645 35.327 5.04476 34.96C5.15114 34.5243 5.29953 34.1344 5.48995 33.7904C5.93944 33.1403 6.93067 32.5663 8.46364 32.0682C11.621 30.9875 13.5734 30.34 14.3209 30.1253C14.4811 30.0792 14.8204 29.953 15.339 29.7459C15.911 29.524 16.3381 29.4012 16.6203 29.3779C16.8873 29.3013 17.261 29.1941 17.7415 29.0559C18.2754 28.9025 18.6911 28.841 18.9887 28.8712C19.3396 28.8864 19.7059 28.9547 20.0875 29.0767C20.5071 29.1297 20.8696 29.2861 21.175 29.5456C21.5185 29.7363 21.8049 30.0302 22.0341 30.4273C22.4314 31.0078 22.8214 31.9665 23.2041 33.3035C23.6328 34.801 24.2871 36.9858 25.1672 39.8583C26.0854 42.662 26.7357 44.7324 27.1184 46.0694C27.7308 48.2087 28.6378 51.276 29.8393 55.2715C30.7807 58.3579 31.2514 59.9012 31.2514 59.9012C31.2819 60.0081 31.3548 60.3633 31.4698 60.967C31.6383 61.5553 31.8026 62.0289 31.9632 62.388C32.1085 62.6934 32.3186 62.9224 32.5932 63.0752C33.0361 63.4108 33.7304 63.4139 34.676 63.0846C35.9574 62.7166 36.9108 62.4138 37.5361 62.1763C38.2836 61.9616 38.76 61.7089 38.9657 61.4184C39.3164 61.0283 39.4531 60.4971 39.3763 59.8245C39.3684 59.5953 39.2419 59.0529 38.9969 58.1972C38.7368 57.2881 38.3885 55.9701 37.9519 54.2435C37.5687 52.5014 37.3159 51.4166 37.1935 50.9889C36.2594 47.3215 35.5432 44.5178 35.0457 42.577C33.7593 37.6797 32.7906 33.9936 32.14 31.5182C32.0785 31.3044 31.9866 30.9833 31.8643 30.5556C31.7953 30.1123 31.7299 29.784 31.6687 29.5699C31.2936 28.0573 31.323 26.949 31.7573 26.2457C32.0999 25.6263 32.9577 25.0906 34.3305 24.6384C39.2877 22.983 42.7428 21.9327 44.6954 21.4877C45.6717 21.2651 46.3545 21.3294 46.744 21.6806C46.9499 21.795 47.1332 22.0317 47.2939 22.3907C47.6531 23.0399 47.9322 23.7122 48.1311 24.4074C48.3837 25.0873 48.6208 25.9162 48.8429 26.8942C49.1033 27.8033 49.2946 28.4717 49.4172 28.8997C49.5703 29.4345 49.7617 30.1029 49.9913 30.9051C50.2589 31.6384 50.5 32.3796 50.7143 33.1283C50.9819 33.8616 51.2001 34.5224 51.3685 35.1108C52.5013 39.0682 53.7262 43.549 55.0433 48.5531C56.2604 53.0071 57.4778 57.4613 58.6949 61.9152C59.5676 64.9635 60.2182 67.2365 60.647 68.7339C60.754 69.1082 60.8995 69.6162 61.083 70.258C61.2668 70.8998 61.4199 71.4346 61.5425 71.8623C61.7183 72.2749 61.8638 72.7829 61.9786 73.3866C62.0937 73.9901 62.1858 74.5134 62.2548 74.9568C62.3244 75.8049 62.1189 76.5004 61.6389 77.0436C61.2884 77.4337 60.667 77.7858 59.7745 78.0998C58.8823 78.414 55.2596 79.4835 48.9062 81.3084C48.2121 81.5077 47.6555 81.581 47.2358 81.5278C46.8315 81.5283 46.5186 81.4443 46.297 81.2766C45.8161 81.0096 45.3004 80.1159 44.7498 78.5958C44.1989 77.0754 43.7245 75.6202 43.3265 74.2297C42.9667 72.7704 42.6373 71.6206 42.339 70.7803C42.056 69.9935 41.7162 69.5124 41.3192 69.3369C40.4416 68.8946 38.8168 69.2743 36.4453 70.4765C36.0871 70.6371 35.8697 70.7866 35.7934 70.924C35.481 71.2453 35.3938 71.849 35.532 72.7354C35.6164 73.2322 35.7239 73.8091 35.854 74.466C35.9691 75.0697 36.1071 75.7535 36.268 76.5176C36.4135 77.2282 36.5211 77.8051 36.59 78.2481C36.6208 78.3551 36.7088 78.7637 36.8546 79.4743C37.0381 80.1161 37.1493 80.6051 37.1878 80.9413C37.2643 81.2088 37.2914 81.606 37.269 82.1333C37.2466 82.6606 37.167 83.0888 37.0298 83.4174C36.7252 83.9679 36.0886 84.4692 35.1201 84.9208C32.1309 86.1846 28.146 87.5029 23.1654 88.8756C22.2578 89.1361 21.6056 89.1789 21.2087 89.0034Z" stroke="#FE5196" stroke-width="2"/>
</g>
<mask id="mask1_623_2750" style="mask-type:luminance" maskUnits="userSpaceOnUse" x="2" y="18" width="147" height="79">
<path d="M148.151 18.7502H2.35791V96.9855H148.151V18.7502Z" fill="white"/>
<path d="M21.2087 89.0034C20.583 88.836 20.0905 88.4276 19.7313 87.7785C19.4715 87.2744 19.223 86.709 18.9859 86.0826C18.8022 85.4408 18.5955 84.719 18.3659 83.9168C18.1743 83.0458 18.025 82.423 17.9178 82.0488C15.2929 73.4847 12.9011 65.4324 10.7426 57.8918C9.57911 53.8275 8.44231 49.7554 7.33223 45.6757C7.2019 45.0185 6.94538 44.0215 6.56265 42.6845C6.21801 41.2788 5.95383 40.255 5.77013 39.6132C5.66298 39.239 5.55579 38.8645 5.44863 38.4903C5.32617 38.0623 5.21901 37.6881 5.12716 37.3671C5.02 36.9928 4.96622 36.603 4.96582 36.198C4.95013 35.7395 4.97645 35.327 5.04476 34.96C5.15114 34.5243 5.29953 34.1344 5.48995 33.7904C5.93944 33.1403 6.93067 32.5663 8.46364 32.0682C11.621 30.9875 13.5734 30.34 14.3209 30.1253C14.4811 30.0792 14.8204 29.953 15.339 29.7459C15.911 29.524 16.3381 29.4012 16.6203 29.3779C16.8873 29.3013 17.261 29.1941 17.7415 29.0559C18.2754 28.9025 18.6911 28.841 18.9887 28.8712C19.3396 28.8864 19.7059 28.9547 20.0875 29.0767C20.5071 29.1297 20.8696 29.2861 21.175 29.5456C21.5185 29.7363 21.8049 30.0302 22.0341 30.4273C22.4314 31.0078 22.8214 31.9665 23.2041 33.3035C23.6328 34.801 24.2871 36.9858 25.1672 39.8583C26.0854 42.662 26.7357 44.7324 27.1184 46.0694C27.7308 48.2087 28.6378 51.276 29.8393 55.2715C30.7807 58.3579 31.2514 59.9012 31.2514 59.9012C31.2819 60.0081 31.3548 60.3633 31.4698 60.967C31.6383 61.5553 31.8026 62.0289 31.9632 62.388C32.1085 62.6934 32.3186 62.9224 32.5932 63.0752C33.0361 63.4108 33.7304 63.4139 34.676 63.0846C35.9574 62.7166 36.9108 62.4138 37.5361 62.1763C38.2836 61.9616 38.76 61.7089 38.9657 61.4184C39.3164 61.0283 39.4531 60.4971 39.3763 59.8245C39.3684 59.5953 39.2419 59.0529 38.9969 58.1972C38.7368 57.2881 38.3885 55.9701 37.9519 54.2435C37.5687 52.5014 37.3159 51.4166 37.1935 50.9889C36.2594 47.3215 35.5432 44.5178 35.0457 42.577C33.7593 37.6797 32.7906 33.9936 32.14 31.5182C32.0785 31.3044 31.9866 30.9833 31.8643 30.5556C31.7953 30.1123 31.7299 29.784 31.6687 29.5699C31.2936 28.0573 31.323 26.949 31.7573 26.2457C32.0999 25.6263 32.9577 25.0906 34.3305 24.6384C39.2877 22.983 42.7428 21.9327 44.6954 21.4877C45.6717 21.2651 46.3545 21.3294 46.744 21.6806C46.9499 21.795 47.1332 22.0317 47.2939 22.3907C47.6531 23.0399 47.9322 23.7122 48.1311 24.4074C48.3837 25.0873 48.6208 25.9162 48.8429 26.8942C49.1033 27.8033 49.2946 28.4717 49.4172 28.8997C49.5703 29.4345 49.7617 30.1029 49.9913 30.9051C50.2589 31.6384 50.5 32.3796 50.7143 33.1283C50.9819 33.8616 51.2001 34.5224 51.3685 35.1108C52.5013 39.0682 53.7262 43.549 55.0433 48.5531C56.2604 53.0071 57.4778 57.4613 58.6949 61.9152C59.5676 64.9635 60.2182 67.2365 60.647 68.7339C60.754 69.1082 60.8995 69.6162 61.083 70.258C61.2668 70.8998 61.4199 71.4346 61.5425 71.8623C61.7183 72.2749 61.8638 72.7829 61.9786 73.3866C62.0937 73.9901 62.1858 74.5134 62.2548 74.9568C62.3244 75.8049 62.1189 76.5004 61.6389 77.0436C61.2884 77.4337 60.667 77.7858 59.7745 78.0998C58.8823 78.414 55.2596 79.4835 48.9062 81.3084C48.2121 81.5077 47.6555 81.581 47.2358 81.5278C46.8315 81.5283 46.5186 81.4443 46.297 81.2766C45.8161 81.0096 45.3004 80.1159 44.7498 78.5958C44.1989 77.0754 43.7245 75.6202 43.3265 74.2297C42.9667 72.7704 42.6373 71.6206 42.339 70.7803C42.056 69.9935 41.7162 69.5124 41.3192 69.3369C40.4416 68.8946 38.8168 69.2743 36.4453 70.4765C36.0871 70.6371 35.8697 70.7866 35.7934 70.924C35.481 71.2453 35.3938 71.849 35.532 72.7354C35.6164 73.2322 35.7239 73.8091 35.854 74.466C35.9691 75.0697 36.1071 75.7535 36.268 76.5176C36.4135 77.2282 36.5211 77.8051 36.59 78.2481C36.6208 78.3551 36.7088 78.7637 36.8546 79.4743C37.0381 80.1161 37.1493 80.6051 37.1878 80.9413C37.2643 81.2088 37.2914 81.606 37.269 82.1333C37.2466 82.6606 37.167 83.0888 37.0298 83.4174C36.7252 83.9679 36.0886 84.4692 35.1201 84.9208C32.1309 86.1846 28.146 87.5029 23.1654 88.8756C22.2578 89.1361 21.6056 89.1789 21.2087 89.0034Z" fill="black"/>
<path d="M71.7972 74.225C71.9292 73.0982 72.1047 71.9268 72.3239 70.7112C72.6129 69.4597 72.9792 67.9704 73.4228 66.243C73.9365 64.4795 74.2877 63.3071 74.4764 62.725C75.6011 58.1772 76.7206 54.0959 77.8349 50.4806C78.417 48.5057 79.3907 44.874 80.7557 39.5859C82.1207 34.2974 83.293 30.2331 84.2727 27.3931C84.9605 25.4525 85.8915 24.2931 87.0654 23.9147C87.5382 23.7176 88.3284 23.7116 89.4364 23.8967C96.8393 25.0191 102.504 26.1901 106.43 27.4093C107.486 27.753 108.218 28.1961 108.626 28.7385C108.858 29.1062 109.036 29.5446 109.163 30.0539C109.344 30.7562 109.49 33.8165 109.602 39.2343C109.783 44.6166 109.856 48.4426 109.821 50.7125C110.535 49.9505 111.544 48.6411 112.847 46.7838C114.203 44.9437 115.61 42.945 117.069 40.7875C118.581 38.647 119.441 37.4354 119.65 37.1525C120.953 35.2952 122.201 34.2387 123.393 33.9834C124.042 33.785 124.797 33.7967 125.659 34.0189C126.575 34.2583 127.332 34.5342 127.931 34.8461C128.249 34.9494 128.61 35.0962 129.015 35.2866C129.438 35.4243 129.825 35.5794 130.178 35.7528C130.547 35.8731 130.917 35.9935 131.287 36.1138C131.657 36.2342 132.018 36.3811 132.371 36.5542C132.793 36.6917 133.181 36.8471 133.533 37.0205C134.52 37.4 135.885 37.9614 137.63 38.7047C139.427 39.4651 140.634 39.9749 141.251 40.2342C141.973 40.5278 142.449 40.7703 142.679 40.9623C143.668 41.6935 144.079 42.6756 143.913 43.9086C143.897 44.1373 143.786 44.5692 143.58 45.2042C142.961 46.9329 142.514 48.2207 142.24 49.0674C138.766 58.8758 135.831 66.6657 133.433 72.4369C132.501 74.5904 131.242 77.6611 129.656 81.6493C128.071 85.6377 127.036 88.1966 126.553 89.3263C126.071 90.6318 125.366 91.4553 124.438 91.7967C123.842 92.0124 122.938 92.0103 121.724 91.791C116.993 90.8944 112.805 89.941 109.162 88.9307C107.454 88.4334 106.439 87.7814 106.117 86.9745C105.832 86.4138 105.756 85.6578 105.889 84.7068C106.04 83.7027 106.269 82.6366 106.576 81.5082C106.901 80.3271 107.227 79.2337 107.552 78.2284C107.932 77.2402 108.31 76.1642 108.687 75.0001C109.118 73.8534 109.461 72.7952 109.717 71.8256C105.978 76.6921 103.192 79.9683 101.361 81.6535C100.785 82.168 100.313 82.4531 99.9447 82.5089C99.2964 82.7073 98.6716 82.5623 98.0707 82.0744C97.5583 81.6736 97.2733 81.1129 97.215 80.3918C96.7247 75.9621 96.3798 72.1646 96.1801 68.9992C95.944 70.2676 95.5782 71.8451 95.0833 73.7314C94.6053 75.5647 93.9268 77.5667 93.0474 79.7375C92.221 81.9252 91.44 83.1629 90.7045 83.4498C90.0388 83.7012 89.0906 83.7437 87.86 83.577C84.0264 82.9728 79.8893 81.6848 75.4483 79.713C73.5095 78.848 72.352 77.9154 71.9758 76.9156C71.7077 76.3019 71.6481 75.4051 71.7972 74.225Z" fill="black"/>
</mask>
<g mask="url(#mask1_623_2750)">
<path d="M71.7972 74.225C71.9292 73.0982 72.1047 71.9268 72.3239 70.7112C72.6129 69.4597 72.9792 67.9704 73.4228 66.243C73.9365 64.4795 74.2877 63.3071 74.4764 62.725C75.6011 58.1772 76.7206 54.0959 77.8349 50.4806C78.417 48.5057 79.3907 44.874 80.7557 39.5859C82.1207 34.2974 83.293 30.2331 84.2727 27.3931C84.9605 25.4525 85.8915 24.2931 87.0654 23.9147C87.5382 23.7176 88.3284 23.7116 89.4364 23.8967C96.8393 25.0191 102.504 26.1901 106.43 27.4093C107.486 27.753 108.218 28.1961 108.626 28.7385C108.858 29.1062 109.036 29.5446 109.163 30.0539C109.344 30.7562 109.49 33.8165 109.602 39.2343C109.783 44.6166 109.856 48.4426 109.821 50.7125C110.535 49.9505 111.544 48.6411 112.847 46.7838C114.203 44.9437 115.61 42.945 117.069 40.7875C118.581 38.647 119.441 37.4354 119.65 37.1525C120.953 35.2952 122.201 34.2387 123.393 33.9834C124.042 33.785 124.797 33.7967 125.659 34.0189C126.575 34.2583 127.332 34.5342 127.931 34.8461C128.249 34.9494 128.61 35.0962 129.015 35.2866C129.438 35.4243 129.825 35.5794 130.178 35.7528C130.547 35.8731 130.917 35.9935 131.287 36.1138C131.657 36.2342 132.018 36.3811 132.371 36.5542C132.793 36.6917 133.181 36.8471 133.533 37.0205C134.52 37.4 135.885 37.9614 137.63 38.7047C139.427 39.4651 140.634 39.9749 141.251 40.2342C141.973 40.5278 142.449 40.7703 142.679 40.9623C143.668 41.6935 144.079 42.6756 143.913 43.9086C143.897 44.1373 143.786 44.5692 143.58 45.2042C142.961 46.9329 142.514 48.2207 142.24 49.0674C138.766 58.8758 135.831 66.6657 133.433 72.4369C132.501 74.5904 131.242 77.6611 129.656 81.6493C128.071 85.6377 127.036 88.1966 126.553 89.3263C126.071 90.6318 125.366 91.4553 124.438 91.7967C123.842 92.0124 122.938 92.0103 121.724 91.791C116.993 90.8944 112.805 89.941 109.162 88.9307C107.454 88.4334 106.439 87.7814 106.117 86.9745C105.832 86.4138 105.756 85.6578 105.889 84.7068C106.04 83.7027 106.269 82.6366 106.576 81.5082C106.901 80.3271 107.227 79.2337 107.552 78.2284C107.932 77.2402 108.31 76.1642 108.687 75.0001C109.118 73.8534 109.461 72.7952 109.717 71.8256C105.978 76.6921 103.192 79.9683 101.361 81.6535C100.785 82.168 100.313 82.4531 99.9447 82.5089C99.2964 82.7073 98.6716 82.5623 98.0707 82.0744C97.5583 81.6736 97.2733 81.1129 97.215 80.3918C96.7247 75.9621 96.3798 72.1646 96.1801 68.9992C95.944 70.2676 95.5782 71.8451 95.0833 73.7314C94.6053 75.5647 93.9268 77.5667 93.0474 79.7375C92.221 81.9252 91.44 83.1629 90.7045 83.4498C90.0388 83.7012 89.0906 83.7437 87.86 83.577C84.0264 82.9728 79.8893 81.6848 75.4483 79.713C73.5095 78.848 72.352 77.9154 71.9758 76.9156C71.7077 76.3019 71.6481 75.4051 71.7972 74.225Z" stroke="#FE5196" stroke-width="2"/>
</g>
</g>
</g>
<defs>
<filter id="filter0_d_623_2750" x="3.96143" y="20.3584" width="142.987" height="74.5986" filterUnits="userSpaceOnUse" color-interpolation-filters="sRGB">
<feFlood flood-opacity="0" result="BackgroundImageFix"/>
<feColorMatrix in="SourceAlpha" type="matrix" values="0 0 0 0 0 0 0 0 0 0 0 0 0 0 0 0 0 0 127 0" result="hardAlpha"/>
<feOffset dx="2" dy="2"/>
<feComposite in2="hardAlpha" operator="out"/>
<feColorMatrix type="matrix" values="0 0 0 0 0.2 0 0 0 0 0.2 0 0 0 0 0.2 0 0 0 1 0"/>
<feBlend mode="normal" in2="BackgroundImageFix" result="effect1_dropShadow_623_2750"/>
<feBlend mode="normal" in="SourceGraphic" in2="effect1_dropShadow_623_2750" result="shape"/>
</filter>
<clipPath id="clip0_623_2750">
<rect width="151" height="133" fill="white" transform="translate(0.282227 0.0734863)"/>
</clipPath>
</defs>
</svg>
