<svg width="32" height="32" viewBox="0 0 32 32" fill="none" xmlns="http://www.w3.org/2000/svg">
<path d="M10 2C10.2652 2 10.5196 2.10536 10.7071 2.29289C10.8946 2.48043 11 2.73478 11 3V4H15V3C15 2.73478 15.1054 2.48043 15.2929 2.29289C15.4804 2.10536 15.7348 2 16 2C16.2652 2 16.5196 2.10536 16.7071 2.29289C16.8946 2.48043 17 2.73478 17 3V4H21V3C21 2.73478 21.1054 2.48043 21.2929 2.29289C21.4804 2.10536 21.7348 2 22 2C22.2652 2 22.5196 2.10536 22.7071 2.29289C22.8946 2.48043 23 2.73478 23 3V4C23.7956 4 24.5587 4.31607 25.1213 4.87868C25.6839 5.44129 26 6.20435 26 7V12.072C24.9615 12.2521 24.0042 12.7496 23.26 13.496L20.578 16.18C20.4086 16.0617 20.2066 15.9988 20 16H12C11.7348 16 11.4804 16.1054 11.2929 16.2929C11.1054 16.4804 11 16.7348 11 17C11 17.2652 11.1054 17.5196 11.2929 17.7071C11.4804 17.8946 11.7348 18 12 18H18.758L14.684 22.072C14.4347 22.3227 14.204 22.5893 13.992 22.872C13.9609 22.6309 13.843 22.4094 13.6604 22.2489C13.4779 22.0884 13.2431 21.9999 13 22H12C11.7348 22 11.4804 22.1053 11.2929 22.2929C11.1054 22.4804 11 22.7348 11 23C11 23.2652 11.1054 23.5196 11.2929 23.7071C11.4804 23.8946 11.7348 24 12 24H13C13.1067 24.0002 13.2127 23.9833 13.314 23.95C13.0467 24.4685 12.84 25.0162 12.698 25.582L12.092 28.004C11.9241 28.6672 11.9732 29.3667 12.232 30H9C8.20435 30 7.44129 29.6839 6.87868 29.1213C6.31607 28.5587 6 27.7956 6 27V7C6 6.20435 6.31607 5.44129 6.87868 4.87868C7.44129 4.31607 8.20435 4 9 4V3C9 2.73478 9.10536 2.48043 9.29289 2.29289C9.48043 2.10536 9.73478 2 10 2ZM11 11C11 11.2652 11.1054 11.5196 11.2929 11.7071C11.4804 11.8946 11.7348 12 12 12H20C20.2652 12 20.5196 11.8946 20.7071 11.7071C20.8946 11.5196 21 11.2652 21 11C21 10.7348 20.8946 10.4804 20.7071 10.2929C20.5196 10.1054 20.2652 10 20 10H12C11.7348 10 11.4804 10.1054 11.2929 10.2929C11.1054 10.4804 11 10.7348 11 11ZM24.676 14.91C25.2613 14.3247 26.0552 13.9958 26.883 13.9958C27.7108 13.9958 28.5047 14.3247 29.09 14.91C29.6753 15.4953 30.0042 16.2892 30.0042 17.117C30.0042 17.9448 29.6753 18.7387 29.09 19.324L20.512 27.9C19.799 28.6103 18.9077 29.1153 17.932 29.362L15.51 29.968C15.3055 30.0192 15.0913 30.0166 14.8881 29.9604C14.6849 29.9042 14.4998 29.7963 14.3507 29.6473C14.2017 29.4982 14.0938 29.3131 14.0376 29.1099C13.9814 28.9067 13.9787 28.6925 14.03 28.488L14.638 26.068C14.882 25.09 15.386 24.198 16.098 23.488L24.676 14.91Z" fill="black"/>
</svg>
