<svg width="813" height="748" viewBox="0 0 813 748" fill="none" xmlns="http://www.w3.org/2000/svg">
<path d="M182.4 336.078C183.516 336.86 184.458 337.137 185.225 336.911C185.905 336.432 186.807 337 187.929 338.613C186.476 338.486 184.979 338.233 183.438 337.855C182.153 337.401 181.423 336.922 181.249 336.418L182.4 336.078ZM231.327 332.058C231.24 331.806 231.58 331.567 232.347 331.341L231.327 332.058ZM314.86 310.747C314.174 310.394 313.703 310.255 313.447 310.33C313.36 310.078 312.889 309.939 312.034 309.914L311.903 309.536L316.002 309.16C316.432 309.588 316.519 309.84 316.264 309.916C316.176 309.664 316.348 309.752 316.778 310.181L314.86 310.747ZM234.911 331.417C236.452 331.796 237.74 332.666 238.775 334.027C236.13 334.529 234.031 333.76 232.478 331.718L234.911 331.417ZM396.228 449.212L395.966 448.456C396.565 448.557 397.12 448.532 397.631 448.382C398.143 448.231 398.698 448.206 399.297 448.307C399.983 448.66 400.326 448.836 400.326 448.836L400.195 448.458C400.707 448.307 401.521 448.623 402.637 449.404C403.754 450.186 404.655 450.753 405.341 451.106L407.305 456.776C407.305 456.776 407.224 457.355 407.061 458.514L406.294 458.74C406.125 459.068 406.085 459.357 406.172 459.609L406.687 459.874C406.687 459.874 406.434 460.365 405.928 461.348L406.059 461.726C405.722 462.381 404.999 462.733 403.888 462.783C403.121 463.009 402.482 463.198 401.97 463.349L401.596 464.709L400.828 464.935C400.317 465.086 399.546 464.897 398.517 464.367C397.744 463.762 395.601 462.867 392.09 461.681C390.868 458.153 390.931 455.08 392.279 452.46L391.886 451.326C392.31 450.924 392.522 450.722 392.522 450.722C392.778 450.647 393.118 450.407 393.542 450.005L396.228 449.212ZM420.89 509.424C420.715 508.92 420.457 508.58 420.113 508.404C420.026 508.152 419.895 507.774 419.721 507.27L420.104 507.157C420.79 507.51 420.962 507.598 420.619 507.421C420.619 507.421 420.918 507.472 421.517 507.573L422.041 509.085L420.89 509.424ZM413.534 660.318C413.702 659.991 413.787 659.827 413.787 659.827C413.874 660.079 414.13 660.004 414.554 659.601L415.209 661.49L414.058 661.83C413.715 661.654 413.412 661.187 413.15 660.431L413.534 660.318ZM223.858 344.676C222.411 345.381 221.094 346.464 219.909 347.925C218.979 349.31 218.477 350.708 218.402 352.119L214.949 353.137C214.768 351.802 215.271 350.404 216.456 348.943L219.778 347.547L220.789 345.582C221.213 345.179 221.681 344.902 222.193 344.751C222.617 344.348 223.041 343.945 223.465 343.543L223.858 344.676ZM285.828 441.79C285.997 441.463 286.464 441.186 287.232 440.959C290.301 440.054 292.565 440.08 294.025 441.038C295.74 441.921 297.458 443.219 299.18 444.933L300.087 446.332C300.873 448.6 301.1 450.477 300.769 451.963C300.781 453.626 300.619 454.784 300.282 455.439L298.494 456.383C298.413 456.963 298.245 457.29 297.989 457.366C298.076 457.618 298.079 458.033 297.998 458.613L292.627 460.197L292.365 459.441C291.854 459.592 291.17 459.655 290.316 459.629C289.804 459.78 289.165 459.969 288.398 460.195L285.694 458.493C284.92 457.888 284.275 457.246 283.757 456.565C283.495 455.809 282.894 455.292 281.952 455.015C281.946 454.183 281.724 453.138 281.288 451.878C281.195 450.795 281.404 450.177 281.915 450.026L281.261 448.137L282.028 447.91C281.417 446.146 281.667 445.24 282.777 445.19C283.975 445.392 284.355 444.863 283.919 443.603L285.454 443.15L285.828 441.79ZM384.954 397.132C385.209 397.056 385.294 396.892 385.206 396.64C385.119 396.388 385.331 396.187 385.843 396.036C387.04 396.238 388.11 396.478 389.052 396.756C390.081 397.285 391.195 397.651 392.392 397.853L393.561 400.008L394.329 399.781C395.289 402.553 395.56 404.556 395.142 405.79C394.723 407.025 394.305 408.259 393.887 409.493L392.736 409.833C392.823 410.085 392.783 410.375 392.614 410.702L386.859 412.4C385.918 412.122 384.761 411.63 383.388 410.924C382.016 410.218 380.937 408.731 380.152 406.464L379.384 406.69C379.21 406.186 379.163 405.644 379.244 405.065C379.07 404.561 378.895 404.057 378.721 403.553C378.889 403.226 378.93 402.936 378.843 402.684L379.994 402.344C379.9 401.261 380.022 400.392 380.359 399.737C381.039 399.259 381.547 398.692 381.884 398.037L384.954 397.132ZM248.144 318.348C247.982 319.507 247.86 320.376 247.779 320.956C247.953 321.46 247.401 321.9 246.122 322.277C244.75 321.571 243.718 320.626 243.026 319.442C242.246 318.005 241.639 316.657 241.202 315.397C240.94 314.641 240.803 313.432 240.791 311.769L239.875 309.123L239.726 306.251L240.493 306.025C240.406 305.773 240.318 305.521 240.231 305.269C240.399 304.941 240.396 304.526 240.222 304.022L240.989 303.795L237.969 293.855C238.393 293.452 238.989 293.138 239.756 292.911C240.524 292.685 241.334 292.584 242.189 292.61C243.324 295.886 244.33 299.199 245.209 302.55C246.344 305.826 247.479 309.102 248.613 312.378L247.846 312.604L248.379 315.363L247.612 315.589L248.144 318.348ZM269.216 413.364L269.983 413.137L269.058 409.244C269.482 408.841 269.863 408.313 270.2 407.658L269.807 406.524L270.574 406.297L270.05 404.786L271.941 400.478L276.545 399.12C276.545 399.12 276.975 399.549 277.836 400.406L278.22 400.292C278.569 401.3 278.746 402.22 278.753 403.051C279.102 404.059 279.451 405.067 279.8 406.075L279.033 406.301C279.382 407.309 279.559 408.229 279.565 409.06C279.827 409.816 280.005 410.736 280.098 411.819L279.331 412.046L279.855 413.558L280.397 417.564L279.629 417.79L279.142 421.267C278.549 421.997 278.297 422.488 278.384 422.74C278.727 422.917 278.006 423.685 276.222 425.044L275.324 424.893C274.981 424.716 274.765 424.502 274.678 424.25C274.678 424.25 274.507 424.162 274.164 423.985L273.013 424.325L272.751 423.569C272.065 423.216 271.422 422.989 270.823 422.888C270.48 422.711 269.754 422.648 268.643 422.698L267.858 420.43C268.881 420.128 269.474 419.398 269.636 418.239C269.798 417.08 269.877 416.085 269.871 415.253L269.216 413.364ZM310.443 600.749C310.28 601.907 309.946 602.978 309.441 603.96C309.279 605.119 308.558 605.887 307.279 606.264C306.768 606.415 306.212 606.44 305.614 606.339C305.015 606.238 304.584 605.81 304.323 605.054L303.555 605.28C302.352 604.247 301.447 603.264 300.842 602.331C300.237 601.399 298.528 601.347 295.715 602.178C294.18 602.63 292.989 603.26 292.14 604.065L292.271 604.443C290.992 604.821 290.1 605.5 289.595 606.483C289.089 607.465 287.43 608.371 284.616 609.201C284.105 609.352 283.55 609.377 282.951 609.276C282.439 609.427 282.056 609.54 281.8 609.616L281.669 609.238C279.879 609.766 278.809 609.526 278.46 608.518L277.309 608.858L276.532 607.837L275.25 607.798C274.652 607.697 273.841 607.798 272.818 608.1C267.702 609.609 265.581 611.623 266.454 614.143C265.431 614.445 264.62 614.545 264.021 614.444C264.102 613.865 264.055 613.323 263.881 612.819C264.049 612.492 264.174 612.038 264.255 611.459C262.459 611.156 260.616 610.311 258.726 608.924C257.092 607.462 255.67 605.799 254.46 603.934C253.181 604.311 252.027 604.235 250.998 603.705C249.969 603.176 249.324 602.533 249.062 601.777L248.678 601.89C248.335 601.714 248.12 601.5 248.033 601.248C248.033 601.248 247.861 601.159 247.518 600.983L246.367 601.322L246.105 600.566L245.338 600.793C243.966 600.087 242.852 599.721 241.998 599.695C241.486 599.846 240.591 600.11 239.312 600.488C238.981 601.974 237.921 602.981 236.13 603.509L234.334 603.206L233.558 602.185L232.79 602.412C232.36 601.983 231.97 601.265 231.621 600.257C231.958 599.602 231.908 598.645 231.472 597.385C231.291 596.05 231.07 595.004 230.808 594.248C229.866 593.971 229.523 593.794 229.779 593.719C230.035 593.643 229.82 593.429 229.134 593.076L228.366 593.302L227.973 592.168L227.075 592.017L226.682 590.883L225.915 591.109L225.139 590.088C224.365 589.483 224.022 589.307 224.11 589.559C224.197 589.811 223.897 589.76 223.211 589.407L219.497 589.67L218.72 588.649C218.377 588.473 218.078 588.422 217.822 588.498C217.566 588.573 217.267 588.523 216.924 588.346L215.876 585.322C216.045 584.995 216.213 584.667 216.382 584.34C216.638 584.265 216.85 584.063 217.018 583.736L217.14 582.867C217.646 581.884 217.636 580.637 217.113 579.125C215.915 578.923 214.331 578.419 212.36 577.611C210.476 577.056 209.272 576.023 208.749 574.511C208.661 574.259 208.618 574.133 208.618 574.133C208.873 574.057 208.958 573.894 208.87 573.642L209.254 573.529C209.335 572.949 209.37 571.828 209.358 570.165C209.346 568.502 209.165 567.167 208.816 566.159L208.048 566.386L207.272 565.365C206.929 565.188 205.944 564.785 204.316 564.154C202.775 563.775 201.524 562.2 200.564 559.429L200.424 557.803C200.593 557.476 200.805 557.275 201.061 557.199C201.316 557.124 201.529 556.922 201.697 556.595L201.566 556.217C201.99 555.814 202.371 555.285 202.708 554.63L202.315 553.496L203.083 553.27C202.652 552.841 202.35 552.375 202.175 551.871C202.088 551.619 201.829 551.279 201.399 550.85L201.015 550.964L198.068 551L197.806 550.244C196.864 549.967 196.437 549.954 196.524 550.206C196.611 550.458 196.353 550.117 195.748 549.185L194.448 546.652C194.36 546.4 194.444 546.237 194.7 546.161C194.7 546.161 194.657 546.035 194.569 545.783C194.482 545.531 194.566 545.368 194.822 545.292L196.357 544.839C198.565 543.077 200.091 541.377 200.933 539.74C202.031 538.027 201.882 535.155 200.486 531.123L199.335 531.463C198.898 530.203 198.253 529.56 197.398 529.535C196.799 529.434 196.369 529.005 196.107 528.249C195.758 527.241 195.581 526.322 195.574 525.49C195.911 524.835 196.121 524.218 196.202 523.639L202.584 520.09L203.342 518.616L202.818 517.104C202.987 516.777 203.327 516.538 203.838 516.387L203.446 515.253L203.951 514.271L203.689 513.515L204.457 513.288L203.671 511.02L202.904 511.247L202.38 509.735C200.665 508.852 199.676 508.033 199.414 507.277C199.153 506.521 198.591 505.715 197.731 504.858C198.579 504.052 199.088 503.485 199.256 503.158C199.68 502.755 200.66 502.327 202.194 501.874L205.525 501.725C205.351 501.221 205.005 500.629 204.487 499.948C203.97 499.268 203.411 498.877 202.813 498.776L200.894 499.342L199.734 498.434L198.583 498.774L198.321 498.018C197.554 498.244 196.696 497.803 195.749 496.694C195.144 495.762 194.498 495.119 193.812 494.766L192.774 492.989C190.547 492.257 188.66 491.287 187.114 490.077C185.91 489.043 184.741 486.888 183.606 483.613L183.99 483.499L182.166 479.455C181.823 479.279 181.52 478.812 181.258 478.056C180.909 477.048 180.732 476.129 180.726 475.297C180.975 474.391 181.141 473.647 181.222 473.068C180.704 472.388 180.271 471.543 179.922 470.535C179.66 469.779 179.27 469.061 178.753 468.381L179.52 468.154C179.346 467.65 179.215 467.272 179.127 467.021C179.296 466.693 179.293 466.277 179.118 465.773L180.269 465.434C180.082 463.267 179.939 461.226 179.84 459.312C179.828 457.649 180.627 455.886 182.236 454.022L182.227 452.775C182.651 452.372 183.375 452.02 184.398 451.718L184.136 450.962C184.473 450.307 184.767 449.526 185.016 448.619C185.609 447.889 186.373 447.247 187.309 446.693L186.916 445.559C187.852 445.005 188.489 444.401 188.826 443.746C189.418 443.016 190.011 442.286 190.604 441.555L197.379 439.14C197.803 438.737 198.227 438.334 198.651 437.931C199.163 437.78 199.459 437.415 199.54 436.836L200.691 436.496L200.43 435.74C200.941 435.589 201.281 435.35 201.45 435.023C201.961 434.872 202.473 434.721 202.984 434.57L205.033 434.382C205.464 434.81 206.022 435.201 206.708 435.554L208.243 435.102L208.504 435.857L210.806 435.178L210.545 434.422C213.015 433.416 214.637 433.215 215.41 433.82C216.184 434.425 216.913 434.904 217.599 435.257L218.367 435.031L218.759 436.165C219.358 436.266 219.701 436.442 219.789 436.694C220.132 436.871 220.603 437.01 221.201 437.111L221.463 437.867L222.614 437.527C224.498 438.082 226.126 438.713 227.498 439.419L228.022 440.931C229.132 440.881 230.033 441.448 230.726 442.633L231.877 442.293C232.307 442.722 232.737 443.15 233.168 443.579C233.685 444.259 234.159 444.814 234.589 445.242L235.768 448.644L236.535 448.417L236.03 449.4C236.46 449.828 236.675 450.042 236.675 450.042C236.762 450.294 237.021 450.635 237.452 451.063L236.562 452.159C236.737 452.663 236.955 453.293 237.217 454.049C237.822 454.981 238.552 455.46 239.406 455.486C239.325 456.065 239.584 456.405 240.183 456.506C241.124 456.784 241.895 456.973 242.494 457.074L243.672 460.476C242.911 461.534 242.496 463.184 242.427 465.426C242.357 467.668 242.285 469.495 242.21 470.905C242.809 471.007 243.108 471.057 243.108 471.057C243.452 471.234 243.922 471.372 244.521 471.473L245.419 471.625C246.792 472.331 247.606 472.646 247.861 472.571C248.117 472.496 248.716 472.597 249.658 472.874L249.789 473.252C250.3 473.101 251.28 472.673 252.727 471.969C254.262 471.516 255.668 471.101 256.947 470.724L262.197 470.008C262.795 470.109 263.606 470.009 264.629 469.707C266.676 469.103 267.736 468.096 267.811 466.685C267.886 465.274 268.345 463.75 269.188 462.113L268.664 460.601C269.687 460.3 269.812 459.846 269.039 459.241C268.608 458.813 268.945 458.158 270.049 457.277C269.619 456.848 269.317 456.382 269.142 455.878C269.055 455.626 268.796 455.286 268.366 454.857L266.42 451.682C265.048 450.976 263.928 449.778 263.062 448.09C262.538 446.578 261.843 444.978 260.976 443.29L259.396 437.507L260.163 437.281L260.154 436.034C260.223 433.791 259.952 431.788 259.341 430.024C258.986 428.185 260.599 426.737 264.18 425.681C264.61 426.109 265.127 426.79 265.732 427.722C266.593 428.579 267.067 429.134 267.154 429.386L266.771 429.499C266.777 430.33 266.783 431.162 266.789 431.993C266.795 432.825 266.845 433.782 266.938 434.865L266.171 435.092L266.311 436.717C266.747 437.977 266.373 439.337 265.187 440.798L266.216 441.327L268.433 446.505L269.2 446.279L270.117 448.925C270.291 449.429 270.553 450.185 270.902 451.193C271.507 452.125 271.897 452.843 272.071 453.347L272.211 454.972L271.444 455.199L272.501 459.47L271.733 459.696C272.082 460.704 272.388 461.586 272.65 462.342C272.999 463.35 273.264 464.521 273.444 465.857L273.061 465.97C272.811 466.877 272.645 467.62 272.564 468.199C272.739 468.703 273.044 469.585 273.481 470.845C275.021 471.224 276.562 471.602 278.103 471.981C279.987 472.536 281.53 473.33 282.734 474.364L283.885 474.024C285.344 474.982 286.673 475.563 287.871 475.765C289.068 475.967 290.097 476.496 290.958 477.353C293.516 476.599 295.088 475.441 295.675 473.879C296.517 472.242 298.089 471.084 300.391 470.404C301.252 471.261 301.854 471.778 302.197 471.955C302.883 472.308 303.531 473.366 304.142 475.13C302.195 477.648 301.571 479.916 302.27 481.931C303.317 484.955 305.25 486.468 308.07 486.469L308.463 487.603L309.614 487.263C310.218 488.196 311.425 489.645 313.234 491.611C315.298 493.502 316.458 494.409 316.714 494.334L317.49 495.354C319.206 496.237 320.575 496.527 321.598 496.225C322.964 496.1 324.249 496.554 325.453 497.588L327.416 503.257C326.992 503.66 326.699 504.441 326.536 505.6C326.374 506.759 326.424 507.716 326.686 508.472C327.558 510.992 329.192 512.454 331.588 512.858C334.239 513.187 336.475 515.166 338.295 518.794C336.773 520.91 335.846 522.711 335.515 524.197C335.184 525.683 335.243 527.888 335.692 530.811L336.459 530.584L336.852 531.718C337.538 532.071 337.881 532.248 337.881 532.248L338.405 533.76C339.428 533.458 340.114 533.811 340.463 534.819C340.55 535.071 340.51 535.36 340.341 535.688C340.516 536.192 340.647 536.57 340.734 536.822C340.566 537.149 340.525 537.439 340.612 537.691L340.996 537.578C341.17 538.082 341.173 538.497 341.005 538.825C341.092 539.077 341.18 539.329 341.267 539.581L341.65 539.467L342.969 544.494C342.894 545.905 342.688 546.938 342.351 547.593C342.101 548.5 341.639 549.608 340.965 550.918L341.227 551.674C340.89 552.328 340.594 552.694 340.338 552.769C340.169 553.096 340.045 553.55 339.963 554.129L338.943 554.847C338.775 555.174 338.691 555.338 338.691 555.338C338.778 555.59 338.737 555.88 338.569 556.207L336.267 556.886C336.098 557.214 336.058 557.503 336.145 557.755C336.232 558.007 336.192 558.297 336.023 558.625L335.64 558.738C335.215 559.141 335.09 559.594 335.265 560.098C335.44 560.602 335.271 560.929 334.76 561.08C335.196 562.34 335.632 563.6 336.069 564.86C336.848 566.296 337.456 567.645 337.893 568.904C336.707 570.365 336.077 571.801 336.002 573.212C336.27 574.799 335.724 576.071 334.363 577.028L331.809 578.198L332.071 578.954L330.92 579.293C331.007 579.545 330.966 579.835 330.798 580.163L329.647 580.502C329.478 580.83 329.481 581.245 329.656 581.749L328.505 582.089C327.663 583.726 326.733 585.111 325.716 586.244C324.955 587.302 324.19 587.944 323.423 588.171L323.685 588.927C322.15 589.379 320.918 590.298 319.989 591.683C319.146 593.321 318.045 594.618 316.685 595.574L316.816 595.952C315.537 596.33 314.854 596.392 314.767 596.14C314.679 595.888 314.464 595.674 314.121 595.497L311.435 596.29C311.442 597.121 311.108 598.192 310.434 599.501L310.443 600.749ZM126.136 388.504C125.799 389.159 125.718 389.738 125.893 390.242C125.98 390.494 125.512 390.771 124.489 391.073L124.358 390.695C123.672 390.342 123.329 390.166 123.329 390.166C123.329 390.166 123.07 389.825 122.553 389.145C122.977 388.742 123.445 388.465 123.956 388.314C124.125 387.987 124.465 387.748 124.976 387.597L125.369 388.731L126.136 388.504ZM302.153 694.011C302.427 696.43 301.029 698.092 297.96 698.998C295.234 700.08 292.892 701.049 290.933 701.904C289.473 700.946 288.273 700.328 287.331 700.051L286.18 700.39C284.639 700.012 283.136 698.928 281.67 697.138C280.205 695.349 279.123 693.446 278.425 691.43L277.368 687.159L278.135 686.933C278.042 685.85 278.164 684.981 278.501 684.326C278.925 683.923 279.219 683.142 279.381 681.983L280.916 681.53C280.479 680.271 280.9 679.452 282.179 679.075L281.917 678.319C282.685 678.092 283.28 677.778 283.705 677.375C284.472 677.148 285.111 676.96 285.623 676.809L285.492 676.431C287.451 675.575 289.628 675.35 292.023 675.754C294.506 676.41 296.134 677.041 296.907 677.646L297.674 677.419L297.936 678.175C298.279 678.352 299.096 679.083 300.387 680.368C302.021 681.83 302.926 682.813 303.1 683.317C303.624 684.829 303.633 686.076 303.128 687.058L304.437 690.838C304.1 691.493 303.719 692.022 303.295 692.425C303.126 692.752 302.746 693.281 302.153 694.011ZM360.863 713.351L360.349 713.086C358.721 712.455 357.473 711.296 356.607 709.607C355.996 707.844 354.876 706.646 353.248 706.016L352.725 704.504L353.37 705.147C354.399 705.676 355.26 706.533 355.952 707.718C356.9 708.826 357.804 709.809 358.665 710.666L359.432 710.44L360.209 711.461L360.863 713.351ZM380.252 613.064C378.991 615.936 376.315 617.975 372.222 619.182C370.176 619.786 368.598 620.113 367.488 620.163L367.226 619.407C365.517 619.355 364.188 618.775 363.24 617.666C362.379 616.809 361.307 616.154 360.022 615.7L357.403 608.14C358.252 607.335 358.673 606.516 358.667 605.685C358.917 604.778 359.294 603.833 359.8 602.851C360.305 601.868 361.11 600.937 362.214 600.055C363.574 599.099 365.789 598.168 368.858 597.262L369.12 598.018C370.742 597.817 372.498 598.41 374.387 599.797L374.771 599.684C375.201 600.112 375.504 600.578 375.678 601.082C376.196 601.763 376.839 601.99 377.606 601.763L379.421 604.561C379.77 605.569 379.947 606.488 379.953 607.32C380.047 608.403 380.181 609.197 380.355 609.701L380.879 611.213C380.623 611.288 380.367 611.364 380.112 611.439C380.199 611.691 380.115 611.855 379.859 611.93L380.252 613.064ZM179.058 439.962C178.284 439.357 177.595 438.589 176.99 437.656L177.374 437.543C177.973 437.644 178.316 437.821 178.403 438.073C178.746 438.249 179.261 438.514 179.947 438.867L179.18 439.093L179.058 439.962ZM315.273 349.784L313.739 350.237C313.739 350.237 313.14 350.136 311.942 349.934L311.55 348.8C312.148 348.901 312.619 349.04 312.962 349.216C313.474 349.065 314.073 349.167 314.759 349.52L315.273 349.784ZM212.887 369.159C214.004 369.941 215.117 370.307 216.227 370.257C217.338 370.207 218.367 370.737 219.315 371.846L217.78 372.298C216.92 371.441 215.934 371.038 214.824 371.088C213.882 370.81 212.981 370.243 212.12 369.386L212.887 369.159ZM335.628 381.689C336.052 381.286 336.432 380.758 336.769 380.103L336.508 379.347L337.658 379.007C337.995 378.352 338.205 377.735 338.286 377.156L339.437 376.816C339.518 376.237 339.643 375.783 339.811 375.456C340.067 375.38 340.235 375.053 340.317 374.474L341.851 374.021C342.02 373.693 342.017 373.278 341.842 372.774L347.85 370.585L347.588 369.829C348.867 369.452 349.634 369.225 349.89 369.15C350.401 368.999 350.486 368.835 350.143 368.659C350.143 368.659 350.398 368.583 350.91 368.432L351.041 368.81L351.677 368.206C352.189 368.055 352.572 367.942 352.828 367.866C353.427 367.967 353.982 367.942 354.494 367.792L354.755 368.547L356.29 368.095L360.772 367.606L361.034 368.362C361.633 368.463 361.932 368.513 361.932 368.513C362.275 368.69 362.702 368.702 363.214 368.552L363.607 369.685C364.973 369.56 365.999 369.674 366.685 370.027C367.458 370.632 368.531 371.288 369.903 371.994L370.68 373.014C370.936 372.939 371.064 372.901 371.064 372.901C371.407 373.078 371.706 373.128 371.962 373.053L373.262 375.585L374.029 375.359C374.204 375.863 374.335 376.241 374.422 376.493C374.852 376.921 375.155 377.388 375.329 377.892L376.097 377.665L378.828 383.108C379.345 383.789 379.735 384.507 379.997 385.263C380.259 386.019 380.605 386.611 381.035 387.04L380.268 387.266C380.879 389.03 380.673 390.063 379.65 390.365L380.575 394.257L379.808 394.484L380.332 395.996L378.815 398.943L379.077 399.698C378.229 400.504 377.636 401.235 377.299 401.889C377.305 402.721 377.183 403.59 376.933 404.497L372.461 406.233L372.722 406.989C370.932 407.517 370.211 408.285 370.56 409.293L369.41 409.633L369.419 410.88L366.733 411.672L366.471 410.916C365.192 411.293 363.742 411.583 362.12 411.783C360.841 412.161 359.562 412.538 358.284 412.915L358.153 412.537C356.444 412.486 355.29 412.41 354.691 412.309L354.429 411.553C352.638 412.081 351.316 412.332 350.461 412.307L350.331 411.929C348.958 411.223 347.67 410.353 346.467 409.319C345.263 408.286 343.975 407.416 342.603 406.71L341.434 404.555L340.666 404.782L340.274 403.648L338.328 400.472L337.561 400.699C337.118 398.608 336.591 396.68 335.98 394.916C335.457 393.404 335.017 391.729 334.662 389.889L334.513 387.017L335.28 386.791L334.878 384.41C335.39 384.259 335.814 383.856 336.151 383.201L335.628 381.689Z" fill="#FF9FC5"/>
<path d="M202.951 40.6404C202.307 40.6695 201.726 40.7606 201.206 40.9139C200.242 41.1985 199.564 41.6002 199.171 42.1188L199.057 41.79L197.942 41.7568L197.828 41.428L196.716 41.7564C196.267 41.4056 195.918 41.1059 195.668 40.8574L195.334 40.9559L194.992 39.9695C194.793 39.8672 194.57 39.8123 194.322 39.8049C194.074 39.7975 193.851 39.7427 193.652 39.6403L193.272 38.5443L192.938 38.6428C192.662 38.0802 192.398 37.554 192.146 37.0645C191.943 36.4799 191.704 35.9063 191.427 35.3436C191.82 34.825 192.076 34.2662 192.195 33.6671C192.289 32.995 192.433 32.3484 192.626 31.7275C192.82 31.1065 193.15 30.5258 193.617 29.9852C194.058 29.3717 194.835 28.9006 195.948 28.5722C196.319 28.4627 196.492 28.492 196.469 28.66C196.445 28.8281 196.619 28.8574 196.99 28.7479L197.212 28.6822L197.098 28.3534L198.211 28.0249C198.933 28.4562 199.789 28.6866 200.781 28.7161C201.747 28.6726 202.505 29.0929 203.057 29.9772L203.391 29.8786C203.814 30.1564 204.066 30.646 204.145 31.3474C204.274 31.9538 204.636 32.4106 205.233 32.7176C205.465 33.8575 205.522 34.8475 205.404 35.6876C205.261 36.4547 205.019 37.1707 204.677 37.8354C204.384 38.4052 204.028 38.9129 203.611 39.3584C203.267 39.7821 203.047 40.2094 202.951 40.6404ZM264.861 64.2874C264.588 64.2069 264.192 64.2433 263.673 64.3966C263.302 64.5061 262.931 64.6156 262.56 64.725C262.289 64.8857 261.968 65.0208 261.597 65.1302C261.078 65.2835 260.719 65.309 260.52 65.2066C261.336 64.9658 262.052 64.6738 262.669 64.3306C263.311 64.0604 263.929 63.8378 264.522 63.6626C265.116 63.4874 265.784 63.4109 266.528 63.4331C266.432 63.8641 266.273 64.1125 266.05 64.1781C265.927 64.295 265.569 64.441 264.975 64.6162L264.861 64.2874ZM225.861 37.7432C225.888 38.0574 225.915 38.3716 225.942 38.6857C226.018 38.905 226.083 39.2082 226.135 39.5954L225.801 39.6939L225.308 38.2691L225.641 38.1706C225.587 37.5422 225.509 37.0819 225.408 36.7896C225.307 36.4974 225.626 36.1212 226.366 35.6611C226.393 35.9753 226.42 36.2895 226.447 36.6036C226.549 36.8959 226.613 37.1991 226.64 37.5133L225.861 37.7432ZM254.099 135.848L253.431 136.045C253.453 135.636 253.451 135.395 253.426 135.322C253.4 135.249 253.511 135.095 253.757 134.861L254.099 135.848ZM237.501 118.034C236.904 117.727 236.16 117.705 235.27 117.968C233.787 118.406 232.999 119.081 232.907 119.994C232.814 120.908 232.822 121.872 232.928 122.888C231.593 123.282 230.602 123.252 229.954 122.799C229.381 122.324 228.855 121.633 228.378 120.727L227.71 120.924C227.835 121.049 227.96 121.173 228.085 121.297C228.284 121.399 228.421 121.56 228.497 121.779C228.573 121.999 228.587 122.156 228.538 122.251L228.204 122.349C228.058 122.634 227.972 122.74 227.946 122.667C227.921 122.594 227.785 122.674 227.539 122.908C227.362 122.396 227.223 121.995 227.121 121.702C227.094 121.388 227.03 121.085 226.929 120.793C226.65 119.989 226.226 119.59 225.656 119.598C225.186 119.656 224.555 119.721 223.762 119.794L223.648 119.465L222.981 119.663L222.867 119.334L220.085 120.155L219.98 120.911L219.421 120.714L217.866 121.535C217.616 121.287 217.392 121.111 217.193 121.009C217.093 120.958 216.906 120.771 216.631 120.45L216.297 120.548L215.462 118.137C215.411 117.991 215.299 117.903 215.125 117.874C214.977 117.918 214.74 117.706 214.414 117.238C213.673 117.457 213.055 117.68 212.561 117.906C212.141 118.11 211.672 118.289 211.153 118.442C210.411 118.661 209.817 118.716 209.37 118.606C209.023 118.548 208.572 117.956 208.019 116.831L208.464 116.699L207.514 113.959C206.845 113.915 206.324 113.827 205.951 113.696C205.678 113.615 205.121 113.659 204.28 113.827C204.182 114.016 203.948 114.166 203.577 114.276C203.231 114.458 202.836 114.615 202.391 114.747C201.872 114.9 201.525 114.962 201.352 114.933C201.203 114.976 200.941 114.691 200.565 114.077L200.231 114.176L199.775 112.861C199.922 112.576 199.97 112.36 199.919 112.214C199.942 112.046 199.929 111.889 199.878 111.743C199.927 111.648 199.988 111.469 200.06 111.206C200.158 111.016 200.378 110.709 200.722 110.286L200.342 109.19L200.009 109.288L199.667 108.302L198.885 108.17L198.619 107.403L198.286 107.501L197.61 106.613L196.831 106.843L196.603 106.186C196.131 106.003 195.807 105.776 195.632 105.506C195.556 105.287 195.381 105.137 195.108 105.056L193.996 105.385C193.473 105.056 192.987 104.716 192.538 104.365C192.189 104.066 191.619 103.952 190.826 104.025L190.104 101.942C190.276 101.731 190.361 101.504 190.36 101.263C190.383 101.095 190.444 100.916 190.541 100.726L190.875 100.628L190.495 99.5315C191.184 98.9253 191.502 98.3081 191.448 97.6797C191.493 97.1025 191.338 96.3025 190.984 95.2795C189.889 94.7166 188.896 94.446 188.004 94.4676C187.064 94.5842 185.925 94.719 184.588 94.8721L183.98 93.1184C184.375 92.8409 184.708 92.6218 184.979 92.4611L184.865 92.1323C185.111 91.8986 185.308 91.7599 185.456 91.7161C185.827 91.6066 186.261 91.5592 186.756 91.574C187.203 91.6837 187.575 91.6948 187.871 91.6072C188.094 91.5415 188.253 91.2932 188.349 90.8621C188.445 90.4311 188.789 90.0074 189.38 89.5912L188.932 89.3609L188.819 89.0321L189.152 88.9335L188.422 85.7661C187.728 85.649 187.132 85.4625 186.634 85.2066C186.236 85.002 185.776 84.7351 185.253 84.4062L184.919 84.5047L184.653 83.7375C184.454 83.6352 184.231 83.5803 183.983 83.5729C183.735 83.5655 183.512 83.5107 183.313 83.4083L183.199 83.0795L181.864 83.4736L181.75 83.1448L179.97 83.6703L179.856 83.3415C179.46 83.3779 179.027 83.4253 178.556 83.4836C178.086 83.5419 177.653 83.5893 177.256 83.6257L177.142 83.2969C176.869 83.2164 176.757 83.1287 176.806 83.0337C176.88 83.0118 176.805 82.9132 176.581 82.7378C177.744 82.5555 178.871 82.5047 179.962 82.5854C180.978 82.688 182.02 82.7431 183.085 82.7507C183.505 82.5463 183.887 82.3528 184.233 82.1702C184.678 82.0388 185.073 81.8819 185.419 81.6993L185.533 82.0281C186.177 81.9991 186.61 81.9518 186.832 81.8861C187.426 81.7109 187.833 81.4699 188.053 81.1631C188.299 80.9294 188.47 80.597 188.566 80.166C188.688 79.808 188.82 79.366 188.965 78.84C189.135 78.3871 189.404 77.8648 189.771 77.2731L189.543 76.6155L189.877 76.517C189.823 75.8886 189.769 75.3808 189.717 74.9936L190.051 74.8951C190.074 74.727 190.023 74.4603 189.896 74.095C189.719 73.5835 189.467 73.0939 189.142 72.6262C188.89 72.1366 188.689 71.7932 188.539 71.5959L188.425 71.2671L188.759 71.1685L188.645 70.8397L188.311 70.9382C187.789 70.6093 187.403 70.4412 187.155 70.4338C186.933 70.4995 186.634 70.2254 186.257 69.6116C186.899 69.3414 187.282 69.1479 187.405 69.0311C187.602 68.8923 187.848 68.6586 188.143 68.3299L187.991 67.8915C188.188 67.7527 188.386 67.614 188.583 67.4752C188.879 67.3876 189.126 67.2745 189.324 67.1357L189.21 66.8069C189.901 66.4418 190.307 66.0803 190.428 65.7223C190.649 65.4155 190.856 64.9516 191.049 64.3307L191.717 64.1336L191.603 63.8048C191.997 63.5273 192.306 63.3557 192.528 63.29C192.677 63.2462 192.862 63.1915 193.085 63.1258C193.332 63.1332 193.53 63.1149 193.679 63.0712C194.272 62.896 194.617 62.5929 194.713 62.1619C194.908 61.782 195.078 61.3291 195.223 60.8031L195.89 60.606L196.441 59.7185L197.109 59.5214L196.995 59.1926L197.662 58.9955L197.768 58.2394L199.214 57.8124L199.062 57.374C199.383 57.1184 199.678 56.9102 199.95 56.7496C200.295 56.567 200.628 56.348 200.948 56.0923L200.834 55.7635L201.502 55.5665C201.694 54.7044 202.222 54.1055 203.087 53.7696C203.951 53.4338 204.779 53.1089 205.569 52.795C205.544 52.722 205.654 52.448 205.898 51.9732C206.167 51.5714 206.461 51.1222 206.78 50.6255C207.172 50.1068 207.565 49.5882 207.957 49.0696C208.424 48.5291 208.867 48.1566 209.287 47.9522C209.958 48.2373 210.394 48.5516 210.595 48.8951C210.895 49.2897 211.133 49.6222 211.308 49.8926C211.509 50.236 211.783 50.437 212.131 50.4956C212.503 50.6272 213.135 50.5616 214.025 50.2989C214.121 49.8679 214.327 49.2834 214.643 48.5456C215.059 47.859 215.502 47.3659 215.97 47.0665C216.887 47.1179 217.658 47.4543 218.282 48.0755C219.006 48.7479 219.717 49.3837 220.415 49.983L222.529 49.359C222.601 49.096 222.822 48.7892 223.191 48.4386C223.659 48.1392 224.079 47.9348 224.45 47.8253C225.414 47.5406 226.058 47.5116 226.382 47.7382C226.78 47.9429 227.153 48.1951 227.503 48.4947C227.877 48.8675 228.3 49.1452 228.772 49.328C229.319 49.4889 230.185 49.3942 231.372 49.0439C231.663 48.233 232.575 47.5611 234.107 47.0282C234.406 47.1817 234.505 47.2329 234.406 47.1817C234.406 47.1817 234.616 47.2 235.038 47.2367L235.38 48.2231L235.714 48.1246C235.842 48.7311 235.97 49.3375 236.099 49.944C236.301 50.5285 236.467 51.124 236.595 51.7305C237.216 51.8695 237.8 52.14 238.348 52.542C238.896 52.944 239.432 53.3095 239.955 53.6384C240.503 54.0404 241.087 54.3109 241.708 54.4499C242.353 54.662 243.134 54.6732 244.049 54.4835C244.386 53.0954 245.221 52.0838 246.554 51.4486C247.002 51.7994 247.277 52.0004 247.376 52.0516C247.55 52.0808 247.85 52.4755 248.277 53.2354L247.943 53.334C248.05 54.3496 247.993 55.0107 247.772 55.3175C247.651 55.6755 247.431 56.1028 247.113 56.5996L247.569 57.9148C248.066 58.1707 248.39 58.3973 248.54 58.5946C248.79 58.8431 249.262 59.0259 249.956 59.143L250.222 59.9102C250.843 60.0492 251.278 60.2429 251.528 60.4914C251.777 60.7399 251.977 60.9628 252.127 61.1601C252.303 61.4305 252.503 61.6534 252.727 61.8288C252.976 62.0773 253.423 62.187 254.067 62.158L254.743 63.0459L255.077 62.9474L255.343 63.7146L255.788 63.5832L256.357 65.2273L256.691 65.1288L257.071 66.2248L257.405 66.1263L257.861 67.4415L258.194 67.343C258.247 67.7302 258.287 68.0809 258.314 68.3951C258.44 68.7604 258.53 69.1367 258.582 69.524L258.249 69.6225C258.25 69.8636 258.353 70.2764 258.555 70.861C258.834 71.6648 259.187 72.4466 259.613 73.2066C260.115 73.9447 260.49 74.4379 260.74 74.6864L261.073 74.5879C261.397 74.8145 261.646 74.9424 261.82 74.9717C261.993 75.001 262.154 74.9937 262.303 74.9499C262.476 74.9792 262.674 74.961 262.897 74.8953C263.119 74.8296 263.441 74.8151 263.863 74.8518L263.977 75.1806L265.757 74.6551L265.871 74.9839L266.872 74.6883L267.024 75.1267L268.136 74.7983L268.25 75.1271L269.585 74.733L269.699 75.0618C270.096 75.0254 270.616 74.9926 271.26 74.9636L271.374 75.2924L275.601 74.0444L275.715 74.3732L279.164 73.355C279.189 73.4281 279.252 73.4902 279.351 73.5414C279.351 73.5414 279.599 73.5488 280.095 73.5635L280.437 74.55L280.103 74.6485L280.217 74.9773L277.769 75.6999L277.655 75.3711L271.754 76.3885L271.64 76.0597L270.193 76.4866L270.041 76.0482L268.592 76.1135L268.478 75.7847C268.082 75.8211 267.649 75.8685 267.179 75.9268C266.734 76.0582 266.313 76.1421 265.917 76.1785L265.803 75.8496L265.135 76.0467L265.021 75.7179C264.377 75.7469 263.944 75.7943 263.722 75.86C262.906 76.1008 262.351 76.5062 262.058 77.0759C261.765 77.6457 261.534 78.1571 261.364 78.61L261.03 78.7086L261.296 79.4758L260.851 79.6072L260.973 81.0209L260.639 81.1195L261.361 83.2019L261.027 83.3005L261.065 83.4101L261.103 83.5197C261.103 83.5197 261.165 83.4612 261.288 83.3444L261.326 83.454C261.351 83.5271 261.363 83.5636 261.363 83.5636C261.463 83.6148 261.525 83.6769 261.551 83.75C261.627 83.9692 261.591 84.1007 261.442 84.1445C261.368 84.1664 261.356 84.2504 261.407 84.3965L261.977 86.0406L261.643 86.1391C261.252 86.8988 261.059 87.5198 261.062 88.002C261.165 88.5354 261.282 89.2258 261.412 90.0734L261.078 90.1719C261.254 90.4423 261.38 90.6871 261.456 90.9063C261.631 91.1767 261.819 91.4836 262.02 91.827L262.688 91.63L262.915 92.2876C263.064 92.2438 263.398 92.2658 263.919 92.3537C264.44 92.4415 264.974 92.5659 265.52 92.7268C266.141 92.8658 266.675 92.9901 267.121 93.0999C267.668 93.2608 267.953 93.3778 267.979 93.4508L268.207 94.1084C269.469 93.9773 270.51 94.0324 271.33 94.2738C272.224 94.4932 273.276 94.4643 274.488 94.1871C274.715 94.6036 274.877 94.8374 274.977 94.8886C275.151 94.9179 275.375 95.0933 275.65 95.4149L275.316 95.5134C275.193 95.6303 275.144 95.7252 275.169 95.7983C275.195 95.8714 275.133 95.9298 274.985 95.9736L274.762 96.0393L274.648 95.7105C273.682 95.754 272.889 95.7063 272.269 95.5673L272.155 95.2384L271.376 95.4684L271.262 95.1395L270.595 95.3366L269.699 94.876L268.92 95.106L268.359 94.5469L267.691 94.7439C267.266 94.2251 266.731 93.8596 266.085 93.6475C265.538 93.4866 264.967 93.2526 264.37 92.9456C263.827 93.2669 263.483 93.57 263.336 93.8549C263.215 94.2129 263.019 94.5927 262.75 94.9945L262.864 95.3233L260.416 96.0459L260.53 96.3747C259.32 96.893 258.582 97.5942 258.316 98.4782C258.15 99.4133 258.144 100.341 258.3 101.262L257.966 101.36L258.46 102.785L258.126 102.884L258.02 103.64L256.24 104.165L256.354 104.494L255.019 104.888L254.905 104.56C254.362 104.881 253.944 105.206 253.649 105.534C253.354 105.863 253.084 106.265 252.84 106.74L253.296 108.055L252.962 108.154C252.964 108.395 252.966 108.636 252.968 108.877C253.069 109.169 253.12 109.436 253.122 109.677L252.788 109.775L253.016 110.433L252.463 110.959C252.445 111.85 252.213 112.362 251.768 112.493C251.323 112.624 250.952 112.734 250.656 112.821C250.507 112.865 250.322 112.92 250.099 112.986C249.951 113.029 249.679 113.07 249.283 113.106L247.169 113.73L247.055 113.401L245.386 113.894L245.234 113.455C244.666 113.704 244.135 113.941 243.641 114.167C243.222 114.372 242.728 114.598 242.16 114.846C242.288 115.453 242.317 116.008 242.246 116.512C242.201 117.089 242.044 117.579 241.774 117.981L241.888 118.309C241.543 118.492 241.185 118.638 240.814 118.747C240.542 118.908 240.234 119.08 239.888 119.262C239.615 119.182 239.479 119.142 239.479 119.142C239.578 119.193 239.417 119.2 238.996 119.163L238.768 118.506C238.569 118.403 238.333 118.312 238.06 118.231C237.886 118.202 237.7 118.136 237.501 118.034ZM249.784 125.523C249.882 125.333 249.894 125.249 249.82 125.271C249.771 125.366 249.832 125.307 250.004 125.096L250.232 125.753L249.565 125.95C249.662 125.76 249.674 125.676 249.6 125.698C249.551 125.793 249.613 125.735 249.784 125.523Z" fill="#82DFFF"/>
<path d="M664.192 373.512C664.403 373.225 664.459 373.079 664.359 373.072C664.259 373.065 664.463 372.979 664.969 372.812L665.574 372.702L666.017 372.882L666.005 373.182L666.305 373.202C666.884 373.741 667.151 374.611 667.106 375.81C666.799 375.99 666.592 376.176 666.484 376.37C666.381 376.463 666.175 376.599 665.868 376.779L664.965 376.869L664.372 376.679L664.383 376.38C664.191 376.167 664.047 376.007 663.951 375.9C663.855 375.793 663.709 375.684 663.514 375.57L663.571 374.071L663.87 374.091C663.878 373.892 663.931 373.795 664.031 373.802C664.035 373.702 664.039 373.602 664.043 373.502L664.192 373.512ZM706.79 322.706L706.341 322.676L706.353 322.377L707.251 322.437C707.143 322.63 707.086 322.826 707.078 323.026C707.074 323.126 707.019 323.273 706.911 323.466L706.762 323.456L706.79 322.706ZM642.795 332.563C642.484 332.843 642.219 333.226 642.001 333.712C641.786 334.098 641.329 334.268 640.631 334.222C639.733 334.162 639.243 333.879 639.163 333.372C639.086 332.766 639.062 332.063 639.093 331.264C639.5 331.091 639.908 330.867 640.319 330.594C640.633 330.215 641.14 330.048 641.838 330.095C642.026 330.408 642.17 330.568 642.27 330.574C642.374 330.481 642.516 330.691 642.696 331.204L642.795 332.563ZM662.283 325.147C662.08 325.234 661.629 325.254 660.93 325.207C660.639 324.987 660.495 324.827 660.498 324.727C660.506 324.528 660.42 324.171 660.239 323.658L660.089 323.648C660.423 322.769 660.753 321.989 661.079 321.31C661.405 320.63 662.03 319.971 662.955 319.331L664.601 319.441C664.697 319.548 664.743 319.651 664.739 319.751C664.735 319.851 664.782 319.954 664.878 320.061L665.027 320.071L665.154 320.68C665.124 321.48 664.894 322.266 664.464 323.038C664.034 323.811 663.311 324.414 662.294 324.847L662.283 325.147ZM664.611 315.234C664.581 316.034 664.502 316.78 664.376 317.473C664.15 318.159 663.634 318.575 662.828 318.722C662.736 318.515 662.69 318.412 662.69 318.412C662.594 318.305 662.5 318.149 662.407 317.942L662.108 317.922L662.131 317.323C661.651 316.79 661.413 316.473 661.417 316.373C661.325 316.167 661.286 315.864 661.301 315.464L661.002 315.444C661.033 314.645 661.209 313.955 661.531 313.376C661.853 312.796 662.264 312.523 662.763 312.556C662.955 312.769 663.1 312.879 663.2 312.886C663.3 312.893 663.446 313.002 663.638 313.216L663.621 313.665C663.717 313.772 663.814 313.829 663.914 313.835C663.914 313.835 663.962 313.888 664.058 313.995L664.185 314.605C664.281 314.711 664.327 314.814 664.323 314.914C664.319 315.014 664.415 315.121 664.611 315.234ZM724.469 362.806C724.48 362.507 724.44 362.253 724.348 362.047C724.355 361.847 724.367 361.547 724.382 361.148C724.789 360.974 725.046 360.791 725.153 360.598C725.36 360.411 725.715 360.285 726.218 360.218C726.602 360.644 726.842 360.911 726.938 361.018C727.137 361.031 727.228 361.287 727.209 361.787C727.167 362.886 726.547 363.396 725.35 363.316C725.158 363.103 725.012 362.993 724.912 362.986C724.813 362.98 724.665 362.92 724.469 362.806ZM713.552 298.813C714.07 298.347 714.438 297.871 714.657 297.384C714.775 296.891 715.434 296.685 716.631 296.765C717.03 296.791 717.278 296.858 717.374 296.965L717.368 297.114C717.56 297.328 717.756 297.441 717.955 297.454C718.258 297.374 718.4 297.584 718.381 298.084L718.514 298.543L718.813 298.563L718.951 298.873C719.044 299.08 719.082 299.383 719.067 299.782C719.036 300.582 718.714 301.161 718.1 301.521C717.49 301.781 717.03 302.051 716.719 302.331C714.524 302.184 713.468 301.012 713.552 298.813ZM757.43 344.418C757.736 344.238 757.89 344.148 757.89 344.148C757.89 344.148 758.139 344.165 758.638 344.198C758.83 344.411 758.924 344.568 758.921 344.668C759.02 344.674 759.064 344.828 759.053 345.127C758.838 345.514 758.581 345.697 758.282 345.677C758.082 345.664 757.933 345.654 757.833 345.647C757.837 345.547 757.695 345.337 757.407 345.018L757.43 344.418ZM754.193 303.328L754.492 303.348C755.29 303.401 755.834 303.588 756.121 303.907C756.513 304.134 756.799 304.504 756.98 305.017C756.949 305.816 756.723 306.502 756.301 307.075C755.983 307.555 755.372 307.815 754.471 307.855L754.482 307.555L753.44 307.335C753.26 306.822 753.073 306.459 752.881 306.246C752.689 306.033 752.607 305.576 752.633 304.877C753.04 304.704 753.199 304.464 753.111 304.157C753.126 303.758 753.483 303.581 754.182 303.628L754.193 303.328ZM698.122 254.806C698.637 254.44 699.393 254.29 700.39 254.356C700.582 254.57 700.778 254.683 700.978 254.696L700.96 255.146C701.152 255.359 701.294 255.569 701.387 255.775C701.383 255.875 701.429 255.979 701.525 256.085L701.968 256.265C702.16 256.478 702.304 256.638 702.4 256.745C702.4 256.745 702.893 256.928 703.88 257.294L703.874 257.444L705.975 257.434C706.574 257.474 706.919 257.597 707.011 257.804C707.004 258.003 707.094 258.26 707.282 258.573L707.581 258.593C707.762 259.106 707.843 259.612 707.824 260.112C707.808 260.512 708.19 260.988 708.97 261.541L708.958 261.841C710.133 262.52 710.716 262.96 710.708 263.16C710.601 263.353 710.63 263.906 710.795 264.818L711.095 264.838L711.072 265.438C711.264 265.651 711.408 265.811 711.504 265.917C711.603 265.924 711.699 266.031 711.792 266.237L711.78 266.537C712.164 266.963 712.352 267.276 712.345 267.476C712.341 267.576 712.379 267.879 712.46 268.386L712.604 268.546L712.431 269.135L712.132 269.115C712.117 269.515 712.104 269.865 712.092 270.164C711.981 270.457 711.918 270.804 711.903 271.204L712.035 271.663L712.334 271.683L712.232 274.381C711.721 274.648 711.51 274.934 711.599 275.241C711.587 275.54 711.472 275.934 711.254 276.42L711.07 277.309C710.859 277.596 710.748 277.889 710.736 278.189C710.625 278.482 710.464 278.772 710.253 279.058L710.103 279.048C710.092 279.348 710.034 279.544 709.931 279.638C709.831 279.631 709.678 279.721 709.47 279.907L709.459 280.207C709.252 280.394 709.045 280.58 708.838 280.767C708.534 280.847 708.379 280.987 708.371 281.187L707.922 281.157C707.815 281.35 707.759 281.496 707.756 281.596C707.656 281.59 707.552 281.683 707.445 281.876L707.145 281.856C706.938 282.043 706.781 282.233 706.674 282.426L706.225 282.396C705.596 283.155 705.174 283.728 704.959 284.115L704.51 284.085L704.498 284.384L704.049 284.354L703.595 284.474L703.583 284.774C703.384 284.761 703.286 284.704 703.29 284.604C703.293 284.504 703.245 284.451 703.146 284.444C702.843 284.524 702.541 284.554 702.242 284.534C701.943 284.514 701.641 284.544 701.338 284.624L701.333 284.774C701.133 284.761 700.981 284.801 700.878 284.894C700.778 284.888 700.628 284.878 700.429 284.864L700.417 285.164C700.218 285.151 700.066 285.191 699.963 285.284C699.763 285.271 699.564 285.257 699.364 285.244L698.161 285.314L698.15 285.614C697.95 285.601 697.798 285.641 697.695 285.734C697.595 285.727 697.445 285.717 697.246 285.704L697.234 286.004C697.135 285.997 697.083 286.044 697.079 286.144C696.979 286.137 696.88 286.13 696.78 286.124C696.381 286.097 696.035 285.974 695.743 285.754C695.452 285.534 695.156 285.414 694.857 285.394L694.874 284.945C694.674 284.931 694.575 284.925 694.575 284.925C694.479 284.818 694.331 284.758 694.131 284.745L694.143 284.445L693.544 284.405C693.548 284.305 693.502 284.202 693.406 284.095L692.957 284.065L692.968 283.765L692.22 283.716L692.209 284.015C691.314 283.856 690.672 283.662 690.28 283.436C689.889 283.209 689.597 282.99 689.405 282.776C689.113 282.557 688.871 282.34 688.679 282.127C688.388 281.907 687.948 281.627 687.361 281.288L686.618 281.088L686.63 280.788L686.042 280.448L686.071 279.699C685.971 279.692 685.921 279.689 685.921 279.689C685.825 279.582 685.727 279.526 685.628 279.519L685.645 279.069C685.146 279.036 684.9 278.919 684.908 278.72C684.82 278.413 684.58 278.147 684.188 277.92L684.205 277.471C684.006 277.457 683.81 277.344 683.618 277.131L683.635 276.681L683.52 275.772L683.22 275.752L683.116 274.543C683.024 274.336 682.98 274.183 682.984 274.083C682.988 273.983 682.943 273.83 682.851 273.623L682.713 273.314C682.233 272.781 682.047 272.418 682.154 272.224C682.166 271.925 682.079 271.568 681.895 271.155C682.002 270.962 682.104 270.919 682.2 271.025C682.196 271.125 682.198 271.075 682.206 270.875L681.906 270.855C682.018 270.562 682.079 270.266 682.09 269.966C682.105 269.566 682.171 269.17 682.286 268.777L682.435 268.787C682.443 268.587 682.356 268.231 682.176 267.718C681.995 267.205 681.915 266.698 681.934 266.199C681.937 266.099 681.991 266.002 682.095 265.909C682.099 265.809 682.102 265.709 682.106 265.609L682.405 265.629C682.716 265.349 682.929 265.013 683.044 264.62L683.648 264.51C683.679 263.711 683.809 262.918 684.039 262.132C684.169 261.339 684.591 260.766 685.305 260.413L685.322 259.963C685.729 259.79 686.036 259.61 686.243 259.424L686.26 258.974C686.364 258.881 686.465 258.837 686.565 258.844C686.669 258.751 686.824 258.611 687.031 258.424L687.048 257.975L687.348 257.995L687.503 257.855L687.509 257.705C687.505 257.805 687.607 257.761 687.814 257.575C687.921 257.382 688.125 257.295 688.424 257.315C688.623 257.328 688.821 257.392 689.017 257.505C689.216 257.518 689.416 257.531 689.616 257.545C689.815 257.558 689.967 257.518 690.07 257.425L690.082 257.125L690.381 257.145C690.684 257.065 691.047 256.739 691.469 256.166L691.768 256.186L691.791 255.586C692.098 255.406 692.51 255.083 693.028 254.617C693.124 254.723 693.222 254.78 693.322 254.787L693.471 254.797L693.466 254.946L694.508 255.166L694.951 255.346L695.705 255.246L695.999 255.416C696.198 255.429 696.4 255.393 696.603 255.306L697.651 255.376C697.754 255.283 697.858 255.189 697.961 255.096C697.965 254.996 698.019 254.9 698.122 254.806ZM716.367 335.217C716.267 335.21 716.217 335.207 716.217 335.207C716.121 335.1 716.023 335.044 715.924 335.037C716.023 335.044 716.077 334.947 716.085 334.747C716.088 334.647 716.14 334.601 716.24 334.607L716.39 334.617L716.367 335.217ZM731.888 305.897C732.176 306.217 732.32 306.377 732.32 306.377L732.308 306.677L732.401 308.186L732.7 308.206C732.889 308.519 733.47 309.008 734.445 309.674C735.424 310.241 736.393 311.057 737.353 312.123L737.336 312.572C737.435 312.579 737.483 312.632 737.48 312.732C737.579 312.739 737.679 312.745 737.779 312.752L737.762 313.202C737.862 313.208 737.91 313.262 737.906 313.362C737.906 313.362 737.956 313.365 738.055 313.372L738.038 313.821L738.338 313.841L738.298 314.89L738.43 315.35L738.73 315.37L738.707 315.97C738.899 316.183 739.093 316.346 739.288 316.459L739.208 318.558L738.909 318.538C738.802 318.731 738.692 318.974 738.581 319.267C738.474 319.46 738.414 319.707 738.403 320.007C738.388 320.406 738.428 320.66 738.524 320.766L738.657 321.226C739.056 321.252 739.246 321.516 739.227 322.015C739.311 322.422 739.398 322.778 739.486 323.084C738.865 323.644 738.203 323.951 737.5 324.004L737.294 325.493L736.994 325.473L736.977 325.922L736.782 327.112L736.483 327.092L736.46 327.691L736.149 327.971L736.132 328.421C735.925 328.607 735.719 328.744 735.516 328.83C735.416 328.824 735.263 328.914 735.056 329.1L735.044 329.4L734.895 329.39L734.446 329.36L734.29 329.5C734.083 329.687 733.976 329.88 733.968 330.08L734.106 330.389L734.256 330.399C734.455 330.413 734.557 330.369 734.561 330.269C734.661 330.276 734.713 330.229 734.716 330.13C735.012 330.249 735.307 330.369 735.603 330.489C735.998 330.616 736.19 330.829 736.179 331.129L736.628 331.159L737.048 331.938C737.528 332.471 737.764 332.837 737.757 333.037C737.753 333.137 737.847 333.294 738.039 333.507L738.188 333.517L738.304 334.426C738.3 334.526 738.246 334.623 738.143 334.716C738.139 334.816 738.135 334.916 738.131 335.016L738.224 336.525L738.063 336.815C737.752 337.094 737.543 337.331 737.436 337.524C737.428 337.724 737.315 338.067 737.096 338.553L736.947 338.543C736.943 338.643 736.891 338.69 736.791 338.683C736.791 338.683 736.789 338.733 736.786 338.833L736.337 338.803C736.229 338.996 736.124 339.14 736.02 339.233C736.02 339.233 735.966 339.329 735.859 339.523L735.26 339.483C735.057 339.569 734.754 339.649 734.351 339.723C734.048 339.803 733.697 339.829 733.298 339.803C732.998 339.783 732.751 339.716 732.555 339.603L732.561 339.453C732.361 339.44 732.21 339.48 732.106 339.573C732.006 339.566 731.857 339.556 731.657 339.543L731.663 339.393L731.219 339.213L731.225 339.063C731.225 339.063 731.179 338.96 731.087 338.753L730.949 338.444L730.505 338.264C730.31 338.151 730.116 337.987 729.924 337.774L729.941 337.325L729.642 337.305L729.653 337.005C729.077 336.365 728.804 335.646 728.835 334.846C728.85 334.447 728.865 334.047 728.881 333.647C728.996 333.254 729.063 332.808 729.082 332.308C728.302 331.755 727.711 331.516 727.308 331.589C726.909 331.562 726.364 331.426 725.674 331.179L725.662 331.479L724.016 331.369L723.561 331.489C723.051 331.756 722.59 332.025 722.18 332.299C721.869 332.578 721.501 333.055 721.075 333.728L720.776 333.708L720.707 335.506C719.982 336.159 718.921 336.439 717.524 336.346C717.432 336.139 717.338 335.983 717.242 335.876C717.146 335.77 717.052 335.613 716.96 335.407L716.81 335.397C716.714 335.29 716.67 335.137 716.678 334.937L716.689 334.637C716.697 334.437 716.453 334.271 715.958 334.138C715.954 334.238 715.95 334.338 715.946 334.437C715.843 334.531 715.789 334.627 715.785 334.727L715.486 334.707L715.475 335.007L715.924 335.037C716.008 335.443 716.035 336.046 716.005 336.846L715.999 336.996C715.995 337.095 715.993 337.145 715.993 337.145C715.894 337.139 715.842 337.185 715.838 337.285L715.832 337.435L715.965 337.895L716.264 337.915C716.157 338.108 716.097 338.355 716.086 338.654C716.078 338.854 716.021 339.051 715.913 339.244L715.614 339.224C715.399 339.61 715.294 339.754 715.298 339.654C715.301 339.554 715.2 339.597 714.993 339.784L714.987 339.933C714.783 340.02 714.682 340.063 714.682 340.063C714.582 340.057 714.43 340.097 714.227 340.183C714.131 340.077 714.035 339.97 713.939 339.864L713.962 339.264L713.519 339.084L713.369 339.074L713.363 339.224L713.214 339.214L712.016 339.134L712.033 338.685C711.435 338.645 710.892 338.458 710.404 338.125L710.387 338.575C710.483 338.681 710.579 338.788 710.675 338.894C710.671 338.994 710.717 339.098 710.813 339.204C710.506 339.384 710.251 339.517 710.048 339.604C709.748 339.584 709.595 339.674 709.587 339.874C709.58 340.074 709.624 340.227 709.72 340.333C709.72 340.333 709.718 340.383 709.714 340.483L709.858 340.643C709.233 341.303 708.913 341.832 708.897 342.232C708.786 342.525 708.324 342.845 707.51 343.192C707.503 343.391 707.547 343.545 707.643 343.651C707.643 343.651 707.641 343.701 707.637 343.801L707.039 343.761C706.812 344.447 706.294 344.914 705.485 345.16L705.473 345.46L705.024 345.43L704.42 345.54C704.416 345.64 704.412 345.74 704.409 345.84C704.309 345.833 704.257 345.88 704.253 345.98L703.804 345.95C703.8 346.05 703.797 346.15 703.793 346.249C703.693 346.243 703.641 346.289 703.637 346.389L703.338 346.369L703.327 346.669L703.16 347.109L702.861 347.089L702.688 347.679L702.476 349.317C702.253 349.904 702.083 350.443 701.964 350.936C701.849 351.329 701.676 351.919 701.446 352.705L700.997 352.675C700.886 352.968 700.727 353.208 700.52 353.394L700.37 353.384C700.336 354.284 700.113 354.87 699.703 355.143L699.634 356.942L699.335 356.922L699.318 357.372L699.14 358.111L698.973 358.551L698.674 358.531L698.639 359.43L698.473 359.87L698.294 360.609L697.995 360.589L697.978 361.039L697.805 361.629L697.506 361.609C697.487 362.108 697.32 362.548 697.006 362.928C696.591 363.301 696.127 363.671 695.613 364.037L695.607 364.187C695.101 364.353 694.742 364.58 694.531 364.866C694.324 365.053 694.021 365.133 693.622 365.106L693.61 365.406C693.299 365.686 692.937 366.012 692.523 366.385C692.112 366.659 691.7 366.982 691.285 367.355L690.831 367.475L689.777 367.555L689.766 367.855L689.167 367.815L688.263 367.905L688.252 368.204L687.055 368.124C687.051 368.224 687.049 368.274 687.049 368.274C686.949 368.268 686.897 368.314 686.894 368.414L686.445 368.384L686.433 368.684L685.08 368.744C684.578 368.811 684.027 368.824 683.428 368.784C682.83 368.744 682.229 368.754 681.627 368.814L681.638 368.514L681.189 368.485C680.805 368.058 680.561 367.892 680.458 367.985C680.258 367.972 679.963 367.852 679.571 367.625L679.583 367.325L679.433 367.315C679.333 367.309 679.281 367.355 679.278 367.455C679.278 367.455 679.228 367.452 679.128 367.445C679.124 367.545 679.072 367.592 678.973 367.585L676.129 367.396L676.14 367.096L675.841 367.076L675.398 366.896C675.302 366.789 675.258 366.636 675.265 366.436L674.517 366.386L674.223 366.217L674.235 365.917C674.035 365.903 673.836 365.89 673.636 365.877C673.34 365.757 673.093 365.69 672.893 365.677L672.905 365.377L672.456 365.347L671.863 365.157L671.132 364.658L670.389 364.458L670.4 364.158C670.101 364.138 669.853 364.072 669.658 363.958L669.663 363.809C669.472 363.595 669.326 363.485 669.226 363.479C669.126 363.472 668.978 363.412 668.783 363.299L668.8 362.849C668.22 362.31 667.79 361.78 667.51 361.261C667.229 360.741 666.541 360.444 665.443 360.371C665.125 360.851 664.856 361.334 664.638 361.82C664.319 362.3 663.761 362.513 662.963 362.46C662.775 362.147 662.441 361.724 661.961 361.191C662.279 360.711 662.492 360.375 662.599 360.182C662.611 359.882 662.722 359.589 662.933 359.302L663.105 358.713C663.505 358.739 663.815 358.459 664.038 357.873C664.164 357.18 664.237 356.584 664.256 356.084L664.106 356.074C664.014 355.868 663.97 355.715 663.974 355.615C663.981 355.415 663.939 355.212 663.847 355.005L663.697 354.995C663.505 354.782 663.361 354.622 663.265 354.516C663.173 354.309 663.033 354.049 662.845 353.736L662.545 353.716L661.687 352.607L661.238 352.577C661.242 352.477 661.244 352.427 661.244 352.427C661.148 352.321 661.102 352.217 661.106 352.118L660.657 352.088C660.565 351.881 660.423 351.671 660.231 351.458L660.098 350.998L659.666 350.519L659.217 350.489C659.232 350.089 658.895 349.766 658.204 349.52C657.517 349.173 656.924 348.983 656.425 348.95C655.826 348.91 655.469 349.087 655.354 349.48C655.243 349.773 655.078 350.163 654.86 350.649L654.693 351.089C654.49 351.175 654.284 351.312 654.077 351.498C653.774 351.578 653.617 351.768 653.605 352.068C653.594 352.368 653.686 352.574 653.882 352.687C654.078 352.801 654.222 352.961 654.314 353.167L654.302 353.467L654.602 353.487L654.585 353.937L654.85 354.856C655.241 355.082 655.533 355.302 655.725 355.515L655.708 355.965C656.099 356.191 656.391 356.411 656.583 356.624L656.566 357.074C656.765 357.087 657.001 357.454 657.274 358.173C657.447 358.886 657.576 359.446 657.66 359.852L658.259 359.892L658.27 359.592L658.869 359.632C658.988 359.139 659.206 358.653 659.525 358.173C659.747 357.587 660.062 357.207 660.468 357.034L660.474 356.884C660.678 356.797 660.879 356.761 661.079 356.774C661.178 356.781 661.33 356.741 661.533 356.654L661.522 356.954L661.971 356.984L661.954 357.434L662.403 357.464C662.395 357.663 662.435 357.917 662.524 358.223C662.516 358.423 662.509 358.623 662.501 358.823L662.334 359.262L662.035 359.242C662.027 359.442 662.02 359.642 662.012 359.842C661.908 359.935 661.853 360.082 661.845 360.282C661.346 360.248 660.897 360.218 660.498 360.192C660.103 360.065 659.656 359.985 659.157 359.952C658.946 360.238 658.791 360.378 658.691 360.372C658.591 360.365 658.532 360.611 658.513 361.111C658.609 361.218 658.653 361.371 658.645 361.571C658.638 361.771 658.58 361.967 658.473 362.16C658.369 362.254 658.313 362.4 658.306 362.6C658.291 363 658.433 363.21 658.732 363.23L658.692 364.279L658.986 364.449C659.185 364.462 659.385 364.475 659.584 364.489C659.788 364.402 660.039 364.369 660.338 364.389C660.623 364.808 660.813 365.071 660.909 365.178C661.005 365.285 661.037 365.738 661.007 366.537C660.7 366.717 660.541 366.957 660.529 367.257C660.418 367.55 660.257 367.839 660.046 368.126L659.874 368.716C659.77 368.809 659.718 368.855 659.718 368.855C659.618 368.849 659.517 368.892 659.413 368.985L659.396 369.435L659.235 369.725L658.936 369.705L658.884 371.054C659.276 371.28 659.717 371.51 660.208 371.743C660.7 371.976 660.936 372.343 660.917 372.842L660.739 373.582L660.871 374.042C660.967 374.148 661.065 374.205 661.165 374.211C661.165 374.211 661.213 374.265 661.309 374.371L661.447 374.681C661.428 375.181 661.415 375.53 661.407 375.73C661.3 375.924 661.039 376.207 660.624 376.58L659.87 376.68C659.767 376.773 659.512 376.906 659.105 377.079C658.698 377.253 658.493 377.389 658.489 377.489L658.443 378.688C658.539 378.795 658.626 379.151 658.703 379.758C658.784 380.264 658.82 380.617 658.812 380.817L658.513 380.797L658.013 382.116L657.408 382.226C657.19 382.712 657.08 382.955 657.08 382.955C656.985 382.849 656.733 382.882 656.326 383.055L655.722 383.165L655.267 383.285C655.06 383.472 654.903 383.662 654.796 383.855C654.692 383.948 654.586 384.091 654.479 384.284L654.03 384.255C653.923 384.448 653.867 384.594 653.863 384.694C653.763 384.688 653.66 384.781 653.553 384.974L652.948 385.084C652.841 385.277 652.785 385.424 652.781 385.524C652.778 385.624 652.724 385.72 652.62 385.813L652.453 386.253C652.246 386.44 652.089 386.63 651.982 386.823C651.774 387.009 651.516 387.242 651.205 387.522L650.151 387.602C649.737 387.975 649.231 388.142 648.632 388.102C648.432 388.089 648.333 388.082 648.333 388.082C648.237 387.975 648.089 387.916 647.889 387.902C646.891 387.836 646.022 388.329 645.282 389.381L644.833 389.351C644.626 389.538 644.52 389.681 644.517 389.781C644.513 389.881 644.261 389.914 643.763 389.881L643.751 390.181L642.853 390.121L642.548 390.251L641.495 390.331L641.483 390.631L640.585 390.571L639.532 390.651L639.521 390.95L638.323 390.871L637.868 390.99L636.965 391.08L636.953 391.38C636.554 391.354 636.203 391.38 635.9 391.46C635.501 391.434 635.102 391.407 634.703 391.38L634.691 391.68L634.242 391.65C634.035 391.837 633.878 392.027 633.77 392.22L633.011 392.47C632.903 392.663 632.848 392.809 632.844 392.909C632.844 392.909 632.79 393.006 632.683 393.199L632.383 393.179C631.969 393.552 631.612 393.729 631.313 393.709C631.113 393.696 630.816 393.626 630.421 393.499C630.025 393.373 629.735 393.103 629.551 392.69L629.419 392.23C629.219 392.217 629.025 392.054 628.837 391.74C628.653 391.327 628.513 391.068 628.417 390.961L628.434 390.511C627.773 389.465 627.245 388.879 626.85 388.753C626.359 388.52 625.825 388.083 625.25 387.444L624.651 387.404C624.267 386.977 623.925 386.754 623.626 386.734L623.344 386.265C623.248 386.158 623.15 386.101 623.05 386.095C622.954 385.988 622.858 385.882 622.762 385.775L622.785 385.176C622.416 384.349 621.935 383.867 621.34 383.727C620.749 383.487 620.008 383.237 619.118 382.977L619.129 382.678C619.033 382.571 618.985 382.518 618.985 382.518C618.885 382.511 618.787 382.454 618.691 382.348L619.203 380.729C619.311 380.536 619.422 380.243 619.537 379.85C619.652 379.457 619.715 379.11 619.726 378.81L619.738 378.511L619.439 378.491C619.469 377.691 619.085 377.265 618.287 377.212C617.489 377.158 617.097 376.932 617.112 376.532L617.124 376.232L616.824 376.212L616.83 376.062C616.868 375.063 617.087 374.577 617.486 374.603L617.503 374.154L617.802 374.174L617.837 373.274C617.545 373.055 617.305 372.788 617.117 372.475C616.833 372.055 616.595 371.739 616.403 371.526L616.293 370.467C616.604 370.187 616.861 370.004 617.064 369.917L617.076 369.617C617.175 369.624 617.325 369.634 617.525 369.647C617.728 369.56 617.88 369.52 617.979 369.527C617.887 369.321 617.841 369.217 617.841 369.217C617.745 369.111 617.703 368.908 617.714 368.608C617.921 368.421 618.038 367.978 618.065 367.279C618.069 367.179 618.023 367.076 617.927 366.969C617.927 366.969 617.835 366.763 617.65 366.349C617.562 366.043 617.422 365.783 617.23 365.57L617.08 365.56L617.086 365.41C617.093 365.21 617.151 365.014 617.258 364.821C617.366 364.627 617.423 364.431 617.431 364.231C617.438 364.031 617.15 363.711 616.567 363.272C615.888 362.726 615.567 361.953 615.605 360.954C615.812 360.767 616.119 360.587 616.526 360.414C616.837 360.134 616.998 359.844 617.009 359.544L617.458 359.574C617.458 359.574 617.562 359.481 617.769 359.295L618.068 359.315L618.385 358.885L618.839 358.765C619.549 358.512 620.161 358.202 620.675 357.836C621.093 357.362 621.473 356.586 621.814 355.507L622.263 355.537C622.378 355.144 622.538 354.904 622.741 354.818C622.848 354.624 622.959 354.331 623.074 353.938L623.523 353.968C623.635 353.675 623.848 353.339 624.162 352.959C624.377 352.572 624.634 352.389 624.933 352.409L624.956 351.81L625.123 351.37L625.33 349.881L625.629 349.901C625.637 349.701 625.692 349.555 625.796 349.461C625.8 349.361 625.803 349.261 625.807 349.162L626.107 349.182L626.124 348.732C626.331 348.545 626.643 348.216 627.062 347.743C627.38 347.263 627.892 346.946 628.598 346.793L630.095 346.893C630.298 346.806 630.457 346.567 630.572 346.173C630.588 345.774 630.653 345.377 630.768 344.984C630.787 344.485 630.852 344.088 630.963 343.795C631.078 343.402 631.335 343.219 631.734 343.246L633.53 343.365C633.715 343.778 633.951 344.145 634.239 344.465C634.431 344.678 634.519 344.984 634.504 345.384C634.489 345.784 634.375 346.127 634.164 346.413C633.854 346.693 633.695 346.933 633.687 347.133C633.672 347.532 634.013 347.755 634.712 347.802C634.919 347.616 635.623 347.512 636.824 347.492C638.025 347.472 639.083 347.292 639.996 346.952C639.915 346.446 639.786 345.887 639.61 345.274C639.337 344.554 639.21 343.945 639.229 343.445C639.256 342.745 639.57 342.366 640.173 342.306C640.679 342.139 641.034 342.013 641.238 341.926L641.226 342.226C641.825 342.266 642.118 342.436 642.107 342.735C642.096 343.035 642.184 343.342 642.372 343.655L642.522 343.665L642.292 345.753C642.285 345.953 642.423 346.263 642.707 346.682C642.891 347.095 643.081 347.359 643.277 347.472L643.266 347.772C643.465 347.785 643.713 347.852 644.008 347.971C644.208 347.985 644.457 348.001 644.757 348.021L644.745 348.321L645.793 348.391L647.134 348.631L647.577 348.811L647.566 349.11C647.766 349.124 647.963 349.187 648.159 349.3C648.259 349.307 648.408 349.317 648.608 349.33C648.635 348.631 648.661 347.931 648.688 347.232C648.619 346.426 648.146 345.693 647.271 345.033L646.972 345.013C646.78 344.8 646.684 344.694 646.684 344.694L646.235 344.664L646.102 344.204L645.653 344.174C645.561 343.968 645.419 343.758 645.227 343.545L644.928 343.525C644.832 343.418 644.784 343.365 644.784 343.365C644.788 343.265 644.742 343.162 644.646 343.055L644.346 343.035C644.25 342.928 644.202 342.875 644.202 342.875C644.206 342.775 644.16 342.672 644.064 342.565L643.914 342.555C643.826 342.249 643.788 341.946 643.799 341.646C643.81 341.346 643.774 340.993 643.689 340.587L643.54 340.577L643.401 340.267C643.321 339.761 643.286 339.358 643.297 339.058C643.213 338.652 642.979 338.235 642.595 337.809L642.474 337.049C642.477 336.95 642.481 336.85 642.485 336.75C642.389 336.643 642.343 336.54 642.347 336.44C642.381 335.541 642.665 334.658 643.198 333.792C643.631 332.919 643.898 332.486 643.998 332.493L644.015 332.043L644.314 332.063C644.337 331.463 644.5 331.124 644.803 331.044C645.01 330.857 645.269 330.624 645.58 330.344L645.608 329.595C645.808 329.608 646.011 329.521 646.219 329.335L646.23 329.035L646.829 329.075C647.036 328.888 647.139 328.795 647.139 328.795L647.588 328.825L647.6 328.525L648.348 328.575C648.452 328.482 648.555 328.389 648.659 328.295C648.663 328.196 648.716 328.099 648.82 328.006L649.269 328.036C649.273 327.936 649.325 327.889 649.424 327.896C649.428 327.796 649.432 327.696 649.436 327.596L650.034 327.636C650.242 327.449 650.395 327.359 650.495 327.366C650.499 327.266 650.65 327.226 650.95 327.246C651.448 327.279 651.944 327.413 652.435 327.646C652.826 327.872 653.272 328.002 653.77 328.035C654.17 328.062 654.421 328.029 654.524 327.935L655.129 327.825L655.14 327.526C655.236 327.632 655.334 327.689 655.434 327.696C655.534 327.702 655.632 327.759 655.727 327.865L656.171 328.045C656.159 328.345 656.351 328.558 656.747 328.685C657.146 328.711 657.495 328.735 657.794 328.755L657.783 329.054C657.982 329.068 658.134 329.028 658.238 328.935C658.241 328.835 658.393 328.795 658.692 328.815L658.681 329.114L661.392 328.844L661.386 328.994L661.542 328.854L662.146 328.744C662.349 328.658 662.501 328.618 662.601 328.625C662.701 328.631 662.852 328.591 663.055 328.505L663.81 328.405L663.821 328.105C664.228 327.932 664.531 327.852 664.73 327.865C664.83 327.872 664.989 327.632 665.208 327.145L665.403 325.956C665.898 326.09 666.242 326.263 666.434 326.476L666.877 326.656C666.873 326.756 666.919 326.859 667.015 326.965C667.015 326.965 667.013 327.015 667.01 327.115L667.752 327.315L667.908 327.175C669.512 327.082 670.634 326.506 671.275 325.446C671.819 324.281 672.199 323.504 672.414 323.118L672.863 323.148L672.874 322.848L674.071 322.928C674.163 323.135 674.259 323.241 674.359 323.248C674.459 323.254 674.507 323.308 674.503 323.408L674.486 323.857L674.785 323.877L674.757 324.627C674.834 325.233 675.371 325.569 676.369 325.636C676.576 325.449 677.079 325.383 677.877 325.436C679.473 325.543 680.262 325.846 680.243 326.345L681.59 326.435C681.594 326.335 681.646 326.289 681.746 326.295C681.749 326.195 681.753 326.095 681.757 325.995L682.805 326.065C683.085 326.585 683.321 326.951 683.513 327.164C683.705 327.378 683.786 327.884 683.755 328.683L684.653 328.743C684.665 328.443 684.722 328.247 684.826 328.154L684.975 328.164C685.294 327.684 685.507 327.348 685.614 327.154L686.063 327.184L686.097 326.285C686.304 326.098 686.512 325.912 686.719 325.725C686.83 325.432 686.987 325.242 687.191 325.156L687.789 325.196L687.801 324.896L688.25 324.926L689.602 324.866L689.769 324.426L690.368 324.466L690.823 324.346L690.834 324.046L692.031 324.126L692.486 324.006L693.39 323.916L693.401 323.617C693.701 323.636 693.902 323.6 694.006 323.507C694.109 323.413 694.265 323.273 694.472 323.087L694.771 323.107C694.974 323.02 695.078 322.927 695.082 322.827C695.086 322.727 695.237 322.687 695.537 322.707C696.135 322.747 696.58 322.877 696.872 323.097C697.164 323.317 697.559 323.443 698.058 323.476C698.557 323.51 699.008 323.49 699.411 323.416C699.714 323.336 700.015 323.306 700.314 323.326C700.714 323.353 700.961 323.42 701.057 323.526L701.362 323.396L701.489 324.006C701.6 323.713 701.807 323.526 702.11 323.446L702.07 324.495C702.569 324.529 702.917 324.602 703.112 324.715L703.152 323.666C703.356 323.579 703.557 323.543 703.757 323.556L703.728 324.305L704.177 324.335L704.2 323.736C704.4 323.749 704.547 323.809 704.643 323.916C704.643 323.916 704.693 323.919 704.793 323.926L704.632 324.215C704.728 324.322 704.818 324.579 704.903 324.985C704.991 325.291 705.185 325.455 705.484 325.475L705.49 325.325C705.49 325.325 705.544 325.228 705.651 325.035L706.1 325.065L706.083 325.514C706.279 325.628 706.676 325.704 707.275 325.744C707.275 325.744 707.382 325.551 707.597 325.165L707.148 325.135L707.159 324.835C707.259 324.842 707.357 324.898 707.453 325.005C707.752 325.025 707.908 324.885 707.919 324.585L707.947 323.836L708.247 323.856L708.391 324.015C708.494 323.922 708.646 323.882 708.845 323.895C708.842 323.995 708.888 324.099 708.984 324.205C708.98 324.305 708.974 324.455 708.967 324.655L709.266 324.675L709.484 322.886C709.584 322.893 709.638 322.796 709.645 322.596C709.653 322.397 709.607 322.293 709.507 322.287C709.411 322.18 709.365 322.077 709.369 321.977L709.374 321.827L709.524 321.837C709.528 321.737 709.58 321.69 709.679 321.697C709.683 321.597 709.687 321.497 709.691 321.397C709.698 321.197 709.61 320.891 709.426 320.478C709.721 320.598 709.919 320.661 710.019 320.668L710.168 320.678C710.268 320.684 710.37 320.641 710.473 320.548C710.381 320.341 710.291 320.085 710.203 319.778L710.801 319.818L710.813 319.519C711.223 319.245 711.544 318.716 711.774 317.93L712.223 317.96C712.242 317.46 712.451 317.223 712.85 317.25L712.884 316.351L713.051 315.911L713.35 315.931C713.477 315.238 713.601 314.595 713.724 314.002C713.75 313.303 713.829 312.557 713.959 311.764L714.258 311.784C714.477 311.298 714.745 310.815 715.064 310.335C715.382 309.855 715.741 309.629 716.14 309.655L716.157 309.206C716.157 309.206 716.259 309.162 716.462 309.076L716.479 308.626C716.686 308.44 716.942 308.306 717.245 308.226C717.452 308.04 717.659 307.853 717.866 307.667L718.471 307.557L718.482 307.257C718.685 307.17 719.036 307.144 719.535 307.177C720.433 307.237 720.986 307.174 721.193 306.987C721.504 306.707 721.715 306.421 721.826 306.128C721.941 305.735 722.054 305.392 722.165 305.098C722.277 304.805 722.631 304.679 723.23 304.719L723.823 304.908C723.808 305.308 723.946 305.618 724.238 305.838C724.633 305.964 725.08 306.044 725.579 306.078C725.786 305.891 725.994 305.704 726.201 305.518C726.408 305.331 726.611 305.245 726.811 305.258C727.409 305.298 727.751 305.521 727.836 305.928C728.024 306.241 728.262 306.557 728.55 306.877L729.747 306.957C730.269 306.39 730.982 306.037 731.888 305.897Z" fill="#F2AC81"/>
</svg>
