<svg width="309" height="237" viewBox="0 0 309 237" fill="none" xmlns="http://www.w3.org/2000/svg">
<path d="M22.594 138.786C22.775 138.667 23.031 138.564 23.3621 138.476L23.2695 138.927L22.594 138.786ZM70.4725 156.032L70.5188 155.807L71.3732 156.22L70.4725 156.032ZM68.2207 155.564C67.7704 155.47 67.4701 155.407 67.32 155.376C67.0506 155.164 66.6908 155.01 66.2404 154.917L66.3793 154.241C67.5802 154.491 68.6598 154.95 69.6181 155.619L68.267 155.338L68.2207 155.564ZM145.802 199.664C145.621 199.783 145.455 199.827 145.305 199.796L145.08 199.749C144.93 199.718 144.645 199.58 144.225 199.336L144.318 198.886C144.618 198.948 144.918 199.011 145.219 199.073C145.4 198.954 145.64 198.926 145.941 198.988L145.802 199.664ZM54.2264 175.674L54.0876 176.35L53.412 176.21L53.5509 175.534L54.2264 175.674ZM61.5139 161.921C61.3638 161.889 61.2733 161.949 61.2425 162.099C61.0923 162.068 60.9422 162.037 60.7921 162.005C60.3418 161.912 59.8472 161.652 59.3085 161.227C59.6704 160.989 59.9573 160.735 60.1692 160.466C60.381 160.197 60.7121 160.109 61.1625 160.203L61.0699 160.654L61.6991 161.019C61.9685 161.232 62.4785 161.416 63.2291 161.573C63.9796 161.729 64.8053 161.901 65.706 162.088C66.4874 162.094 67.0283 162.128 67.3285 162.191L67.2359 162.641C67.5053 162.854 67.8652 163.007 68.3155 163.101C68.6157 163.163 68.916 163.226 69.2162 163.288C69.5473 163.201 69.863 163.188 70.1632 163.251C70.4635 163.313 70.8829 163.557 71.4217 163.982L68.0903 163.054C67.9402 163.023 67.6996 163.051 67.3685 163.139C67.0683 163.076 66.768 163.014 66.4678 162.951L66.5141 162.726C66.364 162.695 66.1984 162.739 66.0175 162.858C65.8673 162.826 65.6422 162.78 65.3419 162.717L64.6664 162.577L61.5602 161.695L61.5139 161.921ZM165.697 205.684C165.335 205.922 165.214 206.131 165.333 206.313C165.302 206.463 165.106 206.657 164.744 206.895L163.976 207.205C163.371 207.862 162.963 208.325 162.751 208.595L162.075 208.454C161.29 209.23 160.535 209.856 159.811 210.332L159.136 210.191C158.955 210.31 158.849 210.445 158.818 210.595C158.787 210.745 158.681 210.88 158.5 210.999L157.778 211.084C157.416 211.322 157.16 211.425 157.01 211.394C156.829 211.513 156.498 211.6 156.017 211.657L155.878 212.333C155.547 212.42 155.231 212.433 154.931 212.371C154.481 212.277 154.227 211.989 154.169 211.507C153.961 210.994 153.829 210.497 153.771 210.015L153.997 210.062C154.208 209.793 154.888 209.151 156.036 208.137C157.033 207.091 157.607 206.584 157.757 206.616L158.121 205.987C158.633 205.78 159.613 205.201 161.061 204.249C162.39 203.116 163.895 202.646 165.577 202.84C165.816 203.203 165.964 203.625 166.021 204.107C165.959 204.407 165.851 204.933 165.697 205.684ZM66.1482 180.504C65.848 180.442 65.6073 180.47 65.4264 180.589C65.2762 180.558 65.0511 180.511 64.7508 180.449C64.6624 180.117 64.6182 179.951 64.6182 179.951C64.499 179.77 64.3952 179.513 64.3068 179.182L65.2075 179.369L65.3001 178.918C65.6003 178.981 65.81 179.103 65.9293 179.284C65.9293 179.284 66.0044 179.3 66.1545 179.331L66.3334 179.603L71.7376 180.728C72.9385 180.978 73.6891 181.134 73.9893 181.196C74.2896 181.259 74.4993 181.381 74.6186 181.562C73.7179 181.375 72.8017 181.263 71.8702 181.225C70.9695 181.038 70.0688 180.85 69.1681 180.663L66.2408 180.054L66.1482 180.504ZM137.186 200.455C137.005 200.574 136.614 200.571 136.014 200.446L136.06 200.221C136.422 199.983 136.95 199.702 137.643 199.376C138.336 199.05 139.013 198.8 139.676 198.624L140.126 198.718C141.031 198.123 141.708 197.873 142.159 197.966C142.609 198.06 143.287 197.81 144.192 197.215L144.642 197.309C144.792 197.34 145.048 197.236 145.41 196.999C145.653 196.579 145.924 196.401 146.225 196.463L146.403 196.735C146.011 197.123 145.814 197.318 145.814 197.318C145.695 197.136 145.545 197.105 145.364 197.224C145.483 197.405 145.527 197.571 145.496 197.721C145.496 197.721 145.556 197.812 145.675 197.993L145.179 198.125C144.124 198.689 143.19 199.042 142.378 199.187L141.477 198.999L141.384 199.45L139.987 199.394L139.398 199.976L138.497 199.789L137.954 200.145L137.279 200.005L137.186 200.455ZM190.949 87.3672C191.28 87.2795 191.521 87.2512 191.671 87.2825L191.624 87.5078L190.949 87.3672ZM188.2 87.0302C187.838 87.2681 187.733 87.4027 187.883 87.4339C187.914 87.2837 187.763 87.2525 187.432 87.3402C187.344 87.0086 187.359 86.9335 187.479 87.1149C187.448 87.2651 187.313 87.1588 187.075 86.7959C187.075 86.7959 187.286 86.5268 187.71 85.9885L188.611 86.1759L188.2 87.0302ZM191.711 88.2305C192.073 87.9926 192.238 87.9487 192.207 88.0989C192.057 88.0677 192.148 88.0082 192.479 87.9205L192.386 88.3711L191.711 88.2305ZM86.1852 76.138C85.4305 76.764 84.8875 77.1209 84.5564 77.2086C84.2562 77.1461 83.5056 76.9899 82.3046 76.74C82.0661 76.3772 81.8122 76.0894 81.5428 75.8767C81.1233 75.6328 80.7943 75.3294 80.5558 74.9666L79.6551 74.7791C79.4475 74.2661 79.1648 73.7374 78.807 73.1931C78.4492 72.6488 78.0915 72.1045 77.7337 71.5602C77.9456 71.291 78.1132 70.8561 78.2367 70.2553C78.391 69.5043 78.8434 69.2069 79.594 69.3631L80.541 69.3252L80.6336 68.8747L82.2561 68.9774C82.5564 69.0399 82.7815 69.0867 82.9317 69.118C82.9625 68.9677 83.053 68.9083 83.2031 68.9395C83.8036 69.0645 84.2981 69.324 84.6868 69.7181C84.9562 69.9308 85.2255 70.1434 85.4949 70.3561L86.3956 70.5436C86.3339 70.8439 86.5415 71.357 87.0185 72.0828C87.5264 72.6583 87.6569 73.5468 87.41 74.7484C87.194 75.7998 86.7857 76.263 86.1852 76.138ZM188.266 83.2849C188.292 83.917 188.321 84.1579 188.352 84.0077C188.383 83.8575 188.593 83.9794 188.981 84.3735L189.61 84.7394L189.518 85.19L189.968 85.2837C190.445 86.0094 190.787 86.6288 190.995 87.1419L190.32 87.0013C190.081 86.6385 189.946 86.5321 189.916 86.6823C189.916 86.6823 189.796 86.5009 189.558 86.138L189.65 85.6874L188.75 85.5C188.6 85.4688 188.555 85.3029 188.617 85.0026L187.942 84.862L188.034 84.4114L186.504 83.8581C186.266 83.4952 186.043 83.0573 185.835 82.5442C185.627 82.0311 185.148 81.6965 184.398 81.5403L184.583 80.6392C185.183 80.7641 185.543 80.9173 185.662 81.0987L186.292 81.4646C186.411 81.646 186.455 81.8118 186.424 81.962C186.424 81.962 186.484 82.0528 186.603 82.2342L187.457 82.6469C187.457 82.6469 187.727 82.8596 188.266 83.2849ZM182.306 84.8639L182.167 85.5397L181.266 85.3523L181.405 84.6764L182.306 84.8639ZM127.846 143.069C127.334 143.276 126.837 143.407 126.356 143.464L126.31 143.689C125.409 143.502 124.674 143.27 124.104 142.995L124.15 142.77C123.912 142.407 123.87 141.85 124.024 141.099C124.24 140.048 124.664 139.51 125.295 139.484C125.926 139.459 126.467 139.493 126.918 139.587C127.368 139.681 127.712 139.909 127.951 140.272C128.039 140.604 128.203 140.951 128.441 141.314C128.38 141.614 128.318 141.914 128.256 142.215C128.044 142.484 127.907 142.769 127.846 143.069ZM59.1181 95.8775C58.7871 95.9652 58.5156 96.1437 58.3037 96.4128C57.9726 96.5005 57.6415 96.5883 57.3104 96.676C57.0719 96.3131 56.7121 96.1599 56.2309 96.2164C55.6304 96.0914 55.4382 95.5033 55.6542 94.4519C55.8394 93.5507 56.1726 93.0719 56.6538 93.0154C57.135 92.959 57.826 93.0244 58.7267 93.2119C58.9343 93.7249 59.0823 94.1473 59.1707 94.4789C59.29 94.6603 59.2725 95.1265 59.1181 95.8775ZM64.5813 94.4302C64.9124 94.3425 65.153 94.3142 65.3031 94.3455C65.334 94.1953 65.5149 94.0763 65.846 93.9886L65.8923 93.7633C66.2543 93.5254 67.2918 93.428 69.0048 93.4713C70.7487 93.3643 72.146 93.4202 73.1968 93.6389C74.698 93.9512 75.9853 94.9239 77.0585 96.5568C76.8734 97.458 76.4497 97.9963 75.7875 98.1717C75.1561 98.1969 74.4498 98.2066 73.6683 98.2006L72.9465 98.2853L72.8539 98.7359L68.1252 97.7519L68.2178 97.3013C67.9176 97.2388 67.3171 97.1138 66.4164 96.9264C65.5157 96.739 64.9461 96.4638 64.7076 96.1009L64.2572 96.0072L64.5813 94.4302ZM101.119 99.4493C101.631 99.2426 102.249 98.9014 102.973 98.4255L103.019 98.2002C103.35 98.1125 103.756 98.0404 104.237 97.9839C104.75 97.7773 105.306 97.7364 105.906 97.8614C106.207 97.9238 106.566 98.077 106.986 98.321C107.405 98.5649 107.75 98.7932 108.019 99.0058L107.927 99.4564C108.615 99.913 108.989 100.382 109.046 100.864C108.954 101.315 108.815 101.99 108.63 102.892C108.268 103.13 107.906 103.367 107.544 103.605C107.032 103.812 106.745 104.066 106.683 104.366L106.007 104.225C105.464 104.582 104.517 104.62 103.166 104.339L103.213 104.114C101.804 103.351 100.921 102.697 100.563 102.153L100.748 101.252L101.119 99.4493ZM105.586 90.2771C105.525 90.5775 105.494 90.7277 105.494 90.7277C105.525 90.5775 105.315 90.4556 104.864 90.3619L103.831 89.677C103.142 89.2204 102.888 88.9326 103.069 88.8137C103.131 88.5133 103.074 88.0315 102.897 87.3682L105.149 87.8368C105.445 88.6815 105.787 89.3009 106.176 89.695C105.964 89.9641 105.767 90.1582 105.586 90.2771ZM23.3107 72.4511L23.1255 73.3523L22.7215 73.0333C22.6022 72.8519 22.6176 72.7768 22.7678 72.808C22.7678 72.808 22.7236 72.6422 22.6352 72.3106L23.3107 72.4511ZM268.289 100.642C269.64 100.924 270.404 101.396 270.581 102.059C270.639 102.541 271.268 102.907 272.469 103.157C274.42 103.563 275.489 103.315 275.674 102.414C275.974 102.476 276.184 102.598 276.303 102.78C276.453 102.811 276.678 102.858 276.979 102.92L276.886 103.371L279.992 104.252C280.262 104.465 280.697 104.634 281.297 104.759C281.747 104.852 281.942 105.05 281.88 105.35L281.649 106.476C282.006 107.021 282.364 107.565 282.722 108.109C283.11 108.503 283.424 108.882 283.663 109.245L284.742 109.704C284.981 110.067 285.144 110.414 285.232 110.746C285.502 110.959 285.921 111.203 286.491 111.478C287.034 111.121 288.056 111.099 289.557 111.411C289.465 111.862 289.478 112.178 289.597 112.359L289.822 112.406C289.73 112.857 289.562 113.292 289.319 113.711C289.227 114.161 289.15 114.537 289.088 114.837L288.863 114.79C288.678 115.692 288.764 116.414 289.122 116.959C289.629 117.534 289.956 118.229 290.102 119.042L293.255 119.698C293.343 120.03 293.31 120.571 293.156 121.322C292.975 121.441 292.838 121.726 292.745 122.176L292.52 122.13C292.158 122.367 291.781 122.68 291.388 123.069C291.176 123.338 291.04 123.623 290.978 123.923C290.762 124.974 290.908 125.788 291.416 126.363C291.923 126.939 292.387 127.349 292.807 127.592L292.112 130.972L292.563 131.066L292.556 132.239C292.675 132.42 292.748 132.827 292.775 133.459C291.782 133.722 290.848 134.076 289.974 134.521C289.281 134.846 288.736 135.594 288.339 136.765L288.789 136.858C288.728 137.159 288.726 137.55 288.783 138.032C288.841 138.513 289.019 138.786 289.32 138.848L289.406 139.571C289.494 139.902 289.508 140.218 289.446 140.519C289.415 140.669 289.444 140.91 289.532 141.242C289.17 141.479 288.899 141.658 288.718 141.777C288.687 141.927 288.356 142.015 287.725 142.04C287.632 142.491 287.539 142.941 287.447 143.392C287.535 143.723 287.549 144.039 287.487 144.34C287.125 144.578 286.869 144.681 286.719 144.65C286.719 144.65 286.328 144.647 285.546 144.641L285.639 144.19L284.785 143.778C284.484 143.715 284.259 143.668 284.109 143.637C284.14 143.487 284.08 143.396 283.93 143.365L283.838 143.815L283.162 143.675C282.919 144.094 282.677 144.513 282.434 144.933C282.191 145.352 281.964 145.696 281.752 145.966C279.947 146.373 278.845 147.162 278.448 148.332C278.082 149.352 277.447 150.16 276.542 150.754C276.241 150.692 275.941 150.629 275.641 150.567C275.372 150.354 275.087 150.217 274.787 150.154L274.879 149.704C274.579 149.641 274.354 149.594 274.204 149.563C274.084 149.382 273.875 149.26 273.574 149.197L273.621 148.972C272.658 149.085 271.696 149.198 270.733 149.311C269.621 149.393 268.762 149.762 268.158 150.419L267.932 150.372C267.478 151.061 267.264 151.721 267.291 152.353C267.348 152.835 266.686 153.01 265.304 152.88L264.588 151.791L264.363 151.744C264.275 151.412 264.308 150.871 264.462 150.12L263.787 149.98L263.879 149.529C263.279 149.404 262.738 149.37 262.257 149.426C261.806 149.333 261.281 149.223 260.68 149.098L260.727 148.873C260.457 148.66 260.173 148.523 259.872 148.46C259.422 148.367 258.987 148.198 258.568 147.954C258.144 148.492 257.661 148.94 257.118 149.297C256.455 149.472 256.047 149.935 255.893 150.686C255.8 151.137 255.767 151.678 255.794 152.31C255.852 152.792 255.834 153.258 255.741 153.709C255.618 154.31 255.45 154.744 255.238 155.014L255.013 154.967C254.378 155.774 253.879 156.297 253.517 156.535C253.155 156.773 252.703 157.07 252.16 157.427C252.04 157.246 251.846 157.048 251.577 156.836C251.824 155.634 252.143 154.839 252.536 154.451L252.947 153.597L253.397 153.691L254.171 152.207C254.145 151.575 254.193 150.959 254.317 150.358C254.29 149.726 254.173 149.154 253.965 148.641L252.389 148.313C252.204 149.214 251.674 149.887 250.8 150.331C249.926 150.776 249.052 151.22 248.178 151.665L246.555 151.562L246.463 152.013C246.313 151.982 245.743 151.706 244.754 151.187C243.646 150.487 242.957 150.03 242.687 149.818L242.734 149.592C242.133 149.467 241.517 149.418 240.886 149.443C240.255 149.468 239.698 149.509 239.217 149.565L237.37 149.416C237.008 149.654 236.827 149.773 236.827 149.773C236.857 149.622 236.692 149.666 236.33 149.904L235.88 149.81L235.648 150.937C235.556 151.388 235.434 151.597 235.284 151.566L235.463 151.838C235.216 153.04 234.956 153.925 234.682 154.495C234.259 155.033 233.939 155.828 233.723 156.879C233.692 157.029 233.736 157.195 233.855 157.377C233.824 157.527 233.793 157.677 233.763 157.827L233.988 157.874C234.165 158.537 234.145 159.395 233.929 160.446C233.775 161.197 233.516 161.692 233.154 161.929L233.062 162.38C232.85 162.649 232.669 162.768 232.519 162.737C232.219 162.674 232.007 162.944 231.883 163.544L231.208 163.404L230.844 164.033C230.663 164.152 230.422 164.18 230.122 164.118C229.822 164.055 229.597 164.008 229.446 163.977C229.327 163.796 229.193 163.689 229.042 163.658C228.892 163.627 228.486 163.699 227.824 163.874C228.301 164.6 228.37 165.789 228.03 167.441C227.938 167.892 227.591 168.054 226.991 167.929L226.898 168.38L224.871 167.958C224.425 167.082 224.143 166.554 224.023 166.372C223.935 166.041 223.937 165.65 224.03 165.199C224.061 165.049 224.197 164.764 224.44 164.345C224.683 163.925 224.954 163.747 225.254 163.809C225.316 163.509 225.347 163.359 225.347 163.359C225.228 163.177 225.184 163.012 225.214 162.861L224.989 162.814C225.294 162.095 225.492 161.51 225.585 161.059C225.708 160.458 225.922 159.798 226.227 159.078L226.677 159.172L227.273 157.416C228.358 156.703 229.367 156.364 230.299 156.402C231.111 156.258 232.073 156.145 233.186 156.063C233.098 155.731 233.038 155.64 233.007 155.791C232.976 155.941 232.917 155.85 232.828 155.519L232.788 154.57C232.311 153.845 231.969 153.225 231.761 152.712L230.635 152.478C230.207 153.799 229.303 154.393 227.921 154.262C227.594 153.568 227.538 152.695 227.754 151.644C228.417 151.468 228.779 151.23 228.84 150.93C228.933 150.479 229.176 150.06 229.568 149.672L230.879 149.005C231.272 148.617 231.652 147.913 232.018 146.893C232.415 145.722 232.691 144.762 232.845 144.011L232.129 142.922L226.95 141.844C226.588 142.082 225.955 142.499 225.05 143.093C224.176 143.538 223.348 143.757 222.567 143.751C222.478 143.42 222.375 143.163 222.255 142.982C222.41 142.231 222.818 141.767 223.48 141.592C223.992 141.385 224.445 141.088 224.837 140.7L224.612 140.653C224.555 140.171 224.226 139.868 223.625 139.743C223.025 139.618 222.378 139.718 221.685 140.044C220.992 140.369 220.358 140.786 219.785 141.293C219.061 141.769 218.472 142.351 218.017 143.039L216.487 142.486C216.306 142.605 216.065 142.633 215.765 142.571L215.812 142.345C215.454 141.801 215.29 141.454 215.321 141.304C215.202 141.122 214.617 140.922 213.566 140.704L213.52 140.929C212.319 140.679 211.217 141.468 210.216 143.295C209.245 144.973 208.59 146.637 208.25 148.29C208.489 148.652 208.652 149 208.741 149.331C208.679 149.632 208.993 150.01 209.681 150.467L209.542 151.143L209.092 151.049C209.388 151.894 209.625 152.648 209.801 153.311C210.009 153.824 210.53 154.716 211.365 155.986L211.815 156.079L211.676 156.755C212.666 157.274 213.427 158.138 213.962 159.345C214.377 160.371 214.627 161.441 214.711 162.555L214.261 162.461L214.029 163.588C213.667 163.826 213.471 164.02 213.44 164.17C213.29 164.139 212.84 164.045 212.089 163.889L212.135 163.664C211.385 163.507 210.694 163.442 210.062 163.467C209.312 163.311 208.561 163.155 207.811 162.999L207.764 163.224C206.864 163.036 206.146 162.339 205.612 161.131C205.077 159.924 204.69 159.139 204.452 158.776C203.847 159.433 203.273 159.94 202.731 160.297C202.037 160.622 201.329 161.023 200.605 161.499L200.281 163.076L204.454 166.764L204.395 169.336L204.846 169.429L204.793 170.828C204.97 171.491 204.996 172.123 204.873 172.724C204.719 173.475 204.536 173.985 204.324 174.254C203.993 174.342 203.662 174.43 203.33 174.517C202.849 174.574 202.412 174.796 202.019 175.184C201.657 175.422 201.384 175.992 201.199 176.893L200.974 176.846C200.727 178.048 200.438 178.692 200.107 178.78C199.625 178.836 199.16 178.818 198.709 178.724C197.208 178.412 196.446 177.548 196.424 176.134C196.251 174.689 196.015 173.935 195.715 173.872L194.814 173.685C194.39 174.223 194.086 174.943 193.9 175.844C193.565 176.714 192.943 177.837 192.034 179.214L191.577 180.294C191.396 180.413 191.215 180.532 191.034 180.651C190.884 180.62 190.719 180.663 190.538 180.782L190.399 181.458L188.863 182.078C188.832 182.228 188.801 182.379 188.77 182.529C188.62 182.498 188.529 182.557 188.498 182.707L187.823 182.567C187.099 183.043 186.36 183.593 185.605 184.219C184.7 184.814 184.005 185.531 183.519 186.37L184.42 186.557C185.025 185.9 186.109 185.577 187.671 185.589C187.093 186.879 186.262 187.88 185.176 188.594C184.09 189.307 183.516 189.815 183.454 190.115C183.269 191.016 183.355 191.739 183.713 192.283C183.651 192.584 183.545 192.718 183.395 192.687C183.245 192.656 183.155 192.715 183.124 192.865L182.8 194.442L182.032 194.752L181.8 195.879C181.8 195.879 181.469 195.967 180.807 196.142L180.668 196.818C179.944 197.294 179.401 197.651 179.039 197.888C178.708 197.976 178.435 198.546 178.219 199.597L178.444 199.644C178.594 199.675 178.726 200.173 178.841 201.136C178.837 201.919 178.804 202.46 178.743 202.76L178.696 202.985L178.379 203.389C177.178 203.139 176.55 202.382 176.497 201.118C176.444 199.854 176.525 198.697 176.741 197.645L176.291 197.551C176.445 196.801 176.509 196.109 176.482 195.477C176.306 194.814 176.16 194 176.045 193.037L181.131 194.565C181.435 193.845 181.665 193.11 181.819 192.359C181.973 191.608 182.203 190.873 182.507 190.153L181.832 190.012C181.924 189.562 181.896 189.321 181.745 189.29L181.52 189.243C181.732 188.973 181.853 188.764 181.884 188.614C181.915 188.463 182.021 188.329 182.202 188.21L181.752 188.116C181.632 187.935 181.513 187.753 181.394 187.572C181.182 187.841 180.895 188.095 180.533 188.332L180.169 188.961L179.719 188.868L179.17 190.398C178.777 190.786 178.64 191.071 178.759 191.252C178.728 191.402 178.307 191.55 177.494 191.694L176.322 191.685L176.23 192.135C175.629 192.01 175.163 191.992 174.832 192.08L174.243 192.662L171.674 192.597L171.581 193.047L170.905 192.907C170.363 193.264 169.985 193.577 169.773 193.846L169.098 193.705C168.917 193.824 168.795 194.034 168.734 194.334C167.471 194.385 166.493 194.573 165.8 194.899C164.988 195.043 164.385 195.309 163.992 195.697C163.449 196.054 162.997 196.351 162.635 196.589C162.273 196.827 161.701 196.943 160.92 196.937C160.951 196.787 160.891 196.696 160.741 196.665L160.973 195.538L160.522 195.445C160.522 195.445 160.703 195.326 161.065 195.088C161.189 194.487 161.222 193.946 161.164 193.464C160.987 192.801 160.599 192.407 159.998 192.282L160.091 191.831L159.236 191.418C157.735 191.106 156.653 191.037 155.991 191.213C155.21 191.207 154.638 191.323 154.276 191.561C153.914 191.799 153.612 192.127 153.369 192.547C153.007 192.785 152.48 193.066 151.787 193.392L151.509 194.744L151.151 194.199C150.97 194.318 150.805 194.362 150.654 194.331C150.504 194.3 150.339 194.344 150.158 194.463C150.039 194.281 150.054 194.206 150.204 194.237C150.204 194.237 150.144 194.147 150.025 193.965L150.21 193.064L150.661 193.158C151.054 192.77 151.596 192.413 152.29 192.087C152.832 191.73 153.15 191.326 153.243 190.876C153.274 190.726 153.232 190.169 153.117 189.205L152.666 189.111L152.805 188.436C152.116 187.979 151.533 187.388 151.056 186.662C150.579 185.936 150.102 185.211 149.625 184.485L148.546 184.025C148.276 183.813 147.916 183.659 147.466 183.566L147.472 182.392L146.618 181.98C146.499 181.798 146.454 181.632 146.485 181.482C146.516 181.332 146.382 181.226 146.081 181.163C146.05 181.313 145.96 181.373 145.81 181.342C145.779 181.492 145.613 181.536 145.313 181.473L145.406 181.023C143.847 180.228 143.024 179.665 142.935 179.334C142.878 178.852 142.566 178.082 142.001 177.025L142.331 174.275C142.455 173.674 142.578 173.073 142.701 172.472C142.675 171.84 142.723 171.224 142.847 170.623L141.946 170.436C141.703 170.855 141.507 171.049 141.357 171.018C141.207 170.987 141.116 171.046 141.085 171.196L140.854 172.323C140.095 173.731 139.128 174.626 137.954 175.008L136.782 174.999L136.689 175.45C135.276 175.469 134.539 175.629 134.477 175.929C134.265 176.198 133.904 176.436 133.391 176.643L133.166 176.596C133.012 177.347 132.948 178.039 132.975 178.671C132.882 179.121 132.759 179.722 132.604 180.473L133.28 180.614L133.187 181.064L134.538 181.345C134.565 181.977 134.638 182.384 134.757 182.566C134.726 182.716 134.68 182.941 134.618 183.241C134.526 183.692 134.374 184.052 134.162 184.321L134.837 184.462L134.884 184.236C135.034 184.268 135.078 184.433 135.016 184.734C134.835 184.853 134.442 185.241 133.838 185.898L133.705 185.401C133.374 185.488 133.118 185.592 132.937 185.711C132.637 185.648 132.456 185.767 132.394 186.067C131.917 185.342 131.557 185.189 131.314 185.608C130.953 185.846 130.473 185.511 129.877 184.604L129.248 184.238C129.279 184.088 129.294 184.013 129.294 184.013C129.175 183.831 129.131 183.666 129.162 183.515L127.499 182.465C127.141 181.92 126.918 181.482 126.83 181.151L125.704 180.916L125.797 180.466C125.315 180.522 124.909 180.594 124.578 180.682C124.097 180.739 123.6 180.87 123.088 181.077C123 180.745 122.746 180.458 122.326 180.214L122.465 179.538C121.715 179.382 121.114 179.257 120.664 179.163C120.244 178.919 119.796 178.434 119.319 177.708L119.094 177.662C118.917 176.998 118.919 176.607 119.1 176.488C119.312 176.219 118.998 175.841 118.159 175.353L118.305 173.504L118.53 173.55C118.622 173.1 118.715 172.649 118.808 172.199C118.75 171.717 118.768 171.251 118.86 170.8L118.41 170.706L118.324 169.984C118.447 169.383 118.464 168.917 118.376 168.585C118.168 168.072 117.945 167.634 117.707 167.271C117.318 166.877 117.095 166.439 117.038 165.957C116.83 165.444 116.834 164.662 117.05 163.611C117.174 163.01 117.476 162.681 117.957 162.625C118.469 162.418 118.922 162.121 119.315 161.732C120.034 162.039 120.845 162.286 121.745 162.473C122.496 162.629 123.246 162.786 123.997 162.942L123.904 163.392C124.205 163.455 124.414 163.577 124.534 163.758C124.684 163.789 124.834 163.821 124.984 163.852L124.891 164.303L125.567 164.443C125.567 164.443 125.686 164.625 125.925 164.987C126.225 165.05 126.525 165.112 126.825 165.175C127.157 165.087 127.472 165.075 127.772 165.137L128.421 161.983C128.571 162.014 128.692 161.804 128.785 161.354L128.745 160.406L128.294 160.312C128.387 159.862 128.389 159.47 128.301 159.139L128.214 158.416L127.764 158.322C127.795 158.172 127.872 157.797 127.995 157.196C128.15 156.445 128.077 156.038 127.776 155.976C127.931 155.225 128.251 154.43 128.736 153.591C129.221 152.753 129.87 152.261 130.683 152.117L130.914 150.99L131.457 150.634L131.007 150.54C131.046 148.825 130.692 147.499 129.946 146.56C129.08 145.44 128.786 144.205 129.064 142.853C129.907 142.558 130.36 142.261 130.422 141.961C130.483 141.66 130.695 141.391 131.057 141.153L131.063 139.98L130.613 139.886L130.851 137.586L130.4 137.493L130.539 136.817C130.42 136.635 130.285 136.529 130.135 136.498C130.016 136.316 129.837 136.044 129.599 135.681L129.83 134.555C129.892 134.255 129.954 133.954 130.015 133.654C129.958 133.172 129.96 132.781 130.022 132.48L130.247 132.527C130.489 132.108 130.703 131.448 130.889 130.546L130.438 130.453L130.577 129.777L126.709 128.032C126.471 127.669 126.263 127.156 126.086 126.493L124.735 126.212C124.828 125.761 124.574 125.474 123.973 125.349C123.823 125.317 123.733 125.377 123.702 125.527C123.702 125.527 123.627 125.511 123.477 125.48C123.327 125.449 123.238 125.117 123.211 124.485L122.761 124.392L122.993 123.265C122.692 123.203 122.408 123.065 122.138 122.852L121.814 124.429C121.333 124.486 120.642 124.42 119.741 124.233C119.653 123.901 119.624 123.66 119.655 123.51C119.536 123.329 119.522 123.013 119.615 122.562L119.39 122.515L119.661 122.337C120.323 122.162 120.789 122.18 121.059 122.393C121.209 122.424 121.465 122.321 121.827 122.083L121.873 121.858C120.857 120.706 120.55 119.155 120.951 117.202C121.352 115.25 121.526 113.641 121.473 112.377C121.897 111.839 122.32 111.301 122.744 110.762C123.049 110.043 123.278 109.307 123.432 108.556C123.313 108.375 123.209 108.118 123.121 107.787C122.428 108.112 121.481 108.15 120.28 107.9C119.829 107.807 119.47 107.653 119.2 107.441L119.154 107.666C118.399 108.292 118.02 108.996 118.015 109.778C118.011 110.561 117.108 110.764 115.307 110.389C115.13 109.726 114.907 109.288 114.638 109.075L115.24 106.147C114.789 106.053 114.504 105.915 114.385 105.734C114.116 105.521 113.862 105.233 113.623 104.871L113.67 104.645C113.4 104.433 113.191 104.311 113.04 104.279C112.89 104.248 112.681 104.126 112.411 103.914L112.457 103.688C111.861 102.781 111.521 101.771 111.437 100.657C111.233 99.3615 110.787 98.4855 110.098 98.0289L110.012 97.3062C110.074 97.0058 110.195 96.7961 110.376 96.6772C110.588 96.408 110.74 96.0482 110.833 95.5976C110.925 95.147 110.837 94.8154 110.568 94.6027C110.179 94.2086 109.94 93.8457 109.852 93.5141L108.951 93.3267L109.09 92.6508L109.991 92.8382L110.13 92.1623C109.86 91.9497 109.726 91.8433 109.726 91.8433C109.757 91.6931 109.712 91.5273 109.593 91.3459L108.964 90.98C108.725 90.6171 108.606 90.4357 108.606 90.4357C108.606 90.4357 108.652 90.2104 108.745 89.7598C109.107 89.5219 109.288 89.403 109.288 89.403C109.138 89.3717 109.184 89.1464 109.427 88.7271L109.877 88.8208C110.001 88.22 109.912 87.8884 109.612 87.8259L111.14 80.3913L111.59 80.485L111.683 80.0344L112.226 79.6775C112.618 79.2894 113.027 78.8262 113.45 78.2879C114.298 77.2113 114.872 76.7042 115.172 76.7667L115.311 76.0908C115.611 76.1533 116.317 76.1437 117.43 76.062C118.423 75.7988 119.476 75.6264 120.589 75.5447L120.681 75.0941C121.162 75.0376 121.628 75.0562 122.079 75.1499C122.379 75.2124 122.664 75.35 122.933 75.5627C123.083 75.5939 123.368 75.7315 123.787 75.9754L127.119 76.9035C127.326 77.4166 128.102 78.5959 129.444 80.4415C130.668 82.1057 131.624 83.166 132.313 83.6226L132.266 83.8479L132.717 83.9416L132.763 83.7163L138.392 84.8878L138.485 84.4372C138.785 84.4997 139.085 84.5621 139.386 84.6246C139.567 84.5057 139.807 84.4774 140.108 84.5399L140.737 84.9058C140.914 85.569 140.986 85.9758 140.956 86.126C141.437 86.0695 141.903 86.0881 142.353 86.1818C142.653 86.2443 142.969 86.2317 143.3 86.1439L143.346 85.9187C143.346 85.9187 143.6 86.2064 144.108 86.782C144.497 87.1761 144.93 87.736 145.407 88.4617C145.914 89.0373 146.407 89.6879 146.884 90.4136C147.361 91.1394 147.628 91.7432 147.686 92.225L147.818 92.7224L148.898 93.182C150.611 93.2253 151.723 93.1435 152.236 92.9369C152.628 92.5488 152.871 92.1294 152.964 91.6788L153.149 90.7776C153.241 90.3271 153.394 89.9672 153.606 89.698L153.831 89.7449C154.043 89.4758 154.164 89.2661 154.195 89.1159C154.226 88.9657 154.347 88.756 154.559 88.4869C155.155 89.394 155.376 90.2231 155.222 90.9741C155.098 91.5749 155.787 92.0314 157.288 92.3438C157.65 92.1059 157.906 92.0026 158.056 92.0338C158.207 92.0651 158.343 91.7803 158.467 91.1795L158.692 91.2264C159.116 90.6881 159.343 90.3438 159.374 90.1936C159.285 89.862 159.647 89.6241 160.46 89.4799L160.552 89.0293L161.678 89.2636L161.169 91.7418L161.076 92.1924C161.977 92.3798 162.62 93.0617 163.004 94.238C163.238 95.3831 163.594 96.3185 164.071 97.0443L166.276 97.7381L166.819 97.3813C167.181 97.1433 167.512 97.0556 167.813 97.1181L168.217 97.4371L168.164 98.8357C168.495 98.748 168.811 98.7354 169.111 98.7979C169.261 98.8291 169.502 98.8009 169.833 98.7132L169.879 98.4879C170.753 98.0433 171.252 97.5206 171.376 96.9198C171.499 96.319 172.311 96.1748 173.812 96.4872C173.932 96.6687 173.974 97.2256 173.939 98.158C171.837 97.7206 170.376 98.3563 169.555 100.065C170.306 100.221 170.847 100.255 171.178 100.168L171.27 99.717L171.992 99.6323C172.473 99.5758 172.939 99.5945 173.39 99.6882C173.84 99.7819 174.306 99.8005 174.787 99.744L174.833 99.5187C174.983 99.55 175.328 99.7783 175.866 100.204C176.405 100.629 177.05 100.92 177.8 101.076L178.522 100.991C178.491 101.141 179.335 100.847 181.052 100.108C182.65 99.1876 184.349 98.9149 186.151 99.2897C186.359 99.8028 186.672 100.181 187.092 100.425C187.361 100.638 187.69 100.941 188.079 101.335L188.708 101.701L188.88 103.147C189.119 103.51 189.388 103.722 189.688 103.785C190.02 103.697 190.379 103.85 190.768 104.244L190.722 104.47C191.172 104.563 191.682 104.748 192.252 105.023C192.702 105.117 193.152 105.21 193.603 105.304L193.51 105.755C193.93 105.999 194.424 106.258 194.994 106.533C195.444 106.627 195.623 106.899 195.53 107.35L196.206 107.49L196.113 107.941C196.864 108.097 197.524 108.313 198.094 108.588C198.694 108.713 199.37 108.853 200.12 109.01C200.667 107.87 201.062 107.091 201.305 106.672C201.579 106.102 202.813 105.811 205.007 105.798L205.238 104.671C204.969 104.459 204.85 104.277 204.88 104.127C204.911 103.977 204.852 103.886 204.702 103.855L204.026 103.714L204.119 103.264L203.218 103.076C202.741 102.351 202.458 101.822 202.37 101.49L201.919 101.396L202.197 100.045C203.968 100.57 205.151 101.286 205.747 102.193C206.225 102.919 207.348 103.544 209.119 104.069C209.604 103.231 209.924 102.436 210.078 101.685L209.628 101.591C209.84 101.322 209.977 101.037 210.038 100.737C210.1 100.436 210.237 100.152 210.449 99.8824L210.767 99.4787L211.667 99.6661C211.756 99.9978 211.754 100.389 211.661 100.839L212.111 100.933L211.966 102.782C212.235 102.995 212.43 103.192 212.549 103.374C212.668 103.555 212.863 103.752 213.132 103.965L213.443 104.734C213.744 104.797 214.059 104.784 214.39 104.696C214.571 104.577 214.812 104.549 215.112 104.612C215.713 104.737 215.951 105.1 215.828 105.7L221.457 106.872L221.365 107.322L222.669 107.829C223.12 107.923 223.645 108.032 224.246 108.157C224.727 108.1 225.268 108.135 225.868 108.26C225.868 108.26 226.003 108.366 226.272 108.579L226.319 108.353L228.484 108.099L230.332 108.249L230.424 107.798C230.905 107.742 231.747 107.838 232.948 108.088C233.098 108.119 233.232 108.226 233.352 108.407C233.352 108.407 233.427 108.423 233.577 108.454L234.749 108.463C236.042 108.262 237.036 107.999 237.729 107.674C238.453 107.198 239.011 106.766 239.404 106.378C239.677 105.808 239.936 105.314 240.178 104.894C240.452 104.325 240.725 103.755 240.999 103.186C241.118 103.367 241.253 103.474 241.403 103.505C241.553 103.536 241.688 103.642 241.807 103.824L242.35 103.467C242.319 103.617 242.363 103.783 242.483 103.964C242.483 103.964 242.467 104.039 242.436 104.19C242.887 104.283 243.337 104.377 243.787 104.471C244.269 104.414 244.734 104.433 245.185 104.527L245.277 104.076L246.628 104.357C246.659 104.207 246.75 104.148 246.9 104.179C246.9 104.179 246.915 104.104 246.946 103.953L247.622 104.094L247.714 103.643C248.226 103.437 249.008 103.443 250.059 103.661C250.266 104.175 250.355 104.506 250.324 104.656C250.324 104.656 250.247 105.032 250.092 105.783L250.543 105.877L250.265 107.228L250.94 107.369C250.91 107.519 250.954 107.685 251.073 107.866L252.199 108.101C252.561 107.863 252.863 107.534 253.106 107.115L254.007 107.302C254.188 107.183 254.369 107.064 254.55 106.945C254.58 106.795 254.686 106.661 254.867 106.542L255.231 105.913C255.682 106.006 256.013 105.919 256.225 105.649C256.317 105.199 256.47 104.839 256.681 104.57L256.907 104.617C256.937 104.466 257.028 104.407 257.178 104.438C257.209 104.288 257.24 104.138 257.271 103.988L257.946 104.128C258.127 104.009 258.248 103.8 258.31 103.499C258.372 103.199 258.628 103.095 259.078 103.189L259.356 101.837C259.718 101.599 260.155 101.377 260.667 101.171C261.179 100.964 261.585 100.892 261.886 100.954C262.636 101.11 263.04 101.429 263.098 101.911C263.155 102.393 263.559 102.712 264.31 102.868L264.217 103.319C265.18 103.206 265.992 103.062 266.654 102.886C267.197 102.529 267.742 101.781 268.289 100.642ZM132.167 178.033C132.136 178.183 132.105 178.333 132.074 178.483C131.893 178.602 131.787 178.737 131.756 178.887C132.118 178.649 132.299 178.53 132.299 178.53C132.299 178.53 132.405 178.396 132.617 178.126L132.167 178.033ZM141.197 167.226C140.623 167.733 140.02 167.999 139.389 168.024C138.608 168.018 137.914 168.344 137.31 169.001L137.171 169.677C137.621 169.771 137.968 169.608 138.21 169.189L139.111 169.376C139.292 169.257 139.383 169.198 139.383 169.198C139.414 169.047 139.519 168.913 139.7 168.794L140.151 168.888L140.382 167.761C140.833 167.855 141.133 167.917 141.283 167.948C141.464 167.83 141.705 167.801 142.005 167.864L142.097 167.413L141.197 167.226ZM204.119 153.538C203.7 153.294 203.04 153.078 202.139 152.891C201.892 154.093 201.976 155.206 202.392 156.233C202.657 157.227 203.39 157.85 204.591 158.1C204.622 157.95 204.728 157.815 204.909 157.696C204.939 157.546 204.97 157.396 205.001 157.245L205.458 156.166C204.742 155.077 204.296 154.201 204.119 153.538ZM243.804 92.9629C244.135 92.8751 244.451 92.8625 244.751 92.925C245.051 92.9875 245.367 92.9749 245.698 92.8871C245.906 93.4002 246.069 93.7475 246.188 93.9289C245.734 94.6174 245.023 95.4092 244.057 96.3044C242.971 97.0181 241.752 97.2344 240.401 96.9533C240.856 96.2648 241.235 95.5607 241.54 94.8409C241.844 94.1212 242.568 93.6454 243.712 93.4135L243.804 92.9629ZM157.509 76.4148C157.902 76.0267 158.145 75.6073 158.237 75.1567C158.33 74.7061 158.977 74.6058 160.177 74.8557C160.323 75.6692 160.56 76.4231 160.887 77.1176C161.063 77.7809 161.134 78.5787 161.099 79.5111C160.737 79.7491 160.525 80.0182 160.464 80.3186L158.888 79.9906C158.711 79.3273 158.488 78.8894 158.218 78.6767C157.83 78.2826 157.743 77.5599 157.959 76.5085L157.509 76.4148ZM224.537 205.007C225.023 204.169 226.016 203.905 227.517 204.218C228.568 204.436 229.33 205.3 229.803 206.808L230.028 206.855C230.028 206.855 230.116 207.186 230.293 207.849L230.743 207.943C230.863 208.125 230.907 208.29 230.876 208.441C230.876 208.441 230.936 208.531 231.055 208.713L231.274 209.933L231.724 210.027L231.486 212.326L231.937 212.42L231.785 215.443C231.905 215.624 232.039 215.73 232.189 215.762C232.189 215.762 232.249 215.852 232.368 216.034L232.229 216.71C232.83 216.835 233.084 217.122 232.991 217.573C232.899 218.024 233.002 218.28 233.303 218.343C233.453 218.374 233.618 218.33 233.799 218.211C234.4 218.336 234.577 218.999 234.33 220.201C233.637 220.526 232.464 220.517 230.813 220.174L230.859 219.949C230.59 219.736 230.305 219.598 230.005 219.536C229.705 219.473 229.42 219.336 229.151 219.123L228.521 218.757C228.552 218.607 228.568 218.532 228.568 218.532C228.448 218.35 228.404 218.185 228.435 218.034L227.759 217.894C227.671 217.562 227.552 217.381 227.402 217.35C227.282 217.168 227.179 216.912 227.09 216.58L226.282 215.942L226.375 215.491C226.255 215.31 226.196 215.219 226.196 215.219C226.046 215.188 225.911 215.082 225.792 214.9L225.931 214.224C225.63 214.162 225.436 213.965 225.348 213.633C225.259 213.302 225.246 212.986 225.308 212.685L225.083 212.638C224.994 212.307 224.965 212.066 224.996 211.916C225.027 211.765 224.998 211.524 224.91 211.193L224.87 210.245C224.72 210.214 224.645 210.198 224.645 210.198C224.526 210.017 224.391 209.91 224.241 209.879L224.154 209.156C223.947 208.643 223.933 208.327 224.114 208.208C224.145 208.058 224.041 207.801 223.803 207.439L224.537 205.007ZM225.622 103.745L225.437 104.646C224.567 104.308 223.637 103.88 222.648 103.361C221.54 102.66 221.005 101.453 221.045 99.7381C222.246 99.988 223.16 100.491 223.787 101.248C224.295 101.824 224.787 102.475 225.264 103.2L225.622 103.745ZM193.655 78.7682C193.986 78.6805 194.242 78.5772 194.423 78.4582C194.723 78.5207 194.933 78.6426 195.052 78.8241C195.052 78.8241 195.202 78.8553 195.503 78.9178L195.179 80.4948C194.697 80.5513 194.006 80.4858 193.106 80.2984L193.655 78.7682ZM218.423 101.072C219.623 101.322 220.343 101.628 220.582 101.991C220.67 102.323 220.772 102.97 220.887 103.934C220.375 104.141 220.028 104.303 219.847 104.422C219.158 103.966 218.754 103.647 218.635 103.465C218.397 103.103 218.158 102.74 217.92 102.377C217.981 102.076 218.103 101.867 218.284 101.748C218.315 101.598 218.361 101.372 218.423 101.072ZM221.002 40.5277C221.514 40.321 221.876 40.0831 222.088 39.814C222.299 39.5448 222.871 39.4289 223.803 39.4661L223.71 39.9167C224.911 40.1666 225.434 40.667 225.28 41.418C224.976 42.1378 224.821 42.8887 224.817 43.6709C224.005 43.8151 223.508 43.9467 223.327 44.0657C223.146 44.1846 222.455 44.1192 221.254 43.8692C221.108 43.0558 220.976 42.5583 220.857 42.3769C220.737 42.1955 220.786 41.5791 221.002 40.5277ZM72.4843 7.97736C72.9964 7.77069 73.8529 7.79231 75.0539 8.04222L76.7627 8.86767C76.7318 9.01786 76.776 9.18368 76.8953 9.36512C76.8953 9.36512 76.8798 9.44021 76.849 9.59041L78.3789 10.1437L78.2863 10.5943L78.9619 10.7349C79.0503 11.0665 79.1386 11.3981 79.227 11.7297C79.3463 11.9112 79.4501 12.1677 79.5385 12.4993L80.214 12.6399C80.0597 13.3909 80.2077 13.8132 80.6581 13.907C80.9583 13.9694 81.0004 14.5264 80.7844 15.5777L81.2347 15.6714L80.8644 17.4738C79.8402 17.8871 79.2973 18.244 79.2355 18.5444C79.0546 18.6634 78.1384 18.551 76.4871 18.2074L75.6327 17.7947C75.094 17.3693 74.5552 16.944 74.0165 16.5186C73.3276 16.062 72.9103 15.427 72.7643 14.6136L72.314 14.5198L72.4529 13.844C72.2144 13.4811 72.0509 13.1339 71.9625 12.8022C71.724 12.4394 71.4855 12.0765 71.247 11.7136C71.4013 10.9627 71.6152 10.3024 71.8888 9.73285C72.0123 9.13207 72.2108 8.5469 72.4843 7.97736ZM135.713 46.507C135.986 45.9375 136.273 45.684 136.574 45.7464C136.874 45.8089 137.368 46.0684 138.057 46.525C138.596 46.9504 139.135 47.3757 139.673 47.8011L139.581 48.2516C139.881 48.3141 140.062 48.1952 140.124 47.8948C140.393 48.1074 140.782 48.5016 141.29 49.0771C141.828 49.5024 142.471 50.1843 143.217 51.1227C143.845 51.8797 144.891 52.8806 146.357 54.1254L145.41 54.1633C145.053 53.6189 144.648 53.2999 144.198 53.2062C143.779 52.9623 143.33 52.4775 142.853 51.7517L141.953 51.5643L141.641 50.7947L140.966 50.6541C140.665 50.5917 140.036 50.2258 139.078 49.5565C138.12 48.8873 137.568 48.1459 137.422 47.3325L136.567 46.9198C136.267 46.8573 136.117 46.826 136.117 46.826C135.998 46.6446 135.863 46.5383 135.713 46.507ZM158.715 53.4079C159.377 53.2325 159.783 53.1604 159.933 53.1916C159.933 53.1916 160.308 53.2697 161.059 53.4259C161.297 53.7888 161.355 54.2706 161.232 54.8714C161.108 55.4722 161.091 55.9384 161.179 56.27C160.848 56.3577 160.667 56.4767 160.636 56.6269C160.486 56.5956 160.17 56.6083 159.689 56.6647L159.782 56.2141C159.362 55.9702 159.077 55.8327 158.927 55.8014C158.808 55.62 158.629 55.3478 158.391 54.985L158.715 53.4079ZM195.6 94.4431C195.719 94.6246 195.748 94.8655 195.686 95.1659L198.792 96.0472L198.7 96.4978C199.238 96.9231 199.717 97.2577 200.137 97.5016C200.406 97.7143 200.645 98.0772 200.852 98.5902L201.303 98.684L201.118 99.5851L197.965 98.9291L198.058 98.4785L197.382 98.338C197.413 98.1878 197.369 98.022 197.25 97.8405L196.574 97.6999C196.605 97.5497 196.62 97.4747 196.62 97.4747C196.501 97.2932 196.457 97.1274 196.488 96.9772L195.362 96.7429L195.455 96.2923L193.474 95.6453C193.055 95.4014 192.366 94.9448 191.408 94.2756C190.33 93.4249 189.747 92.8337 189.659 92.5021L189.937 91.1503C192.339 91.6501 193.701 92.6384 194.024 94.1151L195.6 94.4431ZM221.233 182.237C221.326 181.786 221.672 181.623 222.273 181.748C222.904 181.723 223.445 181.757 223.895 181.851L223.803 182.301C224.703 182.489 225.348 182.78 225.737 183.174C226.006 183.386 226.498 184.037 227.214 185.126L227.3 185.848C227.45 185.88 227.585 185.986 227.704 186.167C227.704 186.167 227.779 186.183 227.93 186.214L227.553 189.19C227.491 189.49 227.445 189.716 227.414 189.866C227.264 189.834 227.158 189.969 227.096 190.269L226.421 190.129C226.359 190.429 226.388 190.67 226.507 190.852C226.507 190.852 226.476 191.002 226.414 191.302C226.353 191.603 226.035 192.006 225.461 192.513C224.768 192.839 224.225 193.196 223.832 193.584L222.706 193.35C222.464 193.769 221.742 193.854 220.541 193.604C219.64 193.416 218.591 192.807 217.395 191.775C216.079 190.561 215.699 188.602 216.254 185.899C216.624 184.097 217.412 182.929 218.617 182.397L219.293 182.538C219.324 182.387 219.414 182.328 219.564 182.359C219.595 182.209 219.626 182.059 219.657 181.909L221.233 182.237ZM134.696 177.149C134.484 177.419 134.288 177.613 134.107 177.732L134.246 177.056L134.696 177.149ZM219.038 171.208C219.674 170.401 220.382 170 221.163 170.006L221.065 171.63C220.884 171.749 220.597 172.002 220.204 172.39C219.842 172.628 219.48 172.866 219.118 173.104C218.818 173.042 218.714 172.785 218.807 172.334C218.899 171.884 218.976 171.508 219.038 171.208ZM197.36 186.431C198.049 186.887 198.422 187.357 198.48 187.838C198.387 188.289 198.248 188.965 198.063 189.866C197.189 190.311 196.721 190.683 196.66 190.984C196.629 191.134 195.938 191.068 194.587 190.787C194.379 190.274 194.125 189.986 193.825 189.924C193.405 189.68 193.198 189.167 193.202 188.385L192.752 188.291L192.712 187.343C193.166 186.654 193.499 186.176 193.711 185.906C193.954 185.487 194.676 185.402 195.877 185.652L195.784 186.103L197.36 186.431ZM145.221 181.924C145.371 181.955 145.505 182.061 145.625 182.243C145.925 182.305 146.256 182.218 146.618 181.98L146.572 182.205C146.66 182.537 146.704 182.702 146.704 182.702C146.585 182.521 146.57 182.596 146.658 182.928C145.907 182.771 145.216 182.706 144.585 182.731C143.834 182.575 143.084 182.419 142.333 182.263C140.382 181.857 138.867 181.228 137.79 180.377C137.94 180.409 138.105 180.365 138.286 180.246C138.648 180.008 139.13 179.951 139.73 180.076C140.331 180.201 140.916 180.401 141.485 180.677C141.905 180.92 142.265 181.074 142.565 181.136L145.221 181.924ZM219.758 163.135L219.526 164.262C218.957 163.987 218.658 163.533 218.632 162.901L219.758 163.135ZM220.833 147.619C220.921 147.951 221.025 148.207 221.144 148.389C221.113 148.539 221.052 148.839 220.959 149.29L219.608 149.009C219.52 148.677 219.341 148.405 219.071 148.192C219.252 148.073 219.358 147.939 219.389 147.788C219.42 147.638 219.526 147.504 219.707 147.385L220.833 147.619ZM221.319 157.822C220.961 157.278 220.679 156.749 220.471 156.236C220.263 155.723 220.162 155.075 220.166 154.293C221.367 154.543 222.356 155.062 223.133 155.85C223.91 156.638 224.22 157.799 224.061 159.332C223.761 159.27 223.595 159.314 223.565 159.464C223.414 159.433 223.264 159.401 223.114 159.37C222.876 159.007 222.666 158.885 222.485 159.004C222.335 158.973 222.14 158.776 221.902 158.413L221.319 157.822ZM213.564 157.853C213.873 156.351 214.224 155.406 214.616 155.018L215.067 155.111C215.305 155.474 215.484 155.746 215.603 155.928C215.723 156.109 215.811 156.441 215.869 156.923L215.723 158.772C215.542 158.891 215.377 158.935 215.227 158.904C215.077 158.872 214.911 158.916 214.73 159.035L214.823 158.585C214.403 158.341 214.193 158.219 214.193 158.219C214.043 158.187 213.834 158.065 213.564 157.853Z" fill="#82DFFF"/>
</svg>
