<svg width="101" height="173" viewBox="0 0 101 173" fill="none" xmlns="http://www.w3.org/2000/svg">
<path d="M42.56 130.952C42.64 131.112 42.72 131.312 42.8 131.552C42.88 131.792 42.92 132.112 42.92 132.512C42.92 132.912 42.72 133.392 42.32 133.952C42 134.592 41.76 135.112 41.6 135.512H41.12C40.96 136.072 40.68 136.512 40.28 136.832C39.96 137.152 39.6 137.512 39.2 137.912L38.96 138.392H38.48V138.632C38.32 138.792 38.16 138.912 38 138.992C37.92 139.072 37.68 139.192 37.28 139.352V139.832C36.8 139.912 36.48 140.032 36.32 140.192V140.432C36.16 140.592 35.96 140.672 35.72 140.672C35.56 140.752 35.48 140.912 35.48 141.152H34.52V141.392C34.36 141.472 34.2 141.512 34.04 141.512C33.32 141.512 32.88 141.312 32.72 140.912C32.64 140.512 32.6 139.992 32.6 139.352C32.84 139.112 33.08 138.872 33.32 138.632C33.64 138.392 33.96 138.152 34.28 137.912V137.432C34.76 136.952 35.16 136.472 35.48 135.992C35.8 135.592 36.08 135.272 36.32 135.032V134.552C36.88 134.312 37.36 133.832 37.76 133.112H38.24L38.48 132.632H38.96C39.12 132.472 39.2 132.312 39.2 132.152H39.92C40.4 131.672 40.8 131.392 41.12 131.312C41.44 131.232 41.92 131.112 42.56 130.952ZM21.8 0.512398C21.56 0.432399 21.44 0.432399 21.44 0.512398C21.52 0.512398 21.48 0.432396 21.32 0.272394H21.8V0.512398ZM13.28 15.5124C13.44 15.6724 13.48 15.7524 13.4 15.7524C13.4 15.6724 13.44 15.7524 13.52 15.9924H13.28V15.5124ZM45.68 114.752C45.76 114.912 45.84 114.992 45.92 114.992C46 114.992 46.04 115.032 46.04 115.112C46.04 115.112 46 115.152 45.92 115.232V115.472H45.68V115.232H45.44C45.52 115.152 45.56 115.072 45.56 114.992C45.56 114.912 45.6 114.832 45.68 114.752ZM18.32 135.032C18.48 135.032 18.6 134.992 18.68 134.912C18.76 134.912 18.84 134.912 18.92 134.912C19 134.912 19.08 134.912 19.16 134.912C19.32 134.992 19.52 135.032 19.76 135.032C19.68 135.432 19.6 135.752 19.52 135.992C18.88 135.832 18.48 135.752 18.32 135.752V135.032ZM74 17.4324C73.84 17.1924 73.64 16.5524 73.4 15.5124C73.24 14.4724 73.16 13.6324 73.16 12.9924C73.16 12.3524 73.28 11.9524 73.52 11.7924C73.76 11.6324 74.08 11.5124 74.48 11.4324C74.72 11.6724 75.2 12.2724 75.92 13.2324C76.72 14.1124 77.12 15.2724 77.12 16.7124C77.12 17.2724 77 17.7124 76.76 18.0324C76.52 18.3524 76 18.5124 75.2 18.5124C75.04 18.3524 74.88 18.1924 74.72 18.0324C74.56 17.7924 74.4 17.5924 74.24 17.4324H74ZM86.84 34.9524C86.68 34.7924 86.6 34.7524 86.6 34.8324C86.68 34.8324 86.68 34.7124 86.6 34.4724C86.76 34.4724 87 34.3924 87.32 34.2324C87.32 34.5524 87.28 34.7524 87.2 34.8324C87.2 34.9124 87.16 35.0324 87.08 35.1924C86.92 35.1124 86.88 35.1124 86.96 35.1924C87.04 35.1924 87 35.1124 86.84 34.9524ZM95.96 31.2324H95V30.2724H95.48V30.0324C95.64 30.0324 95.88 30.1124 96.2 30.2724V30.9924H95.96V31.2324ZM79.04 28.8324H78.8V27.8724H79.76V28.8324C79.6 28.8324 79.36 28.9124 79.04 29.0724V28.8324ZM44.96 8.7924C44.8 8.7124 44.64 8.6724 44.48 8.6724C44.32 8.6724 44.16 8.6324 44 8.55239L44.72 7.8324C45.12 7.8324 45.76 7.9124 46.64 8.0724C47.52 8.1524 47.96 8.2724 47.96 8.4324C47.96 8.51239 47.8 8.6724 47.48 8.9124C47.16 9.07239 46.48 9.15239 45.44 9.15239C45.2 9.15239 45.04 9.11239 44.96 9.0324V8.7924ZM97.76 171.392C97.92 171.232 98.04 171.112 98.12 171.032C98.28 171.032 98.48 170.992 98.72 170.912V171.152H98.48C98.32 171.552 98.16 171.792 98 171.872C97.92 172.032 97.6 172.112 97.04 172.112C97.2 171.792 97.28 171.632 97.28 171.632C97.28 171.632 97.44 171.552 97.76 171.392ZM95.24 139.112C95.4 139.272 95.44 139.352 95.36 139.352C95.28 139.352 95.32 139.432 95.48 139.592H95.24V139.112ZM95.24 139.352C95.08 139.432 95 139.512 95 139.592H95.24C95.32 139.752 95.36 139.912 95.36 140.072C95.36 140.232 95.4 140.432 95.48 140.672C95.16 140.832 94.68 140.912 94.04 140.912C94.04 139.872 94.12 139.192 94.28 138.872C94.44 138.872 94.76 138.952 95.24 139.112V139.352ZM99.44 9.0324C99.52 9.1924 99.6 9.3124 99.68 9.3924C99.76 9.3924 99.84 9.4324 99.92 9.5124L100.16 9.7524H99.92C99.76 9.9124 99.64 9.9924 99.56 9.9924C99.48 9.9924 99.36 10.0724 99.2 10.2324V9.9924C99.04 9.9124 98.96 9.8724 98.96 9.8724C98.96 9.7924 98.88 9.6724 98.72 9.5124V10.2324H98V9.9924H97.76V9.2724C98 9.1924 98.24 9.15239 98.48 9.15239C98.72 9.07239 99.04 9.0324 99.44 9.0324ZM58.28 116.432C58.92 116.272 59.68 116.192 60.56 116.192C61.12 116.192 61.48 116.272 61.64 116.432C61.08 116.592 60.52 116.712 59.96 116.792C59.4 116.872 58.84 116.992 58.28 117.152V116.432ZM99.2 117.872C99.68 118.752 99.92 119.792 99.92 120.992H99.68V121.712H99.44C99.44 121.712 99.36 121.872 99.2 122.192H98.72V122.432C98.16 122.192 97.8 121.992 97.64 121.832C97.48 121.752 97.16 121.472 96.68 120.992H96.44C96.28 120.432 96.08 119.792 95.84 119.072C95.6 118.352 95.4 117.472 95.24 116.432H95V115.952H94.76V114.992L95.24 114.512H96.2V114.752H96.68V114.992C96.92 115.232 97.16 115.472 97.4 115.712C97.72 115.952 98 116.192 98.24 116.432V116.912C98.4 116.992 98.52 117.072 98.6 117.152C98.68 117.232 98.8 117.312 98.96 117.392V117.872H99.2ZM65.24 118.832C65.88 118.672 66.6 118.512 67.4 118.352C68.2 118.192 68.96 118.112 69.68 118.112V118.352H69.2C68.88 118.592 68.44 118.672 67.88 118.592C67.32 118.592 66.84 118.672 66.44 118.832V119.072H65.96V119.312H65V119.552C64.6 119.632 64.2 119.672 63.8 119.672C63.4 119.672 63 119.712 62.6 119.792C62.68 119.392 62.72 119.192 62.72 119.192C62.72 119.192 62.92 119.152 63.32 119.072V118.832H65.24ZM85.4 113.312C85.4 113.792 85.28 114.192 85.04 114.512C84.88 114.832 84.76 115.072 84.68 115.232L84.44 116.672L84.68 116.912H84.44V117.392C84.2 117.632 83.88 117.872 83.48 118.112C83.16 118.432 82.92 118.832 82.76 119.312L82.04 119.552V119.792H81.44V120.032H80.96V120.272H80.48V120.512H80V120.752H78.8V120.992C78.08 120.912 77.32 120.872 76.52 120.872C75.72 120.872 75.2 120.592 74.96 120.032H74.48V119.792H73.76C73.36 119.392 73 118.992 72.68 118.592C72.44 118.272 72 117.952 71.36 117.632V117.152H71.12V115.232H70.88C70.88 115.072 70.8 114.752 70.64 114.272H70.4C70.4 113.792 70.48 113.312 70.64 112.832H70.88C71.04 111.952 71.2 111.232 71.36 110.672C71.6 110.112 72 109.432 72.56 108.632L73.04 108.392C73.2 107.992 73.52 107.792 74 107.792C74.56 107.712 75.04 107.672 75.44 107.672V107.432H75.92C76.08 107.112 76.36 106.912 76.76 106.832C77.24 106.672 77.96 106.592 78.92 106.592C79.16 106.592 79.36 106.632 79.52 106.712C79.68 106.712 79.84 106.712 80 106.712V106.952H80.48C80.72 107.432 81.12 107.752 81.68 107.912C82.24 107.992 82.52 108.232 82.52 108.632H83V108.872C83.24 109.032 83.48 109.192 83.72 109.352C83.96 109.512 84.2 109.792 84.44 110.192H84.68C84.68 110.512 84.64 110.832 84.56 111.152C84.56 111.392 84.56 111.672 84.56 111.992C84.56 112.552 84.76 112.832 85.16 112.832V113.312H85.4ZM89.72 72.8724C90.04 73.4324 90.32 73.7524 90.56 73.8324C90.88 73.9124 91.16 74.4724 91.4 75.5124C91.08 75.5924 90.76 75.6324 90.44 75.6324C89.8 75.6324 89.36 75.3924 89.12 74.9124C88.96 74.4324 88.84 73.8324 88.76 73.1124C88.92 73.0324 89.04 72.9924 89.12 72.9924C89.2 72.9124 89.4 72.8724 89.72 72.8724ZM92.84 82.5924V82.3524H92.36V82.1124C91.96 82.1124 91.56 82.1124 91.16 82.1124C90.76 82.0324 90.36 81.9524 89.96 81.8724V82.1124H88.52V82.3524H88.04V82.5924C87.72 82.5924 87.44 82.5924 87.2 82.5924C86.96 82.5124 86.68 82.4324 86.36 82.3524V82.1124C86.04 81.7924 85.56 81.5524 84.92 81.3924V81.1524H83.24V80.9124H82.76C82.76 80.5924 82.44 80.3524 81.8 80.1924C81.16 80.0324 80.64 79.8724 80.24 79.7124C80.24 80.1124 80.48 80.4324 80.96 80.6724C81.44 80.8324 81.8 80.9924 82.04 81.1524H82.76V81.3924H83.24V81.6324H83.72V81.8724C84.36 82.1924 85 82.8324 85.64 83.7924C86.28 84.6724 86.6 85.3924 86.6 85.9524H86.84C86.92 86.1924 87 86.4324 87.08 86.6724C87.16 86.9124 87.24 87.1524 87.32 87.3924H87.56C87.64 87.9524 87.68 88.4724 87.68 88.9524C87.68 89.4324 87.72 89.9524 87.8 90.5124H88.04C88.04 90.6724 87.96 90.8324 87.8 90.9924C87.72 91.0724 87.68 91.2324 87.68 91.4724C87.68 91.4724 87.72 91.5524 87.8 91.7124H88.04V91.9524C88.12 92.0324 88.24 92.0724 88.4 92.0724C88.56 92.0724 88.64 92.0724 88.64 92.0724C88.72 91.9924 88.8 91.9524 88.88 91.9524L89.12 92.1924C89.28 92.5124 89.4 92.8324 89.48 93.1524C89.16 93.1524 88.76 93.2324 88.28 93.3924V93.1524H87.56C87.24 93.4724 87.04 94.0324 86.96 94.8324C86.88 95.5524 86.76 96.0724 86.6 96.3924H86.36V96.8724C86.2 97.0324 86.04 97.1124 85.88 97.1124V97.5924C85.72 97.7524 85.56 97.8324 85.4 97.8324V98.3124L84.92 98.7924H84.44C84.44 98.9524 84.36 99.1124 84.2 99.2724H83.72V99.5124H83.24V99.7524H82.52C82.52 99.9124 82.44 100.072 82.28 100.232H81.92V100.472C81.28 100.792 80.96 100.992 80.96 101.072C80.96 101.152 80.88 101.272 80.72 101.432V101.672H80V101.912H79.28V102.152H77.12V102.392L74.96 101.672H72.56V101.432C72.32 101.352 72.08 101.272 71.84 101.192C71.6 101.112 71.36 101.032 71.12 100.952V100.712C70.56 100.552 70.08 100.432 69.68 100.352C69.28 100.192 68.8 99.8324 68.24 99.2724H67.76V99.0324H67.28V98.7924H66.44V98.5524H65.72V98.3124H64.52C64.2 98.2324 63.72 98.1124 63.08 97.9524C62.44 97.7924 61.88 97.7124 61.4 97.7124C61 97.7124 60.48 97.8724 59.84 98.1924C59.28 98.5124 58.92 98.8724 58.76 99.2724V100.712H58.52C58.28 101.352 58.12 101.792 58.04 102.032C57.96 102.272 57.56 102.472 56.84 102.632V102.392C56.76 102.392 56.64 102.472 56.48 102.632C56.32 102.712 56.12 102.752 55.88 102.752C55.72 102.752 55.56 102.632 55.4 102.392C55.24 102.072 55.08 101.832 54.92 101.672H53C52.84 101.912 52.64 102.152 52.4 102.392C52.24 102.632 52.04 102.872 51.8 103.112H51.56V103.592L51.2 104.072H50.72C50.56 104.232 50.48 104.392 50.48 104.552H49.52V104.792C49.12 104.632 48.68 104.512 48.2 104.432C47.8 104.352 47.6 104.152 47.6 103.832H46.64C46.4 103.752 46.12 103.712 45.8 103.712C45.16 103.712 44.72 103.952 44.48 104.432C44.24 104.832 44 105.352 43.76 105.992H44V106.472C45.12 106.472 46 106.632 46.64 106.952C47.28 107.272 47.6 108.192 47.6 109.712C47.6 110.272 47.52 110.872 47.36 111.512C47.28 112.072 47.2 112.432 47.12 112.592H46.88V113.072C46.72 113.232 46.48 113.392 46.16 113.552V114.032C46 114.192 45.84 114.272 45.68 114.272V114.512C45.36 114.672 45.08 114.792 44.84 114.872C44.68 114.872 44.48 115.072 44.24 115.472H43.76V115.712H42.56C42.48 115.792 42.44 115.872 42.44 115.952C42.44 116.032 42.4 116.112 42.32 116.192H41.6C41.04 116.432 40.56 116.752 40.16 117.152C39.84 117.552 39.28 117.792 38.48 117.872C38.32 117.632 38.12 117.472 37.88 117.392C37.64 117.312 37.44 117.192 37.28 117.032C37.12 116.952 36.96 116.792 36.8 116.552C36.72 116.312 36.68 115.912 36.68 115.352C36.68 114.392 36.84 113.792 37.16 113.552C37.56 113.232 38 112.832 38.48 112.352V112.112H38.96C39.28 111.792 39.48 111.632 39.56 111.632C39.72 111.632 39.92 111.552 40.16 111.392V111.152C40.32 111.152 40.48 111.072 40.64 110.912V110.432C40.8 110.432 40.96 110.352 41.12 110.192V109.712H41.36C41.6 109.392 41.72 108.992 41.72 108.512C41.72 108.112 41.64 107.712 41.48 107.312C41.32 106.912 40.88 106.712 40.16 106.712V106.472C39.76 106.392 39.36 106.352 38.96 106.352C38.56 106.272 38.16 106.232 37.76 106.232V105.992H37.04V105.752H35.96V105.512C35.48 105.352 35.16 105.272 35 105.272V105.032C34.2 104.872 33.64 104.632 33.32 104.312C33 103.992 32.64 103.832 32.24 103.832C32.08 103.832 31.88 103.872 31.64 103.952C31.48 104.032 31.32 104.072 31.16 104.072V104.552C30.84 104.552 30.36 104.632 29.72 104.792V105.032C28.92 105.032 28.4 104.832 28.16 104.432C27.92 104.032 27.72 103.592 27.56 103.112C27.48 102.552 27.32 102.072 27.08 101.672C26.84 101.272 26.36 101.072 25.64 101.072C25.24 101.072 24.92 101.112 24.68 101.192H23.72C23.72 101.352 23.64 101.512 23.48 101.672H23C23 102.072 22.76 102.272 22.28 102.272C21.88 102.192 21.52 102.472 21.2 103.112L20.96 102.872C20.8 102.712 20.72 102.672 20.72 102.752C20.8 102.752 20.8 102.632 20.72 102.392C20.96 102.152 21.16 101.672 21.32 100.952C21.48 100.232 21.56 99.5524 21.56 98.9124C21.56 98.3524 21.28 97.7524 20.72 97.1124V96.8724H20.24L20 96.3924C19.6 96.3924 19.28 96.2724 19.04 96.0324C18.88 95.7924 18.72 95.5124 18.56 95.1924H18.08C17.52 94.6324 17.12 94.2324 16.88 93.9924C16.72 93.7524 16.16 93.6324 15.2 93.6324C15.04 93.7924 14.72 93.8724 14.24 93.8724C13.84 93.8724 13.44 93.8724 13.04 93.8724C12.88 93.4724 12.68 93.1124 12.44 92.7924C12.28 92.4724 12.16 92.0324 12.08 91.4724C12.48 91.0724 12.88 90.5924 13.28 90.0324C13.68 89.3924 13.92 88.8324 14 88.3524C13.68 88.1924 13.44 87.9924 13.28 87.7524C13.12 87.4324 12.88 87.1524 12.56 86.9124V86.6724H11.84V86.4324H11.12V86.1924C11.12 86.1924 10.96 86.1124 10.64 85.9524V85.4724C10.64 85.4724 10.48 85.3924 10.16 85.2324V84.5124C10 84.4324 9.84 84.3924 9.68 84.3924C9.52 84.3924 9.36 84.3524 9.2 84.2724C9.2 84.1924 9.2 84.1124 9.2 84.0324C9.28 83.9524 9.32 83.8724 9.32 83.7924C9.32 83.5524 9.24 83.3524 9.08 83.1924C9 83.0324 8.88 82.8324 8.72 82.5924H8.48C8.48 82.2724 8.24 81.9524 7.76 81.6324V81.1524C7.76 81.1524 7.6 81.0724 7.28 80.9124V80.4324C6.64 79.9524 6.2 79.5524 5.96 79.2324V79.1124C5.4 78.9524 4.8 78.7924 4.16 78.6324C3.44 78.4724 3.08 78.2324 3.08 77.9124H2.6C2.44 77.5924 2.36 77.4324 2.36 77.4324C1.48 76.8724 0.96 76.4724 0.8 76.2324C0.56 75.9124 0.44 75.4324 0.44 74.7924C0.44 73.6724 0.6 72.9124 0.92 72.5124C1.16 72.1124 1.4 71.5924 1.64 70.9524H1.88C1.88 70.7924 1.96 70.6324 2.12 70.4724H2.84C2.84 70.3124 2.92 70.1524 3.08 69.9924H3.32C3.32 69.4324 3.76 68.7124 4.64 67.8324C5.52 66.9524 6.4 66.2324 7.28 65.6724V65.1924C7.44 65.1924 7.6 65.1124 7.76 64.9524V64.4724L9.2 63.3924V62.6724C9.68 62.3524 10 62.1124 10.16 61.9524V61.7124H10.64V59.3124C10.64 59.1524 10.6 59.1124 10.52 59.1924C10.44 59.2724 10.4 59.2324 10.4 59.0724H10.64C10.8 58.4324 11.04 58.0324 11.36 57.8724C11.68 57.7124 12.08 57.5524 12.56 57.3924H14V57.1524H14.48C14.72 56.6724 14.92 56.3924 15.08 56.3124C15.32 56.2324 15.48 56.1924 15.56 56.1924C15.72 56.1124 15.84 56.0324 15.92 55.9524C16.08 55.7924 16.24 55.4724 16.4 54.9924H16.88C16.96 54.6724 17 54.4724 17 54.3924C17.08 54.3124 17.2 54.1924 17.36 54.0324H17.6V52.8324H17.36C17.2 52.3524 17.12 51.9524 17.12 51.6324C17.12 50.7524 17.2 50.2724 17.36 50.1924C17.6 50.0324 17.92 49.6324 18.32 48.9924C18.64 49.0724 18.92 49.1524 19.16 49.2324C19.48 49.2324 19.84 49.2324 20.24 49.2324V49.4724C20.64 49.6324 20.96 49.7524 21.2 49.8324C21.44 49.9124 21.8 49.9524 22.28 49.9524V49.7124C22.84 49.7124 23.28 49.5924 23.6 49.3524C23.92 49.1124 24.28 48.7924 24.68 48.3924V48.1524C24.84 47.9924 25.08 47.8324 25.4 47.6724V47.1924H25.64V46.7124C25.88 46.5524 26.08 46.3524 26.24 46.1124C26.48 45.8724 26.68 45.6724 26.84 45.5124H27.8V45.2724H28.28V45.0324H31.64C31.88 45.1124 32.24 45.2324 32.72 45.3924C33.2 45.5524 33.72 45.6324 34.28 45.6324C34.6 45.6324 34.84 45.5924 35 45.5124V45.2724C35.24 45.1124 35.48 45.0324 35.72 45.0324C35.96 44.9524 36.16 44.8724 36.32 44.7924V44.5524C37.36 44.1524 37.92 43.9124 38 43.8324C38.16 43.6724 38.4 43.5124 38.72 43.3524L38.96 42.8724H39.2C39.36 42.7124 39.44 42.5524 39.44 42.3924H39.92V42.1524C40.32 41.9124 40.64 41.7524 40.88 41.6724C41.2 41.5124 41.44 41.0324 41.6 40.2324H42.08C42.24 39.8324 42.44 39.5124 42.68 39.2724C43 38.9524 43.28 38.6324 43.52 38.3124H43.76V37.8324C44 37.5124 44.2 37.3524 44.36 37.3524C44.6 37.2724 44.8 36.9524 44.96 36.3924H45.44C45.68 35.9924 45.88 35.7524 46.04 35.6724C46.2 35.5924 46.48 35.4324 46.88 35.1924L47.12 34.7124H47.6C48.08 34.0724 48.48 33.6324 48.8 33.3924H49.28C49.44 33.0724 49.76 32.6724 50.24 32.1924H50.72C50.88 31.8724 51.04 31.6324 51.2 31.4724H51.8C51.96 31.1524 52.04 30.9924 52.04 30.9924H52.52V30.7524C53.08 30.1924 53.44 29.7124 53.6 29.3124C53.76 28.8324 53.88 28.4324 53.96 28.1124C54.12 27.7124 54.32 27.4324 54.56 27.2724C54.88 27.0324 55.4 26.9124 56.12 26.9124C56.28 27.0724 56.44 27.3124 56.6 27.6324H57.08C57.72 28.2724 58.16 28.6724 58.4 28.8324C58.64 28.9924 59.2 29.0724 60.08 29.0724C60.56 29.0724 61 29.0724 61.4 29.0724C61.8 29.0724 62.12 28.9924 62.36 28.8324V28.5924C62.6 28.4324 62.76 28.3924 62.84 28.4724C62.92 28.4724 63.16 28.2724 63.56 27.8724H64.28C64.28 27.4724 64.52 27.1924 65 27.0324C65.56 26.8724 66.12 26.7524 66.68 26.6724C67.08 27.1524 67.84 27.7524 68.96 28.4724C70.16 29.1124 71.4 29.4324 72.68 29.4324C73.24 29.4324 73.76 29.3524 74.24 29.1924C74.8 28.9524 75.52 28.8324 76.4 28.8324C76.8 29.7124 77.52 30.2724 78.56 30.5124V30.9924C78.8 31.1524 79.16 31.5524 79.64 32.1924C80.2 32.8324 80.64 33.4324 80.96 33.9924H81.44C81.44 34.1524 81.52 34.3124 81.68 34.4724H82.28C82.44 34.7924 82.52 34.9524 82.52 34.9524L83.96 35.1924V35.4324H84.44V35.6724H85.4V35.9124C85.72 36.2324 86.2 36.6324 86.84 37.1124V37.5924C87 37.7524 87.16 37.8324 87.32 37.8324V39.5124C87.48 39.6724 87.8 40.0724 88.28 40.7124C88.76 41.2724 89.08 41.7524 89.24 42.1524H90.2C90.36 42.3924 90.44 42.5524 90.44 42.6324C90.52 42.6324 90.6 42.7924 90.68 43.1124H91.16C91.08 43.8324 91.04 44.5924 91.04 45.3924C91.04 46.1124 91 46.8724 90.92 47.6724H91.16V48.1524C91.32 48.1524 91.48 48.2324 91.64 48.3924V48.8724C91.72 48.8724 91.8 48.9124 91.88 48.9924C91.96 48.9924 92.04 48.9924 92.12 48.9924V49.4724C92.28 49.6324 92.44 49.7124 92.6 49.7124V50.4324H92.84C92.76 51.0724 92.68 51.7124 92.6 52.3524C92.6 52.9124 92.36 53.3124 91.88 53.5524V54.0324H91.64V54.7524H91.4V55.2324H91.16C91.16 55.5524 91.28 55.8324 91.52 56.0724C91.84 56.3124 92 57.1524 92 58.5924C92 58.7524 91.96 58.9124 91.88 59.0724C91.88 59.1524 91.88 59.2324 91.88 59.3124H91.64V60.0324H91.4V60.5124H91.16V60.9924C90.76 61.3124 90.44 61.5924 90.2 61.8324C89.96 61.9924 89.72 62.4324 89.48 63.1524H89.24V65.6724C89.08 65.8324 88.92 65.9124 88.76 65.9124V66.6324H88.52C88.12 67.5124 87.76 68.1524 87.44 68.5524C87.12 68.9524 86.6 69.5124 85.88 70.2324H85.64C85.64 70.7124 85.4 71.0324 84.92 71.1924V71.6724H84.68C84.36 72.3124 84 72.6324 83.6 72.6324C83.28 72.6324 82.92 72.9524 82.52 73.5924H81.92L80 75.5124V75.9924H79.76C79.36 76.3924 79.12 76.7924 79.04 77.1924H79.28C79.44 77.5924 79.72 77.8724 80.12 78.0324C80.6 78.1924 81.04 78.3924 81.44 78.6324H81.92V78.8724H82.28C82.68 79.2724 83.08 79.4724 83.48 79.4724V79.7124H84.2C84.36 80.0324 84.44 80.1924 84.44 80.1924H84.92V80.4324C85.24 80.4324 85.64 80.3524 86.12 80.1924V79.9524C86.52 80.0324 86.96 80.1124 87.44 80.1924C87.92 80.1924 88.36 80.1924 88.76 80.1924V79.9524H89.96L90.2 79.4724H90.92V79.2324C91.32 79.2324 91.76 79.3124 92.24 79.4724C92.8 79.5524 93.24 79.6324 93.56 79.7124H94.76V79.9524H95.48C95.64 80.2724 95.8 80.5124 95.96 80.6724H96.44L97.52 82.1124H97.76V83.0724C97.44 83.2324 97.16 83.3524 96.92 83.4324C96.76 83.5124 96.44 83.5524 95.96 83.5524C95.72 83.2324 95.52 83.1124 95.36 83.1924C95.28 83.2724 95.16 83.2324 95 83.0724V82.8324H94.52V82.5924H92.84Z" fill="#FF9FC5"/>
</svg>
