<svg width="104" height="173" viewBox="0 0 104 173" fill="none" xmlns="http://www.w3.org/2000/svg">
<path d="M61.7198 41.4724C61.6398 41.3124 61.5598 41.1124 61.4798 40.8724C61.3998 40.6324 61.3598 40.3124 61.3598 39.9124C61.3598 39.5124 61.5598 39.0324 61.9598 38.4724C62.2798 37.8324 62.5198 37.3124 62.6798 36.9124H63.1598C63.3198 36.3524 63.5998 35.9124 63.9998 35.5924C64.3198 35.2724 64.6798 34.9124 65.0798 34.5124L65.3198 34.0324H65.7998V33.7924C65.9598 33.6324 66.1198 33.5124 66.2798 33.4324C66.3598 33.3524 66.5998 33.2324 66.9998 33.0724V32.5924C67.4798 32.5124 67.7998 32.3924 67.9598 32.2324V31.9924C68.1198 31.8324 68.3198 31.7524 68.5598 31.7524C68.7198 31.6724 68.7998 31.5124 68.7998 31.2724H69.7598V31.0324C69.9198 30.9524 70.0798 30.9124 70.2398 30.9124C70.9598 30.9124 71.3998 31.1124 71.5598 31.5124C71.6398 31.9124 71.6798 32.4324 71.6798 33.0724C71.4398 33.3124 71.1998 33.5524 70.9598 33.7924C70.6398 34.0324 70.3198 34.2724 69.9998 34.5124V34.9924C69.5198 35.4724 69.1198 35.9524 68.7998 36.4324C68.4798 36.8324 68.1998 37.1524 67.9598 37.3924V37.8724C67.3998 38.1124 66.9198 38.5924 66.5198 39.3124H66.0398L65.7998 39.7924H65.3198C65.1598 39.9524 65.0798 40.1124 65.0798 40.2724H64.3598C63.8798 40.7524 63.4798 41.0324 63.1598 41.1124C62.8398 41.1924 62.3598 41.3124 61.7198 41.4724ZM82.4798 171.912C82.7198 171.992 82.8398 171.992 82.8398 171.912C82.7598 171.912 82.7998 171.992 82.9598 172.152H82.4798V171.912ZM90.9998 156.912C90.8398 156.752 90.7998 156.672 90.8798 156.672C90.8798 156.752 90.8398 156.672 90.7598 156.432H90.9998V156.912ZM58.5998 57.6724C58.5198 57.5124 58.4398 57.4324 58.3598 57.4324C58.2798 57.4324 58.2398 57.3924 58.2398 57.3124C58.2398 57.3124 58.2798 57.2724 58.3598 57.1924V56.9524H58.5998V57.1924H58.8398C58.7598 57.2724 58.7198 57.3524 58.7198 57.4324C58.7198 57.5124 58.6798 57.5924 58.5998 57.6724ZM85.9598 37.3924C85.7998 37.3924 85.6798 37.4324 85.5998 37.5124C85.5198 37.5124 85.4398 37.5124 85.3598 37.5124C85.2798 37.5124 85.1998 37.5124 85.1198 37.5124C84.9598 37.4324 84.7598 37.3924 84.5198 37.3924C84.5998 36.9924 84.6798 36.6724 84.7598 36.4324C85.3998 36.5924 85.7998 36.6724 85.9598 36.6724V37.3924ZM30.2798 154.992C30.4398 155.232 30.6398 155.872 30.8798 156.912C31.0398 157.952 31.1198 158.792 31.1198 159.432C31.1198 160.072 30.9998 160.472 30.7598 160.632C30.5198 160.792 30.1998 160.912 29.7998 160.992C29.5598 160.752 29.0798 160.152 28.3598 159.192C27.5598 158.312 27.1598 157.152 27.1598 155.712C27.1598 155.152 27.2798 154.712 27.5198 154.392C27.7598 154.072 28.2798 153.912 29.0798 153.912C29.2398 154.072 29.3998 154.232 29.5598 154.392C29.7198 154.632 29.8798 154.832 30.0398 154.992H30.2798ZM17.4398 137.472C17.5998 137.632 17.6798 137.672 17.6798 137.592C17.5998 137.592 17.5998 137.712 17.6798 137.952C17.5198 137.952 17.2798 138.032 16.9598 138.192C16.9598 137.872 16.9998 137.672 17.0798 137.592C17.0798 137.512 17.1198 137.392 17.1998 137.232C17.3598 137.312 17.3998 137.312 17.3198 137.232C17.2398 137.232 17.2798 137.312 17.4398 137.472ZM8.31978 141.192H9.27978V142.152H8.79978V142.392C8.63978 142.392 8.39978 142.312 8.07978 142.152V141.432H8.31978V141.192ZM25.2398 143.592H25.4798V144.552H24.5198V143.592C24.6798 143.592 24.9198 143.512 25.2398 143.352V143.592ZM59.3198 163.632C59.4798 163.712 59.6398 163.752 59.7998 163.752C59.9598 163.752 60.1198 163.792 60.2798 163.872L59.5598 164.592C59.1598 164.592 58.5198 164.512 57.6398 164.352C56.7598 164.272 56.3198 164.152 56.3198 163.992C56.3198 163.912 56.4798 163.752 56.7998 163.512C57.1198 163.352 57.7998 163.272 58.8398 163.272C59.0798 163.272 59.2398 163.312 59.3198 163.392V163.632ZM6.51978 1.0324C6.35978 1.1924 6.23978 1.3124 6.15978 1.3924C5.99978 1.3924 5.79978 1.4324 5.55978 1.5124V1.2724H5.79978C5.95978 0.872401 6.11978 0.632401 6.27978 0.552399C6.35978 0.392399 6.67978 0.312399 7.23978 0.312399C7.07978 0.6324 6.99978 0.7924 6.99978 0.7924C6.99978 0.7924 6.83978 0.8724 6.51978 1.0324ZM9.03978 33.3124C8.87978 33.1524 8.83978 33.0724 8.91978 33.0724C8.99978 33.0724 8.95978 32.9924 8.79978 32.8324H9.03978V33.3124ZM9.03978 33.0724C9.19978 32.9924 9.27978 32.9124 9.27978 32.8324H9.03978C8.95978 32.6724 8.91978 32.5124 8.91978 32.3524C8.91978 32.1924 8.87978 31.9924 8.79978 31.7524C9.11978 31.5924 9.59978 31.5124 10.2398 31.5124C10.2398 32.5524 10.1598 33.2324 9.99978 33.5524C9.83978 33.5524 9.51978 33.4724 9.03978 33.3124V33.0724ZM4.83978 163.392C4.75978 163.232 4.67978 163.112 4.59978 163.032C4.51978 163.032 4.43978 162.992 4.35978 162.912L4.11978 162.672H4.35978C4.51978 162.512 4.63978 162.432 4.71978 162.432C4.79978 162.432 4.91978 162.352 5.07978 162.192V162.432C5.23978 162.512 5.31978 162.552 5.31978 162.552C5.31978 162.632 5.39978 162.752 5.55978 162.912V162.192H6.27978V162.432H6.51978V163.152C6.27978 163.232 6.03978 163.272 5.79978 163.272C5.55978 163.352 5.23978 163.392 4.83978 163.392ZM45.9998 55.9924C45.3598 56.1524 44.5998 56.2324 43.7198 56.2324C43.1598 56.2324 42.7998 56.1524 42.6398 55.9924C43.1998 55.8324 43.7598 55.7124 44.3198 55.6324C44.8798 55.5524 45.4398 55.4324 45.9998 55.2724V55.9924ZM5.07978 54.5524C4.59978 53.6724 4.35978 52.6324 4.35978 51.4324H4.59978V50.7124H4.83978C4.83978 50.7124 4.91978 50.5524 5.07978 50.2324H5.55978V49.9924C6.11978 50.2324 6.47978 50.4324 6.63978 50.5924C6.79978 50.6724 7.11978 50.9524 7.59978 51.4324H7.83978C7.99978 51.9924 8.19978 52.6324 8.43978 53.3524C8.67978 54.0724 8.87978 54.9524 9.03978 55.9924H9.27978V56.4724H9.51978V57.4324L9.03978 57.9124H8.07978V57.6724H7.59978V57.4324C7.35978 57.1924 7.11978 56.9524 6.87978 56.7124C6.55978 56.4724 6.27978 56.2324 6.03978 55.9924V55.5124C5.87978 55.4324 5.75978 55.3524 5.67978 55.2724C5.59978 55.1924 5.47978 55.1124 5.31978 55.0324V54.5524H5.07978ZM39.0398 53.5924C38.3998 53.7524 37.6798 53.9124 36.8798 54.0724C36.0798 54.2324 35.3198 54.3124 34.5998 54.3124V54.0724H35.0798C35.3998 53.8324 35.8398 53.7524 36.3998 53.8324C36.9598 53.8324 37.4398 53.7524 37.8398 53.5924V53.3524H38.3198V53.1124H39.2798V52.8724C39.6798 52.7924 40.0798 52.7524 40.4798 52.7524C40.8798 52.7524 41.2798 52.7124 41.6798 52.6324C41.5998 53.0324 41.5598 53.2324 41.5598 53.2324C41.5598 53.2324 41.3598 53.2724 40.9598 53.3524V53.5924H39.0398ZM18.8798 59.1124C18.8798 58.6324 18.9998 58.2324 19.2398 57.9124C19.3998 57.5924 19.5198 57.3524 19.5998 57.1924L19.8398 55.7524L19.5998 55.5124H19.8398V55.0324C20.0798 54.7924 20.3998 54.5524 20.7998 54.3124C21.1198 53.9924 21.3598 53.5924 21.5198 53.1124L22.2398 52.8724V52.6324H22.8398V52.3924H23.3198V52.1524H23.7998V51.9124H24.2798V51.6724H25.4798V51.4324C26.1998 51.5124 26.9598 51.5524 27.7598 51.5524C28.5598 51.5524 29.0798 51.8324 29.3198 52.3924H29.7998V52.6324H30.5198C30.9198 53.0324 31.2798 53.4324 31.5998 53.8324C31.8398 54.1524 32.2798 54.4724 32.9198 54.7924V55.2724H33.1598V57.1924H33.3998C33.3998 57.3524 33.4798 57.6724 33.6398 58.1524H33.8798C33.8798 58.6324 33.7998 59.1124 33.6398 59.5924H33.3998C33.2398 60.4724 33.0798 61.1924 32.9198 61.7524C32.6798 62.3124 32.2798 62.9924 31.7198 63.7924L31.2398 64.0324C31.0798 64.4324 30.7598 64.6324 30.2798 64.6324C29.7198 64.7124 29.2398 64.7524 28.8398 64.7524V64.9924H28.3598C28.1998 65.3124 27.9198 65.5124 27.5198 65.5924C27.0398 65.7524 26.3198 65.8324 25.3598 65.8324C25.1198 65.8324 24.9198 65.7924 24.7598 65.7124C24.5998 65.7124 24.4398 65.7124 24.2798 65.7124V65.4724H23.7998C23.5598 64.9924 23.1598 64.6724 22.5998 64.5124C22.0398 64.4324 21.7598 64.1924 21.7598 63.7924H21.2798V63.5524C21.0398 63.3924 20.7998 63.2324 20.5598 63.0724C20.3198 62.9124 20.0798 62.6324 19.8398 62.2324H19.5998C19.5998 61.9124 19.6398 61.5924 19.7198 61.2724C19.7198 61.0324 19.7198 60.7524 19.7198 60.4324C19.7198 59.8724 19.5198 59.5924 19.1198 59.5924V59.1124H18.8798ZM14.5598 99.5524C14.2398 98.9924 13.9598 98.6724 13.7198 98.5924C13.3998 98.5124 13.1198 97.9524 12.8798 96.9124C13.1998 96.8324 13.5198 96.7924 13.8398 96.7924C14.4798 96.7924 14.9198 97.0324 15.1598 97.5124C15.3198 97.9924 15.4398 98.5924 15.5198 99.3124C15.3598 99.3924 15.2398 99.4324 15.1598 99.4324C15.0798 99.5124 14.8798 99.5524 14.5598 99.5524ZM11.4398 89.8324V90.0724H11.9198V90.3124C12.3198 90.3124 12.7198 90.3124 13.1198 90.3124C13.5198 90.3924 13.9198 90.4724 14.3198 90.5524V90.3124H15.7598V90.0724H16.2398V89.8324C16.5598 89.8324 16.8398 89.8324 17.0798 89.8324C17.3198 89.9124 17.5998 89.9924 17.9198 90.0724V90.3124C18.2398 90.6324 18.7198 90.8724 19.3598 91.0324V91.2724H21.0398V91.5124H21.5198C21.5198 91.8324 21.8398 92.0724 22.4798 92.2324C23.1198 92.3924 23.6398 92.5524 24.0398 92.7124C24.0398 92.3124 23.7998 91.9924 23.3198 91.7524C22.8398 91.5924 22.4798 91.4324 22.2398 91.2724H21.5198V91.0324H21.0398V90.7924H20.5598V90.5524C19.9198 90.2324 19.2798 89.5924 18.6398 88.6324C17.9998 87.7524 17.6798 87.0324 17.6798 86.4724H17.4398C17.3598 86.2324 17.2798 85.9924 17.1998 85.7524C17.1198 85.5124 17.0398 85.2724 16.9598 85.0324H16.7198C16.6398 84.4724 16.5998 83.9524 16.5998 83.4724C16.5998 82.9924 16.5598 82.4724 16.4798 81.9124H16.2398C16.2398 81.7524 16.3198 81.5924 16.4798 81.4324C16.5598 81.3524 16.5998 81.1924 16.5998 80.9524C16.5998 80.9524 16.5598 80.8724 16.4798 80.7124H16.2398V80.4724C16.1598 80.3924 16.0398 80.3524 15.8798 80.3524C15.7198 80.3524 15.6398 80.3524 15.6398 80.3524C15.5598 80.4324 15.4798 80.4724 15.3998 80.4724L15.1598 80.2324C14.9998 79.9124 14.8798 79.5924 14.7998 79.2724C15.1198 79.2724 15.5198 79.1924 15.9998 79.0324V79.2724H16.7198C17.0398 78.9524 17.2398 78.3924 17.3198 77.5924C17.3998 76.8724 17.5198 76.3524 17.6798 76.0324H17.9198V75.5524C18.0798 75.3924 18.2398 75.3124 18.3998 75.3124V74.8324C18.5598 74.6724 18.7198 74.5924 18.8798 74.5924V74.1124L19.3598 73.6324H19.8398C19.8398 73.4724 19.9198 73.3124 20.0798 73.1524H20.5598V72.9124H21.0398V72.6724H21.7598C21.7598 72.5124 21.8398 72.3524 21.9998 72.1924H22.3598V71.9524C22.9998 71.6324 23.3198 71.4324 23.3198 71.3524C23.3198 71.2724 23.3998 71.1524 23.5598 70.9924V70.7524H24.2798V70.5124H24.9998V70.2724H27.1598V70.0324L29.3198 70.7524H31.7198V70.9924C31.9598 71.0724 32.1998 71.1524 32.4398 71.2324C32.6798 71.3124 32.9198 71.3924 33.1598 71.4724V71.7124C33.7198 71.8724 34.1998 71.9924 34.5998 72.0724C34.9998 72.2324 35.4798 72.5924 36.0398 73.1524H36.5198V73.3924H36.9998L36.9998 73.6324H37.8398V73.8724H38.5598V74.1124H39.7598C40.0798 74.1924 40.5598 74.3124 41.1998 74.4724C41.8398 74.6324 42.3998 74.7124 42.8798 74.7124C43.2798 74.7124 43.7998 74.5524 44.4398 74.2324C44.9998 73.9124 45.3598 73.5524 45.5198 73.1524V71.7124H45.7598C45.9998 71.0724 46.1598 70.6324 46.2398 70.3924C46.3198 70.1524 46.7198 69.9524 47.4398 69.7924V70.0324C47.5198 70.0324 47.6398 69.9524 47.7998 69.7924C47.9598 69.7124 48.1598 69.6724 48.3998 69.6724C48.5598 69.6724 48.7198 69.7924 48.8798 70.0324C49.0398 70.3524 49.1998 70.5924 49.3598 70.7524H51.2798C51.4398 70.5124 51.6398 70.2724 51.8798 70.0324C52.0398 69.7924 52.2398 69.5524 52.4798 69.3124H52.7198V68.8324L53.0798 68.3524H53.5598C53.7198 68.1924 53.7998 68.0324 53.7998 67.8724H54.7598V67.6324C55.1598 67.7924 55.5998 67.9124 56.0798 67.9924C56.4798 68.0724 56.6798 68.2724 56.6798 68.5924H57.6398C57.8798 68.6724 58.1598 68.7124 58.4798 68.7124C59.1198 68.7124 59.5598 68.4724 59.7998 67.9924C60.0398 67.5924 60.2798 67.0724 60.5198 66.4324H60.2798V65.9524C59.1598 65.9524 58.2798 65.7924 57.6398 65.4724C56.9998 65.1524 56.6798 64.2324 56.6798 62.7124C56.6798 62.1524 56.7598 61.5524 56.9198 60.9124C56.9998 60.3524 57.0798 59.9924 57.1598 59.8324H57.3998V59.3524C57.5598 59.1924 57.7998 59.0324 58.1198 58.8724V58.3924C58.2798 58.2324 58.4398 58.1524 58.5998 58.1524V57.9124C58.9198 57.7524 59.1998 57.6324 59.4398 57.5524C59.5998 57.5524 59.7998 57.3524 60.0398 56.9524H60.5198V56.7124H61.7198C61.7998 56.6324 61.8398 56.5524 61.8398 56.4724C61.8398 56.3924 61.8798 56.3124 61.9598 56.2324H62.6798C63.2398 55.9924 63.7198 55.6724 64.1198 55.2724C64.4398 54.8724 64.9998 54.6324 65.7998 54.5524C65.9598 54.7924 66.1598 54.9524 66.3998 55.0324C66.6398 55.1124 66.8398 55.2324 66.9998 55.3924C67.1598 55.4724 67.3198 55.6324 67.4798 55.8724C67.5598 56.1124 67.5998 56.5124 67.5998 57.0724C67.5998 58.0324 67.4398 58.6324 67.1198 58.8724C66.7198 59.1924 66.2798 59.5924 65.7998 60.0724V60.3124H65.3198C64.9998 60.6324 64.7998 60.7924 64.7198 60.7924C64.5598 60.7924 64.3598 60.8724 64.1198 61.0324V61.2724C63.9598 61.2724 63.7998 61.3524 63.6398 61.5124V61.9924C63.4798 61.9924 63.3198 62.0724 63.1598 62.2324V62.7124H62.9198C62.6798 63.0324 62.5598 63.4324 62.5598 63.9124C62.5598 64.3124 62.6398 64.7124 62.7998 65.1124C62.9598 65.5124 63.3998 65.7124 64.1198 65.7124V65.9524C64.5198 66.0324 64.9198 66.0724 65.3198 66.0724C65.7198 66.1524 66.1198 66.1924 66.5198 66.1924V66.4324H67.2398V66.6724H68.3198V66.9124C68.7998 67.0724 69.1198 67.1524 69.2798 67.1524V67.3924C70.0798 67.5524 70.6398 67.7924 70.9598 68.1124C71.2798 68.4324 71.6398 68.5924 72.0398 68.5924C72.1998 68.5924 72.3998 68.5524 72.6398 68.4724C72.7998 68.3924 72.9598 68.3524 73.1198 68.3524V67.8724C73.4398 67.8724 73.9198 67.7924 74.5598 67.6324V67.3924C75.3598 67.3924 75.8798 67.5924 76.1198 67.9924C76.3598 68.3924 76.5598 68.8324 76.7198 69.3124C76.7998 69.8724 76.9598 70.3524 77.1998 70.7524C77.4398 71.1524 77.9198 71.3524 78.6398 71.3524C79.0398 71.3524 79.3598 71.3124 79.5998 71.2324H80.5598C80.5598 71.0724 80.6398 70.9124 80.7998 70.7524H81.2798C81.2798 70.3524 81.5198 70.1524 81.9998 70.1524C82.3998 70.2324 82.7598 69.9524 83.0798 69.3124L83.3198 69.5524C83.4798 69.7124 83.5598 69.7524 83.5598 69.6724C83.4798 69.6724 83.4798 69.7924 83.5598 70.0324C83.3198 70.2724 83.1198 70.7524 82.9598 71.4724C82.7998 72.1924 82.7198 72.8724 82.7198 73.5124C82.7198 74.0724 82.9998 74.6724 83.5598 75.3124V75.5524H84.0398L84.2798 76.0324C84.6798 76.0324 84.9998 76.1524 85.2398 76.3924C85.3998 76.6324 85.5598 76.9124 85.7198 77.2324H86.1998C86.7598 77.7924 87.1598 78.1924 87.3998 78.4324C87.5598 78.6724 88.1198 78.7924 89.0798 78.7924C89.2398 78.6324 89.5598 78.5524 90.0398 78.5524C90.4398 78.5524 90.8398 78.5524 91.2398 78.5524C91.3998 78.9524 91.5998 79.3124 91.8398 79.6324C91.9998 79.9524 92.1198 80.3924 92.1998 80.9524C91.7998 81.3524 91.3998 81.8324 90.9998 82.3924C90.5998 83.0324 90.3598 83.5924 90.2798 84.0724C90.5998 84.2324 90.8398 84.4324 90.9998 84.6724C91.1598 84.9924 91.3998 85.2724 91.7198 85.5124V85.7524H92.4398V85.9924H93.1598V86.2324C93.1598 86.2324 93.3198 86.3124 93.6398 86.4724V86.9524C93.6398 86.9524 93.7998 87.0324 94.1198 87.1924V87.9124C94.2798 87.9924 94.4398 88.0324 94.5998 88.0324C94.7598 88.0324 94.9198 88.0724 95.0798 88.1524C95.0798 88.2324 95.0798 88.3124 95.0798 88.3924C94.9998 88.4724 94.9598 88.5524 94.9598 88.6324C94.9598 88.8724 95.0398 89.0724 95.1998 89.2324C95.2798 89.3924 95.3998 89.5924 95.5598 89.8324H95.7998C95.7998 90.1524 96.0398 90.4724 96.5198 90.7924V91.2724C96.5198 91.2724 96.6798 91.3524 96.9998 91.5124V91.9924C97.6398 92.4724 98.0798 92.8724 98.3198 93.1924V93.3124C98.8798 93.4724 99.4798 93.6324 100.12 93.7924C100.84 93.9524 101.2 94.1924 101.2 94.5124H101.68C101.84 94.8324 101.92 94.9924 101.92 94.9924C102.8 95.5524 103.32 95.9524 103.48 96.1924C103.72 96.5124 103.84 96.9924 103.84 97.6324C103.84 98.7524 103.68 99.5124 103.36 99.9124C103.12 100.312 102.88 100.832 102.64 101.472H102.4C102.4 101.632 102.32 101.792 102.16 101.952H101.44C101.44 102.112 101.36 102.272 101.2 102.432H100.96C100.96 102.992 100.52 103.712 99.6398 104.592C98.7598 105.472 97.8798 106.192 96.9998 106.752V107.232C96.8398 107.232 96.6798 107.312 96.5198 107.472V107.952L95.0798 109.032V109.752C94.5998 110.072 94.2798 110.312 94.1198 110.472V110.712H93.6398V113.112C93.6398 113.272 93.6798 113.312 93.7598 113.232C93.8398 113.152 93.8798 113.192 93.8798 113.352H93.6398C93.4798 113.992 93.2398 114.392 92.9198 114.552C92.5998 114.712 92.1998 114.872 91.7198 115.032H90.2798V115.272H89.7998C89.5598 115.752 89.3598 116.032 89.1998 116.112C88.9598 116.192 88.7998 116.232 88.7198 116.232C88.5598 116.312 88.4398 116.392 88.3598 116.472C88.1998 116.632 88.0398 116.952 87.8798 117.432H87.3998C87.3198 117.752 87.2798 117.952 87.2798 118.032C87.1998 118.112 87.0798 118.232 86.9198 118.392H86.6798V119.592H86.9198C87.0798 120.072 87.1598 120.472 87.1598 120.792C87.1598 121.672 87.0798 122.152 86.9198 122.232C86.6798 122.392 86.3598 122.792 85.9598 123.432C85.6398 123.352 85.3598 123.272 85.1198 123.192C84.7998 123.192 84.4398 123.192 84.0398 123.192V122.952C83.6398 122.792 83.3198 122.672 83.0798 122.592C82.8398 122.512 82.4798 122.472 81.9998 122.472V122.712C81.4398 122.712 80.9998 122.832 80.6798 123.072C80.3598 123.312 79.9998 123.632 79.5998 124.032V124.272C79.4398 124.432 79.1998 124.592 78.8798 124.752V125.232H78.6398V125.712C78.3998 125.872 78.1998 126.072 78.0398 126.312C77.7998 126.552 77.5998 126.752 77.4398 126.912H76.4798V127.152H75.9998V127.392H72.6398C72.3998 127.312 72.0398 127.192 71.5598 127.032C71.0798 126.872 70.5598 126.792 69.9998 126.792C69.6798 126.792 69.4398 126.832 69.2798 126.912V127.152C69.0398 127.312 68.7998 127.392 68.5598 127.392C68.3198 127.472 68.1198 127.552 67.9598 127.632V127.872C66.9198 128.272 66.3598 128.512 66.2798 128.592C66.1198 128.752 65.8798 128.912 65.5598 129.072L65.3198 129.552H65.0798C64.9198 129.712 64.8398 129.872 64.8398 130.032H64.3598V130.272C63.9598 130.512 63.6398 130.672 63.3998 130.752C63.0798 130.912 62.8398 131.392 62.6798 132.192H62.1998C62.0398 132.592 61.8398 132.912 61.5998 133.152C61.2798 133.472 60.9998 133.792 60.7598 134.112H60.5198V134.592C60.2798 134.912 60.0798 135.072 59.9198 135.072C59.6798 135.152 59.4798 135.472 59.3198 136.032H58.8398C58.5998 136.432 58.3998 136.672 58.2398 136.752C58.0798 136.832 57.7998 136.992 57.3998 137.232L57.1598 137.712H56.6798C56.1998 138.352 55.7998 138.792 55.4798 139.032H54.9998C54.8398 139.352 54.5198 139.752 54.0398 140.232H53.5598C53.3998 140.552 53.2398 140.792 53.0798 140.952H52.4798C52.3198 141.272 52.2398 141.432 52.2398 141.432H51.7598V141.672C51.1998 142.232 50.8398 142.712 50.6798 143.112C50.5198 143.592 50.3998 143.992 50.3198 144.312C50.1598 144.712 49.9598 144.992 49.7198 145.152C49.3998 145.392 48.8798 145.512 48.1598 145.512C47.9998 145.352 47.8398 145.112 47.6798 144.792H47.1998C46.5598 144.152 46.1198 143.752 45.8798 143.592C45.6398 143.432 45.0798 143.352 44.1998 143.352C43.7198 143.352 43.2798 143.352 42.8798 143.352C42.4798 143.352 42.1598 143.432 41.9198 143.592V143.832C41.6798 143.992 41.5198 144.032 41.4398 143.952C41.3598 143.952 41.1198 144.152 40.7198 144.552H39.9998C39.9998 144.952 39.7598 145.232 39.2798 145.392C38.7198 145.552 38.1598 145.672 37.5998 145.752C37.1998 145.272 36.4398 144.672 35.3198 143.952C34.1198 143.312 32.8798 142.992 31.5998 142.992C31.0398 142.992 30.5198 143.072 30.0398 143.232C29.4798 143.472 28.7598 143.592 27.8798 143.592C27.4798 142.712 26.7598 142.152 25.7198 141.912V141.432C25.4798 141.272 25.1198 140.872 24.6398 140.232C24.0798 139.592 23.6398 138.992 23.3198 138.432H22.8398C22.8398 138.272 22.7598 138.112 22.5998 137.952H21.9998C21.8398 137.632 21.7598 137.472 21.7598 137.472L20.3198 137.232V136.992H19.8398V136.752H18.8798V136.512C18.5598 136.192 18.0798 135.792 17.4398 135.312V134.832C17.2798 134.672 17.1198 134.592 16.9598 134.592V132.912C16.7998 132.752 16.4798 132.352 15.9998 131.712C15.5198 131.152 15.1998 130.672 15.0398 130.272H14.0798C13.9198 130.032 13.8398 129.872 13.8398 129.792C13.7598 129.792 13.6798 129.632 13.5998 129.312H13.1198C13.1998 128.592 13.2398 127.832 13.2398 127.032C13.2398 126.312 13.2798 125.552 13.3598 124.752H13.1198V124.272C12.9598 124.272 12.7998 124.192 12.6398 124.032V123.552C12.5598 123.552 12.4798 123.512 12.3998 123.432C12.3198 123.432 12.2398 123.432 12.1598 123.432V122.952C11.9998 122.792 11.8398 122.712 11.6798 122.712V121.992H11.4398C11.5198 121.352 11.5998 120.712 11.6798 120.072C11.6798 119.512 11.9198 119.112 12.3998 118.872V118.392H12.6398V117.672H12.8798V117.192H13.1198C13.1198 116.872 12.9998 116.592 12.7598 116.352C12.4398 116.112 12.2798 115.272 12.2798 113.832C12.2798 113.672 12.3198 113.512 12.3998 113.352C12.3998 113.272 12.3998 113.192 12.3998 113.112H12.6398V112.392H12.8798V111.912H13.1198V111.432C13.5198 111.112 13.8398 110.832 14.0798 110.592C14.3198 110.432 14.5598 109.992 14.7998 109.272H15.0398V106.752C15.1998 106.592 15.3598 106.512 15.5198 106.512V105.792H15.7598C16.1598 104.912 16.5198 104.272 16.8398 103.872C17.1598 103.472 17.6798 102.912 18.3998 102.192H18.6398C18.6398 101.712 18.8798 101.392 19.3598 101.232V100.752H19.5998C19.9198 100.112 20.2798 99.7924 20.6798 99.7924C20.9998 99.7924 21.3598 99.4724 21.7598 98.8324H22.3598L24.2798 96.9124V96.4324H24.5198C24.9198 96.0324 25.1598 95.6324 25.2398 95.2324H24.9998C24.8398 94.8324 24.5598 94.5524 24.1598 94.3924C23.6798 94.2324 23.2398 94.0324 22.8398 93.7924H22.3598V93.5524H21.9998C21.5998 93.1524 21.1998 92.9524 20.7998 92.9524V92.7124H20.0798C19.9198 92.3924 19.8398 92.2324 19.8398 92.2324H19.3598V91.9924C19.0398 91.9924 18.6398 92.0724 18.1598 92.2324V92.4724C17.7598 92.3924 17.3198 92.3124 16.8398 92.2324C16.3598 92.2324 15.9198 92.2324 15.5198 92.2324V92.4724H14.3198L14.0798 92.9524H13.3598V93.1924C12.9598 93.1924 12.5198 93.1124 12.0398 92.9524C11.4798 92.8724 11.0398 92.7924 10.7198 92.7124H9.51978V92.4724H8.79978C8.63978 92.1524 8.47978 91.9124 8.31978 91.7524H7.83978L6.75978 90.3124H6.51978V89.3524C6.83978 89.1924 7.11978 89.0724 7.35978 88.9924C7.51978 88.9124 7.83978 88.8724 8.31978 88.8724C8.55978 89.1924 8.75978 89.3124 8.91978 89.2324C8.99978 89.1524 9.11978 89.1924 9.27978 89.3524V89.5924H9.75978V89.8324H11.4398Z" fill="#FF9FC5"/>
</svg>
