<svg width="267" height="328" viewBox="0 0 267 328" fill="none" xmlns="http://www.w3.org/2000/svg">
<path d="M46.2954 180.353L48.1849 180.949C48.0679 183.025 47.672 184.364 46.9972 184.964C46.1716 185.395 44.8805 185.557 43.1237 185.451C42.982 185.122 42.9201 184.798 42.9381 184.478C42.9561 184.159 42.8943 183.834 42.7526 183.505L43.2317 183.534C43.5961 182.755 43.7783 182.365 43.7783 182.365C43.6276 182.196 44.1292 181.825 45.2832 181.254L45.3102 180.775L46.2684 180.833L46.2954 180.353ZM46.8219 171.008C45.5713 170.452 43.837 169.946 41.6191 169.491C39.2504 168.867 37.9424 167.906 37.695 166.609L37.9211 166.863L37.6815 166.849C37.6725 167.008 37.8277 167.098 38.1471 167.117L39.8241 167.219L39.7971 167.698L41.7136 167.814L41.6866 168.293L43.1239 168.38L43.0969 168.859L44.5343 168.946L44.5073 169.425L46.4238 169.541L46.3968 170.021L49.7507 170.224L49.7237 170.703L51.6132 171.298L51.5862 171.777C52.0563 171.966 52.4511 172.07 52.7705 172.089C53.2496 172.118 53.7242 172.227 54.1943 172.416L54.1673 172.895L52.4904 172.794C51.8786 172.276 51.1689 172.073 50.3614 172.184C49.7225 172.145 49.0128 171.942 48.2323 171.574L48.2593 171.095L46.8219 171.008ZM63.6148 175.871C63.1447 175.683 62.9051 175.668 62.8961 175.828C63.0558 175.838 62.985 175.673 62.6836 175.334L63.6418 175.392L63.6148 175.871ZM67.8194 143.907C67.3493 143.718 67.1098 143.704 67.1008 143.864C67.2605 143.873 67.1896 143.709 66.8882 143.37L67.8464 143.428L67.8194 143.907ZM26.7832 164.025C27.1206 163.725 27.5334 163.509 28.0215 163.379C28.3499 163.238 28.9224 163.032 29.7389 162.761L29.7659 162.282C31.6644 162.718 32.5597 163.894 32.4517 165.811C31.4394 166.711 30.4542 167.132 29.4959 167.074C28.6974 167.026 28.1384 166.992 27.819 166.973C27.3489 166.784 27.0036 165.802 26.7832 164.025ZM61.2462 175.247C60.7761 175.058 60.5365 175.044 60.5275 175.204C60.6872 175.213 60.6164 175.049 60.3149 174.71L61.2732 174.768L61.2462 175.247ZM27.4182 118.621C26.3092 118.394 25.6085 118.031 25.3161 117.532C25.0327 116.874 24.5851 116.286 23.9733 115.768L24.0273 114.809C24.6841 114.528 25.2566 114.323 25.7447 114.192C26.2328 114.061 27.0359 114.029 28.1538 114.097L28.1268 114.576L29.5642 114.663L29.5102 115.622L30.4684 115.68C30.4504 115.999 30.2502 116.709 29.8678 117.807C29.3347 118.737 28.6689 119.177 27.8703 119.129L27.4182 118.621ZM9.57636 311.574C10.5706 310.993 11.2364 310.552 11.5739 310.252L13.9695 310.397C13.2316 312.116 12.3037 312.941 11.1858 312.873C10.3873 312.825 9.85077 312.392 9.57636 311.574ZM19.6051 253.033C19.7558 253.203 19.911 253.292 20.0707 253.302C20.2304 253.312 20.4655 253.406 20.7759 253.585L20.6409 255.981C20.1528 256.112 19.749 256.168 19.4296 256.148C18.9505 256.119 18.4669 256.17 17.9787 256.301C17.6863 255.802 17.5716 254.994 17.6346 253.876C17.963 253.735 18.2869 253.675 18.6064 253.694C18.9258 253.713 19.2497 253.653 19.5781 253.513L19.6051 253.033ZM23.6509 236.688C23.9703 236.707 24.2897 236.727 24.6092 236.746C24.9376 236.606 25.2615 236.545 25.5809 236.564C27.4974 236.68 28.9258 236.927 29.866 237.304C30.6466 237.672 31.4046 238.439 32.1401 239.606L31.661 239.577C30.8175 240.327 29.7479 240.824 28.4522 241.066C27.1565 241.308 24.9116 241.333 21.7175 241.139C20.1204 241.043 19.1666 240.905 18.8562 240.726L18.8832 240.246L17.4459 240.159L17.4729 239.68L11.2443 239.303L11.2713 238.824L10.313 238.766C10.349 238.127 10.2343 237.319 9.96889 236.341C10.6257 236.06 11.4513 235.629 12.4455 235.048L12.4185 235.527C13.9976 235.943 15.2662 236.181 16.2245 236.239L16.1975 236.718L23.6239 237.167L23.6509 236.688ZM67.7654 144.866L67.8194 143.907L68.9902 144.459L68.9632 144.938L67.7654 144.866ZM16.2172 44.3694C16.5187 44.7082 16.5895 44.8728 16.4298 44.8632C16.2701 44.8535 16.341 45.0181 16.6424 45.3569L15.6841 45.2989C15.6931 45.1392 15.8618 44.9891 16.1902 44.8487L16.2172 44.3694ZM18.9581 196.251C17.6445 196.813 16.0294 197.036 14.1129 196.92C13.6788 196.092 13.311 195.509 13.0096 195.17C12.5575 194.661 12.3764 193.609 12.4664 192.011C13.1232 191.73 14.1175 191.149 15.4491 190.268L16.4074 190.326C17.5883 189.276 18.5961 188.455 19.4306 187.864C20.1145 187.104 20.8646 186.589 21.6812 186.317C22.5067 185.887 23.4031 185.62 24.3704 185.518C25.3376 185.417 26.6996 185.419 28.4564 185.525C28.8905 186.353 29.3337 187.021 29.7858 187.529C30.0782 188.028 30.1839 188.996 30.1029 190.434C29.2864 190.705 28.0391 191.511 26.361 192.852C24.6919 194.033 23.0408 194.895 21.4077 195.437L19.4912 195.322C19.1538 195.622 18.9761 195.932 18.9581 196.251ZM217.674 125.085L217.195 125.056L217.249 124.097C217.915 123.657 218.439 122.887 218.821 121.788C219.123 122.127 219.265 122.456 219.247 122.775C219.211 123.414 218.695 124.024 217.701 124.605L217.674 125.085ZM227.847 136.52C227.377 136.331 227.137 136.317 227.128 136.476C227.288 136.486 227.217 136.322 226.916 135.983L227.874 136.041L227.847 136.52ZM228.709 40.1568C227.769 39.7794 227.059 39.5761 226.58 39.5471C226.11 39.3584 225.915 38.5452 225.996 37.1075L226.475 37.1364L226.502 36.6572C227.629 36.5651 228.676 36.4682 229.644 36.3664C230.611 36.2647 231.574 36.2428 232.532 36.3008C233.65 36.3684 234.444 36.4966 234.914 36.6853L237.309 36.8303L237.282 37.3095C238.542 37.7064 239.127 38.7035 239.037 40.301C238.709 40.4414 238.385 40.5019 238.065 40.4826C237.746 40.4633 237.422 40.5238 237.093 40.6642L237.066 41.1435L234.192 40.9695L234.165 41.4487C233.845 41.4294 233.53 41.3302 233.22 41.1511C233.069 40.9817 232.914 40.8922 232.754 40.8825L229.64 40.6941L229.667 40.2148L229.188 40.1858L229.161 40.6651L228.682 40.6361L228.709 40.1568ZM220.367 119.958C220.198 120.108 220.1 120.423 220.073 120.902C220.046 121.381 219.948 121.696 219.78 121.846L219.301 121.817L219.355 120.858L219.834 120.887L219.915 119.45L220.394 119.479C220.572 119.169 220.665 118.934 220.674 118.774C220.683 118.615 220.776 118.38 220.954 118.07L220.475 118.041C220.128 118.501 219.791 118.801 219.463 118.942L219.517 117.983C219.854 117.683 220.116 117.298 220.303 116.828C220.489 116.359 220.756 115.894 221.102 115.434L221.582 115.463L221.514 116.661C221.177 116.961 221.008 117.112 221.008 117.112C221.177 116.961 221.168 117.121 220.981 117.591L221.46 117.62L221.514 116.661C222.508 116.08 223.281 115.165 223.832 113.916C224.552 112.517 225.187 111.193 225.739 109.944C226.528 110.152 226.918 110.336 226.909 110.496C226.9 110.656 226.953 111.14 227.068 111.948C225.763 112.35 224.915 113.18 224.524 114.439C224.292 115.707 223.777 116.317 222.978 116.269L222.924 117.228C222.587 117.528 222.259 117.668 221.939 117.649L221.885 118.607L221.406 118.578L221.352 119.537C221.015 119.837 220.686 119.977 220.367 119.958ZM226.299 108.536C225.979 108.516 225.82 108.507 225.82 108.507C225.829 108.347 225.753 108.262 225.593 108.252L225.354 108.238C225.345 108.398 225.527 108.008 225.901 107.069L226.38 107.098L226.299 108.536ZM228.38 135.59C228.736 134.971 228.922 134.501 228.94 134.182L229.419 134.211L229.392 134.69C229.374 135.009 229.197 135.319 228.859 135.619L228.38 135.59ZM235.581 101.644C236.425 100.893 236.935 100.363 237.113 100.053C237.3 99.5838 237.801 99.2134 238.618 98.9422L238.672 97.9837L239.63 98.0417C239.398 99.31 239.029 100.169 238.523 100.62C238.026 100.91 237.356 101.431 236.512 102.181L236.472 102.9L235.993 102.871L235.939 103.829C235.432 104.28 234.997 104.894 234.633 105.674C234.277 106.293 233.86 106.589 233.381 106.56L233.327 107.518C233.496 107.368 233.069 107.823 232.048 108.883C231.027 109.944 229.721 111.788 228.131 114.417L227.945 113.444C228.62 112.844 228.887 112.379 228.745 112.05C228.772 111.57 228.968 110.941 229.332 110.162L229.811 110.191L229.865 109.232C230.194 109.092 230.442 108.947 230.611 108.796C230.78 108.646 231.028 108.501 231.356 108.361L231.41 107.402C232.067 107.121 232.396 106.981 232.396 106.981L232.45 106.023C233.435 105.601 233.941 105.151 233.968 104.672C234.155 104.202 234.67 103.592 235.513 102.842L235.581 101.644ZM221.19 122.412C221.527 122.112 221.696 121.962 221.696 121.962C221.856 121.972 222.034 121.662 222.229 121.032L223.188 121.09C222.832 121.71 222.486 122.17 222.148 122.47C221.971 122.78 221.784 123.25 221.588 123.879L221.109 123.85L221.19 122.412ZM152.962 108.906C152.411 110.155 151.86 111.404 151.309 112.653C150.927 113.752 150.54 114.931 150.148 116.19L149.669 116.161L149.831 113.285C150.506 112.685 150.786 111.981 150.671 111.172C150.557 110.364 150.681 109.57 151.046 108.791L151.525 108.82L151.633 106.903L152.112 106.932L152.22 105.015L152.699 105.044L152.807 103.127L153.286 103.156L153.448 100.28L153.927 100.309C154.105 99.9993 154.212 99.5249 154.248 98.8859C154.266 98.5664 154.204 98.2421 154.062 97.913C154.089 97.4337 154.112 97.0344 154.13 96.7149L154.609 96.7439C154.627 96.4244 154.814 95.9548 155.169 95.3351C155.471 95.6739 155.617 95.9232 155.608 96.083C155.768 96.0927 155.905 96.5017 156.019 97.3101L155.54 97.2811C155.149 98.5397 154.931 99.5684 154.886 100.367L154.407 100.338L154.245 103.214L153.765 103.185L153.711 104.143L153.232 104.114L152.962 108.906ZM223.269 119.653C223.775 119.202 224.13 118.583 224.335 117.794L225.293 117.852C224.929 118.631 224.658 119.176 224.48 119.486C224.302 119.795 224.04 120.18 223.694 120.64L223.215 120.611L223.269 119.653ZM117.525 33.9097L114.65 33.7357L114.731 32.298L115.211 32.327L115.238 31.8478L117.633 31.9927L117.606 32.472L118.085 32.501C117.739 32.9609 117.646 33.1957 117.805 33.2053C117.974 33.0552 117.89 33.1303 117.552 33.4305L117.525 33.9097ZM197.477 116.649L196.998 116.62L197.106 114.703L198.064 114.761C197.895 114.911 197.806 115.066 197.797 115.226L197.811 114.987C197.651 114.977 197.567 115.052 197.558 115.212L197.477 116.649ZM204.22 22.5657L203.741 22.5367L202.89 20.5617L204.328 20.6487L204.22 22.5657ZM102.19 20.2386C102.235 19.4398 102.36 18.6459 102.565 17.8569C102.778 16.908 102.894 16.2739 102.912 15.9544L102.433 15.9254C102.496 14.8072 102.555 13.7688 102.609 12.8103C102.822 11.8615 103.04 10.8328 103.263 9.72427L103.742 9.75326L103.81 8.55516C104.991 7.50459 105.914 6.75901 106.58 6.31842C107.05 6.50717 107.675 6.78545 108.456 7.15326C109.236 7.52107 109.559 8.90308 109.424 11.2993C109.406 11.6188 109.313 11.8536 109.144 12.0036C109.135 12.1634 109.126 12.3231 109.117 12.4829L108.638 12.4539L108.584 13.4124L108.105 13.3834L108.024 14.8211L107.545 14.7921L107.491 15.7506C107.491 15.7506 107.162 15.891 106.506 16.1718L106.452 17.1303C106.114 17.4305 105.852 17.8154 105.665 18.2849C105.479 18.7545 105.226 18.9796 104.906 18.9603C104.587 18.941 104.073 18.1084 103.364 16.4626L103.148 20.2965L102.19 20.2386ZM32.2955 228.315C32.5789 228.973 32.796 229.387 32.9467 229.556C32.9467 229.556 32.9951 230.12 33.0918 231.248C32.6036 231.379 32.1954 231.515 31.8669 231.655C31.3878 231.626 30.8288 231.592 30.19 231.554C29.9156 230.736 29.6232 230.237 29.3128 230.058L29.3668 229.099C30.0236 228.819 30.5207 228.528 30.8581 228.228L32.2955 228.315ZM201.25 275.807L201.729 275.836C201.365 276.615 200.921 277.389 200.396 278.159C200.032 278.939 199.756 279.563 199.57 280.033L199.091 280.004L199.118 279.524C198.657 279.176 198.355 278.837 198.213 278.508C198.222 278.348 198.249 277.869 198.294 277.07L198.774 277.099C198.96 276.63 199.072 276.075 199.108 275.436C199.135 274.957 199.246 274.403 199.442 273.774L199.921 273.803C199.948 273.323 200.139 272.774 200.494 272.154C201.124 272.353 201.421 272.771 201.385 273.41L200.906 273.381L200.879 273.861L201.358 273.89L201.25 275.807ZM205.747 311.182L206.226 311.211C205.889 311.512 205.725 311.582 205.734 311.422C205.894 311.432 205.729 311.502 205.241 311.633L205.295 310.674L205.774 310.703L205.747 311.182ZM211.497 277.388C211.675 277.079 211.768 276.844 211.777 276.684C211.786 276.524 211.88 276.289 212.057 275.98L212.537 276.009L212.51 276.488C212.154 277.108 211.976 277.417 211.976 277.417L211.497 277.388ZM148.839 122.362L148.36 122.333L148.468 120.416L148.947 120.445L148.839 122.362ZM143.297 246.332L143.216 247.77L141.778 247.683L142.818 246.303L143.297 246.332ZM143.135 249.208L143.216 247.77L143.695 247.799L143.614 249.237L143.135 249.208ZM145.908 259.714C145.89 260.034 145.961 260.199 146.121 260.208C146.289 260.058 146.511 260.392 146.785 261.21L146.306 261.181L146.279 261.66L145.8 261.631L145.827 261.152L145.348 261.123L145.483 258.727C145.076 257.42 144.664 256.193 144.248 255.046C143.841 253.739 143.603 252.282 143.533 250.675C144.286 251.522 144.782 252.674 145.021 254.131C145.268 255.428 145.6 256.65 146.016 257.798L145.908 259.714ZM242.358 198.95C241.56 198.902 240.836 198.938 240.189 199.059C239.55 199.02 238.827 199.057 238.019 199.168C237.7 199.149 237.624 199.064 237.793 198.914C237.962 198.764 237.886 198.679 237.567 198.66L237.54 199.139C237.238 198.8 236.848 198.616 236.369 198.587L236.342 199.067C235.206 199.319 234.203 200.059 233.332 201.289C232.63 202.369 232.244 203.547 232.172 204.825C233.865 206.05 234.734 207.705 234.776 209.792C233.764 210.692 233.098 211.133 232.779 211.113C232.619 211.104 232.131 211.234 231.314 211.506L231.341 211.026C230.712 210.828 230.157 210.714 229.678 210.685C229.039 210.647 228.556 210.698 228.227 210.838C228.058 210.988 227.792 211.453 227.427 212.232L226.469 212.174C226.397 213.452 226.503 214.42 226.786 215.079C227.07 215.737 227.171 216.785 227.09 218.223C226.753 218.523 226.087 218.963 225.092 219.544L225.065 220.024L220.993 219.777C219.137 221.428 217.539 222.774 216.198 223.815C214.858 224.856 213.286 225.723 211.485 226.415L209.568 226.299L209.541 226.778C208.547 227.359 207.876 227.88 207.53 228.34C207.352 228.649 207.228 229.443 207.156 230.721C207.102 231.68 207.043 232.718 206.98 233.836C207.086 234.804 207.107 235.848 207.044 236.966C206.716 237.106 206.312 237.162 205.833 237.133C205.513 237.114 205.189 237.174 204.861 237.315C204.427 236.487 204.059 235.904 203.758 235.565C203.616 235.236 203.568 234.672 203.613 233.873L203.134 233.844L203.296 230.969L202.816 230.94L202.843 230.46L200.448 230.315C200.101 230.775 199.515 231.221 198.69 231.652C198.033 231.932 197.456 232.218 196.959 232.509L196.001 232.451C195.983 232.77 195.805 233.08 195.468 233.38L194.03 233.293C193.985 234.092 193.643 234.472 193.004 234.433C192.366 234.395 191.802 234.441 191.314 234.571L191.287 235.051C189.539 234.785 187.867 234.603 186.27 234.507C184.832 234.42 183.32 234.248 181.732 233.992L181.705 234.471C181.705 234.471 181.394 234.292 180.773 233.934L180.746 234.413C179.939 234.524 179.136 234.556 178.337 234.507C177.698 234.469 176.975 234.505 176.168 234.617L176.141 235.096L174.703 235.009L174.676 235.488C173.869 235.6 173.061 235.711 172.254 235.822C171.446 235.934 170.639 236.045 169.831 236.157L169.804 236.636L166.45 236.433C165.634 236.704 164.329 237.106 162.536 237.639C160.752 238.012 159.838 238.597 159.793 239.396L160.272 239.425L160.218 240.384L160.697 240.413C160.652 241.211 160.744 242.419 160.974 244.036C160.157 244.307 159.58 244.593 159.243 244.893C158.914 245.033 158.346 245.159 157.539 245.271L157.566 244.792L156.608 244.734C155.845 244.046 155.389 243.618 155.238 243.448C155.096 243.119 154.626 242.931 153.827 242.882C153.508 242.863 153.184 242.923 152.856 243.064C152.536 243.045 152.217 243.025 151.897 243.006L151.789 244.923C152.561 245.45 153.022 245.799 153.173 245.968C153.324 246.138 153.625 246.477 154.077 246.985L155.035 247.043C155.186 247.212 155.257 247.377 155.248 247.536C155.239 247.696 155.31 247.861 155.46 248.03L156.419 248.088C156.569 248.258 156.64 248.422 156.631 248.582C156.622 248.742 156.693 248.906 156.844 249.076L158.281 249.163C159.665 250.208 160.893 251.164 161.966 252.03C162.879 252.887 163.712 253.739 164.466 254.586C165.388 255.283 165.991 255.961 166.274 256.619C165.485 256.411 164.394 255.864 163.001 254.978C161.609 254.093 160.771 253.321 160.488 252.662L159.53 252.604C159.246 251.946 159.104 251.617 159.104 251.617L158.146 251.559C157.854 251.06 157.557 250.642 157.255 250.303C156.963 249.804 156.666 249.386 156.365 249.047L155.406 248.989C155.256 248.819 155.185 248.655 155.194 248.495C155.203 248.335 155.132 248.171 154.981 248.001L154.023 247.943C153.872 247.774 153.416 247.345 152.653 246.658C152.059 245.821 151.603 245.392 151.283 245.373L151.256 245.852C150.91 246.312 150.643 246.777 150.457 247.247C150.439 247.566 150.421 247.886 150.403 248.205C150.385 248.525 150.202 248.914 149.856 249.374C149.678 249.684 149.186 249.895 148.378 250.006L148.351 250.485L146.914 250.398C146.957 252.485 147.337 254.271 148.054 255.757C148.781 257.083 149.085 258.785 148.968 260.861L148.489 260.832L148.516 260.353L148.037 260.324C147.657 258.538 147.188 256.907 146.63 255.43C146.241 253.804 145.857 252.098 145.476 250.311L145.557 248.874L145.078 248.845L145.132 247.886L144.653 247.857L144.707 246.899L144.228 246.87C143.936 246.371 143.789 246.122 143.789 246.122C143.798 245.962 143.723 245.877 143.563 245.868C143.563 245.868 143.408 245.778 143.098 245.599C142.787 245.42 142.251 244.987 141.488 244.299L141.461 244.779C140.325 245.031 139.642 245.791 139.41 247.059L139.889 247.088L139.7 250.443L140.179 250.472L140.125 251.43L140.604 251.459L140.496 253.376L140.975 253.405L140.611 259.875L140.132 259.846L140.105 260.325L140.584 260.354L140.557 260.833L140.078 260.804C140.219 261.133 140.286 261.378 140.277 261.538C140.268 261.697 140.334 261.942 140.476 262.271L139.491 262.692L139.518 262.213C139.074 261.545 138.725 260.642 138.468 259.505C138.381 258.217 138.049 256.995 137.473 255.838L136.994 255.809C137.012 255.489 136.954 255.085 136.822 254.596C136.698 253.948 136.317 253.604 135.678 253.565L135.759 252.128C135.37 250.501 134.545 249.49 133.286 249.093L133.313 248.613L131.396 248.498C130.721 249.098 130.384 249.398 130.384 249.398L130.33 250.356L129.851 250.328L129.797 251.286C129.477 251.267 129.149 251.407 128.812 251.707L128.758 252.666L127.759 253.327L126.801 253.269L126.774 253.748C125.815 253.69 125.195 253.332 124.911 252.673C124.628 252.015 124.344 251.357 124.061 250.698C123.787 249.88 123.268 249.128 122.505 248.44C121.903 247.763 120.803 247.376 119.206 247.279C118.859 247.739 118.242 248.743 117.353 250.293C116.474 251.682 115.87 252.447 115.541 252.587L114.104 252.5C113.2 251.484 112.553 250.162 112.164 248.536C111.775 246.909 110.941 246.058 109.664 245.98C109.344 245.961 108.94 246.017 108.452 246.147C108.133 246.128 107.734 246.104 107.255 246.075L105.098 245.944L105.071 246.424C104.255 246.695 103.514 247.051 102.848 247.491C102.342 247.942 101.929 248.157 101.61 248.138C99.3737 248.002 97.8396 246.787 97.0074 244.493L97.0614 243.535L96.5823 243.506C96.6003 243.186 96.4585 242.857 96.1571 242.518L95.1989 242.46C94.5871 241.942 94.1529 241.115 93.8965 239.977C93.6401 238.839 93.1351 237.847 92.3816 237L91.4368 236.702C91.1534 236.044 91.0117 235.715 91.0117 235.715L89.5743 235.628L89.6013 235.149C88.164 235.062 87.1034 235.398 86.4195 236.158C85.9044 236.768 85.008 237.035 83.7304 236.957L83.7574 236.478L80.417 236.036L80.444 235.556L79.9649 235.527L80.0729 233.61C81.0761 232.87 81.6362 231.461 81.7532 229.384C80.9907 228.697 80.3834 228.099 79.9312 227.591C79.6478 226.933 78.6412 226.311 76.9114 225.725L76.8844 226.204L74.4888 226.059L74.5158 225.58L71.6411 225.406C72.0055 224.627 72.2766 224.082 72.4543 223.772C72.641 223.303 72.7658 222.509 72.8288 221.391C72.208 221.032 71.8222 220.769 71.6715 220.599C71.6805 220.44 71.126 220.326 70.0081 220.258C69.484 221.028 69.0577 221.483 68.7293 221.623C68.5606 221.774 68.3165 221.839 67.9971 221.82C67.8374 221.81 67.6777 221.8 67.518 221.791C67.3673 221.621 67.0569 221.442 66.5867 221.253C66.5687 221.573 66.382 222.042 66.0266 222.662L65.5475 222.633C65.5115 223.272 65.3158 223.901 64.9604 224.521L64.4812 224.492C64.5959 225.3 64.6308 226.104 64.5858 226.903C64.7005 227.711 64.7354 228.515 64.6904 229.313L63.6477 235.021C62.8311 235.292 62.3385 235.503 62.1698 235.653C59.1623 234.99 57.7441 233.141 57.9151 230.106C57.9871 228.828 58.2188 227.559 58.6102 226.301C59.0017 225.042 59.2997 224.018 59.5044 223.229L60.4627 223.287L60.5437 221.849C61.6976 221.278 62.4478 220.762 62.7942 220.303C63.3094 219.693 64.4453 219.441 66.2021 219.547C66.5035 219.886 66.5789 219.971 66.4282 219.801C66.4372 219.641 66.6722 219.736 67.1334 220.084C67.5068 219.145 67.7025 218.516 67.7205 218.196C66.9399 217.828 66.2303 217.625 65.5914 217.587C64.9616 217.388 64.4116 217.195 63.9415 217.006C63.4804 216.657 63.1081 216.154 62.8247 215.496C62.5413 214.837 62.4356 213.869 62.5076 212.591C62.9957 212.46 63.4838 212.33 63.9719 212.199C64.6198 212.078 65.1877 211.952 65.6759 211.821L65.7029 211.342L67.6194 211.458L67.6464 210.979L68.1255 211.008L68.2065 209.57C68.0558 209.401 67.8252 209.226 67.5148 209.047C67.3731 208.718 67.3202 208.234 67.3562 207.595L67.8354 207.624C68.1908 207.004 68.382 206.455 68.409 205.976L68.8881 206.005C69.2255 205.704 69.5674 205.324 69.9138 204.865C70.429 204.255 70.709 203.55 70.754 202.751C70.763 202.592 70.6877 202.507 70.528 202.497C70.537 202.338 70.5505 202.098 70.5685 201.778L70.0893 201.749L70.1433 200.791L69.6642 200.762C69.6912 200.283 69.4742 199.869 69.013 199.52C68.7116 199.182 68.2505 198.833 67.6297 198.475C67.1775 197.967 66.7254 197.458 66.2733 196.95C65.9809 196.452 65.8617 195.723 65.9157 194.765L66.1687 194.54C65.8853 193.881 66.2272 193.501 67.1945 193.399C68.1617 193.298 68.6814 192.608 68.7534 191.33L69.2325 191.359C69.1268 190.391 69.0211 189.423 68.9154 188.454C68.9694 187.496 68.8636 186.528 68.5982 185.55L68.1191 185.521L68.1461 185.042L68.6252 185.071L68.7872 182.195C68.3261 181.847 67.7053 181.489 66.9247 181.121L66.9787 180.162C66.5176 179.814 66.2117 179.555 66.061 179.385C65.9103 179.216 65.5245 178.952 64.9037 178.594L64.9442 177.875L61.6173 177.193L61.6713 176.235C62.3012 176.433 62.7758 176.542 63.0952 176.561C63.5743 176.59 64.2086 176.709 64.9982 176.917C65.5223 176.147 66.1881 175.706 66.9957 175.595C67.9629 175.493 68.9347 175.312 69.9109 175.05C70.8962 174.629 71.7307 174.038 72.4145 173.278C73.2671 172.368 73.7609 170.715 73.8959 168.319C72.6542 167.602 71.8871 166.995 71.5947 166.496C71.3023 165.998 71.2056 164.87 71.3046 163.113C71.9614 162.832 72.6138 162.631 73.2616 162.51C74.0781 162.239 75.3783 161.917 77.1621 161.544L77.2431 160.106C77.8999 159.825 78.3172 159.53 78.4949 159.22C78.8323 158.92 79.4093 158.634 80.2258 158.363L80.2798 157.404C80.2798 157.404 80.6083 157.264 81.2651 156.983L81.3731 155.066C80.7523 154.708 80.2956 154.28 80.0032 153.781C79.7108 153.283 79.4139 152.864 79.1125 152.525L78.1542 152.467C76.9486 151.112 75.8756 150.245 74.9354 149.868C74.0041 149.331 73.4328 148.094 73.2214 146.158C73.5408 146.177 73.7803 146.191 73.94 146.201C74.2685 146.061 74.5924 146 74.9118 146.019C75.7103 146.068 76.411 146.431 77.0138 147.108C77.7854 147.636 78.5614 148.084 79.342 148.451L79.315 148.931L81.2315 149.047L81.2045 149.526L82.1627 149.584L82.1357 150.063L84.2918 150.194C84.4515 150.203 84.5268 150.288 84.5178 150.448C84.6685 150.617 84.9036 150.712 85.223 150.731L85.25 150.252C86.386 150 87.1272 149.644 87.4736 149.184C87.829 148.564 88.2688 147.87 88.7929 147.1L89.272 147.129C89.6184 146.669 89.876 146.364 90.0447 146.214C90.3821 145.914 90.6487 145.449 90.8444 144.82L91.3235 144.849C91.1998 144.2 91.0716 143.631 90.9389 143.142C90.8062 142.653 90.678 142.085 90.5542 141.436L90.0751 141.407L90.2101 139.011C90.6982 138.88 91.1954 138.59 91.7015 138.139C93.1209 138.546 94.0431 139.243 94.4682 140.23C94.9024 141.058 95.9933 141.605 97.7411 141.871C98.0785 141.571 98.2472 141.421 98.2472 141.421C98.4069 141.43 98.6555 141.285 98.9929 140.985L99.0199 140.506L99.9782 140.564C100.307 140.423 100.475 140.273 100.484 140.113C100.502 139.794 100.68 139.484 101.017 139.184C100.752 138.206 100.553 137.473 100.42 136.984C100.297 136.335 100.28 135.212 100.37 133.615L100.849 133.644L100.876 133.164C101.515 133.203 101.914 133.227 102.074 133.237C102.242 133.087 102.491 132.942 102.819 132.801L102.792 133.28C103.582 133.488 103.972 133.672 103.963 133.832C104.123 133.842 104.513 134.026 105.134 134.384L105.08 135.342C105.71 135.541 106.26 135.734 106.73 135.923C107.369 135.962 108.087 136.005 108.886 136.053C109.41 135.284 109.841 134.749 110.178 134.449C110.516 134.148 110.707 133.599 110.752 132.8C110.77 132.481 110.703 132.236 110.553 132.067C110.571 131.747 110.593 131.348 110.62 130.869C111.597 130.607 112.094 130.317 112.112 129.997C112.289 129.687 113.026 129.411 114.322 129.169C115.075 130.016 115.842 130.624 116.623 130.992C117.563 131.369 118.188 131.647 118.499 131.826L118.472 132.306L121.374 132L121.347 132.48L124.7 132.683L124.727 132.203C126.023 131.961 127.164 131.629 128.149 131.208C129.143 130.627 129.76 129.623 130.001 128.195L130.48 128.224L130.507 127.744L130.028 127.715C129.452 126.558 128.526 125.941 127.248 125.864C126.769 125.835 126.205 125.881 125.558 126.002C125.078 125.973 124.44 125.935 123.641 125.886L123.695 124.928L122.737 124.87L122.777 124.151C121.198 123.735 119.966 122.859 119.079 121.523C118.353 120.196 117.59 119.509 116.792 119.461L116.981 116.106C116.076 115.09 115.474 114.412 115.172 114.073C114.871 113.734 114.765 112.766 114.855 111.169C115.192 110.869 115.37 110.559 115.388 110.239C115.406 109.92 115.349 109.516 115.216 109.027C115.083 108.538 115.031 108.054 115.058 107.575L115.537 107.604L115.591 106.645C116.434 105.895 117.034 105.21 117.389 104.59C117.745 103.97 118.335 103.445 119.161 103.014L119.296 100.618L120.281 100.197L120.308 99.7174L121.745 99.8043C122.083 99.5042 122.598 98.8942 123.291 97.9744L124.249 98.0323L124.276 97.5531C125.074 97.6014 125.793 97.6449 126.432 97.6836C127.08 97.5625 127.807 97.4462 128.615 97.3348L128.642 96.8556L131.756 97.044L131.783 96.5648C132.262 96.5938 132.741 96.6228 133.221 96.6518C133.709 96.521 134.192 96.4701 134.671 96.4991C135.274 97.1768 135.58 97.4357 135.589 97.276C135.598 97.1162 135.891 97.6148 136.466 98.7717L137.904 98.8587L137.877 99.3379L140.272 99.4829C140.857 100.48 141.593 101.647 142.479 102.982L143.198 103.026C143.499 103.365 143.792 103.863 144.075 104.522L144.554 104.551L144.392 107.426L144.871 107.455C145.474 108.133 145.775 108.472 145.775 108.472C145.935 108.481 146.059 109.13 146.147 110.418C145.312 111.008 144.886 111.463 144.868 111.783C144.85 112.102 144.832 112.422 144.814 112.741C144.955 113.07 145.013 113.475 144.986 113.954L144.507 113.925L144.399 115.842L144.878 115.871L144.824 116.829L145.303 116.858C145.595 117.357 145.719 118.006 145.674 118.804C145.177 119.095 144.604 119.301 143.957 119.422C143.318 119.383 142.727 119.908 142.185 120.997L141.706 120.969L141.332 123.35L140.852 123.321C140.009 124.072 139.179 124.582 138.362 124.854C137.714 124.975 137.208 125.425 136.844 126.204L135.407 126.117C135.078 126.258 134.887 126.807 134.833 127.766C134.788 128.564 134.836 129.128 134.978 129.458C135.279 129.796 135.492 130.29 135.616 130.939C137.372 131.045 138.659 130.963 139.476 130.691L139.503 130.212L140.94 130.299C140.976 129.66 141.234 129.355 141.713 129.384C142.352 129.423 142.84 129.292 143.177 128.992L143.204 128.513C145.202 127.191 146.294 126.295 146.48 125.826C146.836 125.206 147.303 124.032 147.881 122.304L148.36 122.333L148.279 123.771L147.8 123.742L147.624 126.857C148.582 126.915 149.226 126.873 149.554 126.733C149.892 126.433 150.389 126.142 151.046 125.862L152.483 125.949C152.501 125.629 152.679 125.319 153.016 125.019L153.974 125.077C154.33 124.457 154.676 123.997 155.014 123.697L155.732 123.741C156.434 122.661 157.1 122.221 157.73 122.419C158.36 122.617 158.697 122.317 158.742 121.519L159.7 121.576C160.038 121.276 160.215 120.967 160.233 120.647L161.192 120.705C161.556 119.926 162.071 119.316 162.737 118.875C163.572 118.284 164.406 117.694 165.241 117.103L171.23 117.465C171.54 117.645 172.245 117.928 173.345 118.315C174.445 118.702 175.394 118.92 176.193 118.968C176.353 118.978 176.433 118.982 176.433 118.982C176.601 118.832 176.765 118.762 176.925 118.772L176.952 118.293L178.39 118.38L178.417 117.9L179.375 117.958L179.402 117.479L180.839 117.566C180.839 117.566 181.017 117.256 181.372 116.637L182.33 116.695L182.357 116.215C182.677 116.235 182.837 116.244 182.837 116.244C183.005 116.094 183.249 116.029 183.569 116.048C184.527 116.106 185.467 116.484 186.39 117.181C187.48 117.728 188.505 118.03 189.463 118.088C189.942 118.117 190.107 118.047 189.956 117.877C189.805 117.708 189.89 117.633 190.209 117.652L190.182 118.131L194.973 118.421L195 117.942L196.438 118.029L196.465 117.55L196.944 117.579L196.917 118.058C197.538 118.416 198.008 118.605 198.327 118.624L198.3 119.104C198.611 119.283 199.325 119.406 200.443 119.474C201.241 119.522 202.12 119.575 203.078 119.633C204.045 119.531 204.928 119.505 205.727 119.553L206.793 117.694L207.272 117.723L207.191 119.161L206.712 119.132L206.631 120.569C207.571 120.947 208.516 121.244 209.465 121.462C210.574 121.69 211.678 121.997 212.778 122.384C212.751 122.863 213.035 123.522 213.629 124.359C214.222 125.196 214.901 125.959 215.663 126.646C216.585 127.343 217.352 127.95 217.964 128.468C218.585 128.826 218.896 129.006 218.896 129.006C219.57 128.405 220.068 128.115 220.387 128.134C220.715 127.994 221.199 127.943 221.838 127.981C223.115 128.059 223.825 128.262 223.967 128.591C224.268 128.93 224.476 129.504 224.591 130.312L224.112 130.283L223.99 132.44L223.511 132.411C223.12 133.669 222.906 134.618 222.87 135.257C223.642 135.785 224.227 136.782 224.625 138.248L225.583 138.306L225.502 139.744C225.954 140.252 226.016 140.577 225.687 140.717C225.528 140.707 225.758 140.882 226.379 141.24L226.619 141.254C226.92 141.593 227.213 142.092 227.496 142.75L228.454 142.808C229.208 143.655 229.881 144.497 230.475 145.335C231.069 146.172 232.244 146.644 234.001 146.75C234.339 146.45 234.986 146.329 235.945 146.387C236.912 146.285 237.719 146.174 238.367 146.053L238.34 146.532L238.819 146.561L238.711 148.478L239.191 148.507C239.173 148.826 239.079 149.061 238.911 149.211C238.902 149.371 238.893 149.531 238.884 149.69L238.63 149.916C238.576 150.874 238.509 152.072 238.428 153.51C238.507 154.957 238.936 155.865 239.717 156.233L242.298 157.351L242.244 158.309C242.696 158.817 242.918 159.151 242.909 159.311C242.9 159.471 242.722 159.781 242.376 160.241C242.198 160.55 241.936 160.935 241.589 161.395C241.252 161.695 240.994 162 240.817 162.31C240.639 162.62 240.55 162.775 240.55 162.775L240.071 162.746L240.017 163.704L239.538 163.675L239.136 166.536L238.657 166.507L238.603 167.466L238.124 167.437C237.955 167.587 237.866 167.742 237.857 167.902C237.839 168.221 237.906 168.466 238.057 168.635C238.207 168.804 238.362 168.894 238.522 168.904L238.387 171.3L238.866 171.329L239.052 172.302C239.308 173.439 239.551 174.816 239.781 176.433L241.218 176.52L241.191 176.999L243.587 177.144L243.614 176.665C243.933 176.685 244.173 176.699 244.332 176.709C244.501 176.559 244.745 176.493 245.064 176.513C245.863 176.561 246.577 176.684 247.207 176.883C247.997 177.091 248.706 177.294 249.336 177.492L249.201 179.889C248.704 180.179 248.202 180.549 247.696 181C247.199 181.29 246.706 181.501 246.218 181.632L243.823 181.487C242.358 181.879 241.364 182.46 240.84 183.23C240.485 183.849 240.209 184.474 240.013 185.103C239.818 185.732 239.622 186.362 239.426 186.991C239.399 187.47 238.973 187.925 238.147 188.356L237.84 189.54C237.494 190 237.294 190.709 237.24 191.667C237.168 192.945 237.291 193.594 237.611 193.613C238.09 193.642 238.485 193.746 238.795 193.926L238.768 194.405L240.685 194.521C240.986 194.86 241.128 195.189 241.11 195.508L242.547 195.595L242.52 196.074L242.999 196.103L242.864 198.5L242.385 198.471L242.358 198.95ZM250.222 268.431C250.506 269.089 250.723 269.503 250.873 269.673C251.033 269.682 251.081 270.246 251.018 271.365L250.539 271.336C250.521 271.655 250.317 272.444 249.925 273.703L249.446 273.674L249.392 274.632L248.913 274.603L248.872 275.322L248.393 275.293L248.339 276.252C247.496 277.002 246.741 277.598 246.075 278.038C245.409 278.479 244.735 279.079 244.051 279.839L243.092 279.781C242.755 280.081 242.409 280.541 242.053 281.161L241.095 281.103C240.251 281.853 239.754 282.144 239.604 281.974C239.444 281.965 238.956 282.095 238.139 282.367C237.856 281.708 237.559 281.29 237.248 281.111C237.098 280.941 236.97 280.372 236.864 279.404C237.689 278.973 238.205 278.363 238.409 277.574C238.774 276.795 239.617 276.044 240.94 275.323L240.98 274.604L241.459 274.633C241.637 274.323 241.74 273.929 241.767 273.45C241.953 272.98 242.366 272.765 243.005 272.803L243.059 271.845C244.204 271.433 244.949 270.997 245.296 270.537C245.642 270.078 246.237 269.472 247.081 268.722L248.279 268.794L248.306 268.315L250.222 268.431ZM249.392 257.561C250.173 257.929 250.625 258.437 250.749 259.086C251.032 259.744 251.644 260.262 252.584 260.64L252.517 261.838L251.079 261.751C250.344 260.584 249.604 259.498 248.859 258.491C248.283 257.334 247.628 256.172 246.892 255.006C247.229 254.705 247.314 254.63 247.145 254.78C247.145 254.78 247.389 254.715 247.877 254.584C247.992 255.393 248.125 255.882 248.275 256.051C248.435 256.061 248.825 256.245 249.446 256.603L249.392 257.561ZM236.878 245.023L237.357 245.052C237.02 245.352 236.855 245.422 236.864 245.262C236.873 245.102 236.709 245.173 236.372 245.473L236.426 244.514L236.905 244.543L236.878 245.023ZM117.223 128.864C117.259 128.225 117.154 127.257 116.906 125.96L116.427 125.931C116.969 124.841 117.484 124.231 117.973 124.101C118.461 123.97 119.423 123.948 120.861 124.035C121.144 124.693 121.357 125.187 121.498 125.516C121.8 125.855 121.999 126.588 122.096 127.716C121.758 128.016 121.59 128.166 121.59 128.166C121.758 128.016 121.749 128.176 121.563 128.646L120.604 128.588L120.55 129.546C119.752 129.498 119.113 129.459 118.634 129.43C118.323 129.251 117.853 129.062 117.223 128.864ZM242.574 212.187C242.104 211.998 241.864 211.984 241.855 212.143C242.015 212.153 241.944 211.989 241.643 211.65L242.601 211.708L242.574 212.187ZM116.526 286.308C116.827 286.647 116.903 286.732 116.752 286.562C116.752 286.562 116.987 286.657 117.457 286.845C117.039 288.583 116.319 289.982 115.298 291.042C114.436 292.112 112.963 292.664 110.878 292.698C110.745 292.21 110.608 291.801 110.466 291.471C110.484 291.152 110.516 290.593 110.561 289.794C111.226 289.353 111.653 288.898 111.839 288.429C112.177 288.129 112.514 287.828 112.852 287.528C113.189 287.228 113.606 286.933 114.103 286.642C114.592 286.512 115.399 286.4 116.526 286.308ZM61.3547 139.188C60.8846 138.999 60.645 138.985 60.636 139.145C60.7957 139.154 60.7249 138.99 60.4235 138.651L61.3817 138.709L61.3547 139.188ZM59.3567 174.652C58.8866 174.463 58.647 174.449 58.638 174.608C58.7977 174.618 58.7269 174.454 58.4255 174.115L59.3837 174.173L59.3567 174.652ZM52.8014 133.141C54.0341 134.017 55.431 134.822 56.992 135.558C58.5531 136.294 59.6969 137.325 60.4235 138.651L59.4652 138.593C59.1728 138.094 58.8624 137.915 58.534 138.056C58.3743 138.046 58.0638 137.867 57.6027 137.518L57.6297 137.039L56.6715 136.981C56.3881 136.323 56.0956 135.824 55.7942 135.486L55.0755 135.442C54.322 134.595 53.546 134.147 52.7474 134.099L52.3223 133.112C51.7015 132.753 51.2313 132.565 50.9119 132.545L50.9389 132.066C50.1764 131.379 49.6264 131.185 49.289 131.485C48.7919 131.776 48.4196 131.272 48.1722 129.975C48.9707 130.023 49.4454 130.132 49.5961 130.302C49.7468 130.471 50.0527 130.73 50.5138 131.079L50.4868 131.558C51.4451 131.616 52.2166 132.143 52.8014 133.141ZM33.7874 193.301C33.6187 193.451 33.5298 193.606 33.5208 193.766L33.2813 193.752L32.8021 193.723L32.8561 192.764L33.3083 193.272L33.7874 193.301ZM52.8377 187.962C53.6183 188.33 54.0839 188.599 54.2346 188.768C54.545 188.947 54.8329 189.526 55.0983 190.504L55.5775 190.533L55.375 194.127C54.7181 194.408 54.0478 194.928 53.364 195.688C52.8398 196.458 51.9389 196.804 50.6613 196.727L50.6073 197.685C50.3059 197.346 50.1507 197.257 50.1417 197.417C50.3014 197.426 50.3149 197.187 50.1822 196.698L46.8283 196.495C46.1018 195.169 45.5124 194.251 45.0603 193.743C44.4485 193.225 44.2011 191.928 44.3181 189.851C44.8062 189.72 45.0502 189.655 45.0502 189.655C45.0592 189.495 45.0682 189.336 45.0772 189.176C45.0862 189.016 45.2594 188.786 45.5969 188.486C45.7746 188.176 46.3695 187.571 47.3818 186.67L50.2565 186.844C50.4252 186.694 50.5141 186.539 50.5231 186.38C50.5321 186.22 50.6963 186.15 51.0157 186.169C51.1754 186.179 51.2508 186.263 51.2418 186.423C51.4015 186.433 51.5612 186.442 51.7209 186.452L51.6939 186.931L52.8647 187.483L52.8377 187.962ZM36.8379 173.289C37.7961 173.347 38.2573 173.696 38.2213 174.335C38.1853 174.974 38.2955 175.862 38.5519 177C37.3979 177.571 36.5769 177.922 36.0888 178.053C35.6006 178.183 34.4782 178.196 32.7214 178.089C32.456 177.112 32.3548 176.064 32.4178 174.945C32.9419 174.176 33.5234 173.81 34.1622 173.849C34.801 173.887 35.6839 173.861 36.8109 173.768L36.8379 173.289ZM43.8313 249.691C44.7625 250.228 45.2945 250.741 45.4272 251.23C45.5689 251.559 45.6038 252.362 45.5318 253.64C45.0437 253.771 44.56 253.822 44.0809 253.793C43.6018 253.764 43.1182 253.815 42.63 253.946C42.3466 253.287 42.1251 252.953 41.9653 252.944C41.8146 252.774 41.7708 252.13 41.8338 251.012C42.6503 250.741 43.3162 250.301 43.8313 249.691ZM42.6573 236.395C41.9825 236.996 40.5271 237.228 38.2912 237.093C37.5556 235.926 37.1969 235.183 37.2149 234.864C37.0732 234.535 36.8786 233.722 36.6312 232.424C37.7941 231.693 38.6152 231.342 39.0943 231.371C39.4227 231.231 39.9862 231.185 40.7847 231.233C42.0624 231.31 43.0071 231.608 43.619 232.126C44.0711 232.634 44.2387 233.926 44.1217 236.003L42.6573 236.395ZM73.7934 246.935C76.5085 247.1 79.0458 247.574 81.4054 248.358C83.9338 248.992 85.2148 250.432 85.2485 252.678L85.7276 252.707L85.7006 253.186L85.2215 253.157L85.0325 256.512C84.8638 256.662 84.6996 256.732 84.5399 256.722C84.3801 256.713 84.2958 256.788 84.2868 256.947L84.2733 257.187C84.1743 258.944 83.0732 260 80.97 260.353C79.0265 260.716 77.1763 260.845 75.4196 260.739L75.4466 260.259L74.0092 260.172L73.5841 259.185L71.6676 259.069L71.6946 258.59L70.7363 258.532L70.7633 258.052L69.326 257.966L69.353 257.486L68.3947 257.428C68.0933 257.089 67.9516 256.76 67.9696 256.441C68.1473 256.131 67.8459 255.792 67.0653 255.424L67.2543 252.07C67.7785 251.3 68.2936 250.69 68.7997 250.24C69.3148 249.63 69.8345 248.94 70.3586 248.17L71.3168 248.228L71.3438 247.749C72.3201 247.487 73.1276 247.376 73.7664 247.415L73.7934 246.935ZM93.5786 288.286C94.0577 288.315 94.5279 288.503 94.989 288.852C95.6098 289.21 96.044 290.038 96.2914 291.335C95.2881 292.076 94.6043 292.836 94.2399 293.615C94.0352 294.404 93.0544 294.746 91.2976 294.639L91.3246 294.16C90.5351 293.952 90.1448 293.768 90.1538 293.608C90.3225 293.458 90.0965 293.204 89.4756 292.846C90.2225 290.968 91.102 289.578 92.1143 288.678L93.5516 288.765L93.5786 288.286ZM82.8732 243.638C82.5358 243.938 82.447 244.093 82.6067 244.103C82.7664 244.112 82.5268 244.098 81.888 244.059L81.915 243.58C81.6136 243.241 81.4584 243.151 81.4494 243.311C81.6091 243.321 81.6226 243.081 81.4899 242.592C82.1287 242.631 82.5235 242.735 82.6742 242.904C82.8339 242.914 83.0689 243.008 83.3794 243.188L83.3524 243.667L82.8732 243.638ZM96.852 255.784L97.3311 255.813L97.2771 256.772C96.2739 257.512 95.563 258.752 95.1446 260.49L94.1864 260.432C94.5508 259.652 94.9152 258.873 95.2796 258.093C95.653 257.154 96.1682 256.544 96.825 256.263L96.852 255.784ZM101.076 249.067C101.191 249.876 100.724 251.049 99.6762 252.589C98.6279 254.128 98.006 255.213 97.8102 255.842L97.3311 255.813L97.4121 254.375C98.078 253.935 98.3355 253.63 98.1848 253.46C98.0341 253.291 98.141 252.817 98.5054 252.037L98.9845 252.066C99.3309 251.606 99.5975 251.142 99.7842 250.672C99.9799 250.043 100.251 249.498 100.597 249.038L101.076 249.067ZM59.8152 200.647C59.3811 199.819 59.0088 199.316 58.6984 199.137C58.5477 198.967 58.4813 198.723 58.4993 198.403C58.5173 198.084 58.8772 197.384 59.5791 196.305L62.4538 196.479C62.5865 196.968 62.8789 197.466 63.3311 197.974C62.9486 199.073 62.5932 199.693 62.2648 199.833C62.1051 199.824 61.7767 199.964 61.2796 200.255L61.2526 200.734L59.8152 200.647ZM64.616 239.167C65.7159 239.554 66.3413 239.832 66.492 240.002C66.8024 240.181 66.9216 240.909 66.8496 242.187C65.3942 242.42 64.4045 242.921 63.8804 243.691C63.3652 244.301 61.9852 244.618 59.7403 244.642L59.7673 244.163L58.3299 244.076L58.3569 243.597C58.0465 243.418 57.8115 243.323 57.6517 243.314C57.492 243.304 57.257 243.21 56.9466 243.031C57.329 241.932 57.609 241.227 57.7867 240.918C58.1332 240.458 58.3862 240.232 58.5459 240.242C58.7146 240.092 58.8788 240.022 59.0386 240.032C59.367 239.891 59.7089 239.511 60.0643 238.891L62.4599 239.036L62.4869 238.557L64.643 238.688L64.616 239.167Z" fill="#FF9FC5"/>
</svg>
