<svg width="279" height="222" viewBox="0 0 279 222" fill="none" xmlns="http://www.w3.org/2000/svg">
<path d="M163.699 37.6593L163.728 37.4312C163.881 37.4507 163.947 37.5365 163.927 37.6886C163.927 37.6886 164.023 37.5463 164.214 37.2617L164.566 34.5241C166.165 34.1111 167.366 33.1832 168.17 31.7405L168.287 30.828L168.743 30.8866L169.153 27.6928C169.305 27.7124 169.457 27.7319 169.609 27.7514C169.781 27.6189 169.992 27.1821 170.241 26.4413L171.154 26.5584L171.271 25.6459L173.096 25.8803L173.213 24.9678L174.126 25.085L174.243 24.1725L176.524 24.4654C177.441 23.3464 178.395 22.5413 179.385 22.0502C180.528 21.5786 182.012 21.4599 183.837 21.6943C184.215 22.3612 184.632 22.724 185.088 22.7826C185.393 22.8216 185.868 22.7281 186.516 22.5021C187.163 22.2761 187.526 21.8589 187.604 21.2505L190.341 21.6021C190.852 22.4406 191.336 22.8892 191.792 22.9478C192.268 22.8543 192.942 23.0182 193.816 23.4396L193.757 23.8958L196.495 24.2474L196.436 24.7036L197.349 24.8208C197.575 25.4682 197.933 26.2872 198.424 27.2779L199.793 27.4536C200.019 28.101 200.132 28.4247 200.132 28.4247L201.957 28.6591L201.899 29.1154C203.018 30.032 203.614 30.8043 203.688 31.4322C203.782 31.9079 203.75 32.7542 203.594 33.9708C204.885 34.755 205.68 35.7846 205.98 37.0599C206.452 38.2026 206.676 39.4681 206.652 40.8564C206.78 42.2642 206.68 43.6428 206.353 44.992C206.177 46.3608 206.021 47.5774 205.884 48.642L205.428 48.5834L205.252 49.9522L204.796 49.8936C204.717 50.5019 204.487 51.0907 204.105 51.66L203.649 51.6014C203.551 52.3618 203.397 52.9604 203.186 53.3971C203.108 54.0055 202.954 54.6041 202.724 55.1929L202.267 55.1343L202.15 56.0468C201.807 56.3119 201.14 56.69 200.15 57.1812L200.032 58.0937L199.576 58.0351C198.679 59.002 197.411 59.8441 195.773 60.5613C194.268 61.4501 193.344 62.0271 193 62.2922L192.942 62.7484L192.029 62.6312C191.932 63.3917 191.483 63.8751 190.683 64.0816C190.036 64.3077 189.332 64.3719 188.572 64.2742C188.268 64.2352 187.973 64.1201 187.689 63.9289C187.384 63.8899 187.08 63.8508 186.776 63.8117L186.835 63.3555L185.01 63.1211L185.068 62.6649L184.156 62.5477C183.091 62.411 182.216 62.6077 181.529 63.1379C180.975 63.8398 180.08 64.1886 178.844 64.1844C178.731 63.8607 178.522 63.6794 178.218 63.6403C177.914 63.6012 177.705 63.4198 177.592 63.0961L177.768 61.7274C177.047 61.3256 176.401 60.9335 175.832 60.5512C175.263 60.1689 174.618 59.7769 173.896 59.375C173.342 60.0769 172.685 60.379 171.925 60.2813C171.621 60.2422 171.25 60.1174 170.813 59.9067C170.529 59.7156 170.168 59.5146 169.731 59.304L170.2 55.6539C169.915 55.4628 169.707 55.2814 169.574 55.1098C169.594 54.9577 169.537 54.7959 169.405 54.6243L168.036 54.4485C166.745 53.6644 165.968 53.1007 165.702 52.7575C165.589 52.4338 165.67 51.2073 165.943 49.0781C166.208 49.4214 165.847 49.2205 164.861 48.4754C164.027 47.7499 163.498 46.4453 163.277 44.5617L163.733 44.6203C164.115 44.051 164.556 43.0255 165.055 41.5437L164.599 41.4851L164.892 39.2039C164.892 39.2039 164.608 39.0127 164.038 38.6304L164.155 37.7179L163.699 37.6593ZM262.471 137.07C263.173 137.624 263.647 138.149 263.892 138.644C264.271 139.311 264.382 140.253 264.225 141.469C262.17 141.824 260.826 142.656 260.194 143.966C259.714 145.296 259.235 146.626 258.755 147.955C258.427 149.305 257.814 150.463 256.917 151.43C256.02 152.396 254.279 152.714 251.693 152.382L251.635 152.838C251.291 153.103 250.796 153.349 250.149 153.575L250.032 154.487C249.232 154.694 248.661 154.93 248.317 155.195C247.955 155.612 247.611 155.877 247.288 155.99C247.097 156.275 246.763 156.464 246.287 156.557C245.812 156.651 245.041 156.629 243.977 156.493C242.304 156.278 240.879 155.94 239.701 155.48L239.76 155.023L235.653 154.496L235.595 154.952L234.682 154.835L234.624 155.291C234.3 155.404 233.91 155.432 233.454 155.373C232.693 155.275 232.028 155.035 231.459 154.653C231.022 154.442 230.595 154.156 230.178 153.793L230.295 152.88C229.118 152.42 228.122 151.751 227.307 150.873C226.644 150.015 224.794 148.773 221.756 147.146C221.257 148.628 220.816 149.653 220.434 150.223L219.977 150.164C219.576 150.885 219.431 151.408 219.544 151.732C219.657 152.055 219.228 152.387 218.257 152.726L218.199 153.182L215.917 152.889L215.859 153.345C215.515 153.61 214.848 153.989 213.858 154.48C212.867 154.971 212.068 155.177 211.459 155.099L211.342 156.012C210.617 156.846 210.271 157.729 210.306 158.661C210.322 159.746 209.341 160.161 207.364 159.907C206.755 159.829 206.11 159.437 205.428 158.731C204.726 158.177 203.691 157.812 202.322 157.636L202.263 158.092L201.351 157.975L201.292 158.431L200.38 158.314C199.654 159.149 199.12 159.698 198.777 159.963L196.952 159.729C196.912 160.033 196.721 160.318 196.378 160.583L195.009 160.407L194.951 160.863C194.19 160.766 193.212 160.563 192.014 160.255C190.95 160.118 190.314 159.65 190.108 158.85C189.156 159.037 187.9 159.185 186.341 159.294C186.488 160.55 186.523 161.482 186.445 162.09L186.901 162.149L186.814 162.833C186.794 162.985 186.708 163.051 186.556 163.032C186.556 163.032 186.546 163.108 186.527 163.26C186.375 163.24 186.289 163.307 186.269 163.459L186.035 165.284C185.692 165.549 185.368 165.662 185.064 165.623L184.947 166.535L184.034 166.418C183.137 167.385 182.451 167.915 181.975 168.009C181.499 168.102 180.906 169.108 180.196 171.027L180.395 171.284C180.375 171.436 180.366 171.512 180.366 171.512C180.498 171.684 180.555 171.846 180.535 171.998C180.516 172.15 180.42 172.292 180.248 172.425C180.248 172.425 180.182 172.339 180.05 172.168L180.02 172.396L180.476 172.454C180.511 173.386 180.48 174.233 180.382 174.993C180.417 175.925 180.386 176.771 180.288 177.532L179.832 177.473L179.715 178.386L179.259 178.327C179.122 179.392 178.929 180.294 178.679 181.035C178.429 181.776 177.819 182.316 176.848 182.655L176.789 183.111L175.42 182.936L175.362 183.392C175.018 183.657 174.523 183.903 173.876 184.129L173.7 185.497C173.357 185.762 172.861 186.008 172.214 186.234L172.097 187.147C171.754 187.412 171.43 187.525 171.126 187.486L170.95 188.854L170.494 188.796C170.376 189.708 170.07 190.287 169.575 190.533C169.212 190.95 168.621 191.338 167.802 191.697L167.685 192.609L167.229 192.551C167.19 192.855 166.999 193.139 166.655 193.404L164.374 193.111L164.433 192.655L161.754 191.847L161.695 192.304L160.326 192.128C159.944 192.697 159.581 193.114 159.238 193.379L158.782 193.321L158.606 194.69L158.15 194.631L158.033 195.544L157.576 195.485C157.385 195.77 157.241 196.292 157.143 197.053C157.085 197.509 157.026 197.965 156.967 198.421C157.041 199.049 157.039 199.667 156.961 200.276C156.805 201.492 156.261 202.118 155.329 202.153C154.377 202.34 153.293 202.355 152.076 202.199C151.85 201.552 151.539 200.971 151.141 200.456C150.895 199.96 150.108 199.473 148.778 198.993L148.837 198.537L144.274 197.951C143.853 198.824 143.517 199.631 143.267 200.372C142.998 201.265 142.663 202.072 142.261 202.794L141.804 202.735C141.765 203.039 141.574 203.324 141.231 203.589L140.319 203.472L140.26 203.928C138.891 203.752 137.809 203.15 137.014 202.12C136.199 201.242 135.612 200.394 135.254 199.575C133.066 199.758 131.629 200.114 130.942 200.645C130.236 201.327 129.682 202.029 129.281 202.75C128.879 203.471 128.42 204.031 127.906 204.429C127.371 204.978 126.344 205.155 124.823 204.96C124.519 204.921 124.148 204.796 123.711 204.586C123.255 204.527 122.875 204.478 122.571 204.439L122.629 203.983C121.717 203.866 121.062 203.55 120.664 203.035C120.419 202.539 119.916 202.243 119.155 202.145L117.33 201.911C116.418 201.794 116 201.431 116.079 200.823C116.137 200.366 115.739 199.852 114.886 199.278L115.003 198.366C113.938 198.229 113.16 197.665 112.669 196.675C112.158 195.836 110.772 195.194 108.51 194.749C108.109 195.471 107.518 195.859 106.738 195.913C105.938 196.119 105.006 196.154 103.942 196.018C103.181 195.92 102.725 195.861 102.573 195.842C102.573 195.842 102.403 195.356 102.064 194.385L101.608 194.327L101.901 192.045C102.205 192.084 101.93 191.817 101.076 191.244C100.223 190.67 99.5109 190.193 98.9417 189.81L99.0003 189.354L96.719 189.061L96.7776 188.605C96.4734 188.566 96.2355 188.612 96.0639 188.745C95.9118 188.725 95.826 188.792 95.8065 188.944L95.3502 188.885L95.4088 188.429L94.4963 188.312L94.4377 188.768L90.7877 188.299L90.8463 187.843C88.9668 186.829 87.9239 185.922 87.7173 185.122C87.4913 184.475 87.2478 183.362 86.9869 181.782L86.0744 181.665C85.8874 180.713 85.7101 179.686 85.5427 178.582C85.3557 177.631 85.1785 176.603 85.011 175.499C84.2897 175.097 83.5878 174.544 82.9055 173.838C82.0516 173.264 81.3693 172.558 80.8586 171.72L80.4024 171.661L80.5782 170.292C80.5782 170.292 80.2935 170.101 79.7243 169.719L79.8414 168.806L79.3852 168.748C79.1201 168.404 78.9875 168.233 78.9875 168.233C78.9875 168.233 78.7029 168.042 78.1336 167.659L78.2508 166.747C77.9466 166.708 77.5294 166.345 76.9992 165.659C76.469 164.972 76.0169 163.677 75.6429 161.774L75.9359 159.493L75.4797 159.434L75.5968 158.522L75.1406 158.463C75.1601 158.311 75.1796 158.159 75.1992 158.007C75.0471 157.987 74.9808 157.902 75.0003 157.75C75.098 156.989 75.4238 156.258 75.9777 155.556C76.5121 155.006 76.8281 154.351 76.9257 153.591C77.1406 151.918 76.821 150.795 75.9671 150.221C75.0937 149.8 74.1637 149.217 73.1772 148.472L72.2647 148.355C72.0387 147.707 71.8789 147.146 71.7854 146.67C71.6724 146.346 71.6257 146.108 71.6452 145.956C71.6647 145.804 71.6082 145.642 71.4757 145.471C71.3431 145.299 71.2866 145.137 71.3061 144.985L70.8499 144.926L70.7913 145.383C69.8006 145.874 69.0284 146.47 68.4745 147.172C67.9206 147.874 66.8832 148.127 65.3623 147.932L65.3038 148.388C64.2587 148.099 63.2897 147.82 62.3967 147.551C61.3321 147.414 60.211 147.116 59.0334 146.655L59.092 146.199L58.6357 146.141C58.3316 146.102 58.0937 146.148 57.9221 146.281C57.7504 146.413 57.5126 146.46 57.2084 146.421L55.3834 146.187C54.9425 147.212 54.5211 148.086 54.1193 148.807C53.5459 149.661 52.6508 150.01 51.4341 149.854C50.8258 149.775 50.4651 149.574 50.3521 149.251C50.2391 148.927 50.013 148.28 49.674 147.309L48.7615 147.191L48.9958 145.366C48.6917 145.327 48.2549 145.117 47.6857 144.734L47.7442 144.278L42.3864 142.662C41.4502 143.934 40.5161 144.587 39.584 144.622C38.4804 144.789 37.3202 144.795 36.1036 144.638C35.6319 143.496 34.9594 142.714 34.0859 142.292C33.0409 142.003 32.0816 141.648 31.2082 141.227C30.1631 140.938 29.2897 140.517 28.5879 139.963C27.8665 139.561 27.5937 138.676 27.7695 137.307C27.8281 136.851 28.068 136.186 28.4894 135.313L28.0331 135.254L28.1503 134.341C27.8852 133.998 27.3355 133.464 26.5011 132.738L26.5597 132.282L25.6472 132.165C25.3821 131.822 25.1267 131.402 24.8812 130.907C24.616 130.564 24.3607 130.145 24.1151 129.649L19.5526 129.063C19.2875 128.72 19.1647 128.472 19.1842 128.32C19.0321 128.301 18.5857 128.166 17.8448 127.916L18.1377 125.635L18.594 125.694L18.7698 124.325C19.0739 124.364 19.3976 124.251 19.7409 123.986L19.6947 120.734L19.2385 120.675C18.5367 120.121 17.9576 119.815 17.5014 119.756C17.1972 119.717 16.893 119.678 16.5889 119.639C16.1131 119.733 15.7231 119.76 15.4189 119.721C14.8106 119.643 14.3934 119.28 14.1674 118.632C13.7697 118.118 13.6783 117.024 13.8931 115.351L15.3791 114.614L16.865 113.877L16.9822 112.965C16.7171 112.622 16.6041 112.298 16.6431 111.994C16.6822 111.69 16.655 111.3 16.5615 110.824C16.3159 110.328 15.928 109.738 15.3978 109.051C14.8676 108.365 13.9767 107.477 12.7251 106.389L13.0181 104.108C13.6655 103.882 13.9229 103.683 13.7903 103.511C13.6383 103.492 13.7436 103.273 14.1063 102.856L15.0774 102.517C15.4207 102.252 15.6411 101.739 15.7388 100.979C15.895 99.7621 15.5559 98.791 14.7216 98.0655C13.7156 97.4725 13.1016 96.2342 12.8797 94.3506C15.9256 93.505 17.708 92.2653 18.227 90.6314C18.5744 89.1301 19.0467 87.2583 19.6438 85.0161L19.1876 84.9575L19.0829 82.1614L18.6266 82.1028L18.6852 81.6466L19.1414 81.7052L19.3758 79.8802C21.6026 79.3932 23.1158 79.0464 23.9153 78.8399C24.6952 78.7855 25.2415 77.5416 25.554 75.1082L25.7883 73.2832C26.4357 73.0572 26.779 72.7921 26.818 72.4879L28.1868 72.6637L28.2454 72.2074C28.7211 72.1139 29.3393 72.116 30.0997 72.2137L31.2403 72.3601C31.8486 72.4383 32.6014 71.9939 33.4985 71.0269L33.9548 71.0855L34.1305 69.7168L34.5868 69.7754L34.6454 69.3191L34.1891 69.2605C34.63 68.235 34.8798 67.4941 34.9384 67.0378C34.9969 66.5816 35.6834 66.0514 36.9977 65.4472L37.0563 64.9909L39.7352 65.7987L39.7938 65.3425L40.7063 65.4597L40.7649 65.0034C41.5254 65.1011 42.0207 64.8555 42.2509 64.2667C42.4811 63.6779 42.6918 63.2412 42.8829 62.9565L43.3392 63.0151L43.5149 61.6464L43.9712 61.7049C44.486 61.3073 44.9814 61.0617 45.4571 60.9682C45.7613 61.0073 46.2371 60.9138 46.8845 60.6877L46.9431 60.2315L49.6806 60.583L49.7392 60.1268L51.108 60.3026L51.1665 59.8463L52.0791 59.9635L52.1376 59.5072L53.0502 59.6244L53.1087 59.1682L53.7931 59.2561C54.5535 59.3537 55.2184 59.5937 55.7877 59.976L55.7291 60.4322L59.3791 60.901C59.7223 60.6359 60.2567 60.0861 60.9822 59.2517L61.4385 59.3103C61.6296 59.0257 61.7447 58.7313 61.7838 58.4271L61.8424 57.9709C61.9205 57.3625 62.5114 56.9746 63.6151 56.8072L63.6736 56.3509L65.4987 56.5853C66.0289 57.2717 66.5981 57.654 67.2065 57.7322L67.0893 58.6447C67.6586 59.027 68.0095 59.3039 68.142 59.4755C68.2551 59.7992 68.606 60.0762 69.1948 60.3064L69.1362 60.7626C69.4404 60.8017 69.9162 60.7082 70.5636 60.4822L70.505 60.9384C70.7896 61.1296 71.2361 61.2642 71.8444 61.3423C73.0611 61.4986 74.0985 61.2453 74.9565 60.5825C75.7951 60.0718 76.4055 59.5319 76.7878 58.9626L79.0691 59.2556C79.0495 59.4076 79.1723 59.6553 79.4374 59.9985C79.57 60.1701 79.7123 60.2657 79.8644 60.2852L79.6886 61.654L80.1449 61.7126L80.0277 62.6251L80.4839 62.6837C80.71 63.3311 80.8035 63.8069 80.7644 64.111L81.6769 64.2282C81.903 64.8756 82.016 65.1993 82.016 65.1993L83.841 65.4337C84.8707 64.6384 85.9178 64.3091 86.9824 64.4458C87.8949 64.563 88.5402 64.955 88.9184 65.622C89.1444 66.2694 89.3607 66.9928 89.5672 67.7923C89.6217 68.5722 89.7619 69.2859 89.9879 69.9333C90.0424 70.7133 90.364 71.2183 90.9528 71.4485L97.3403 72.2688C97.7924 73.5636 97.9599 74.6673 97.8427 75.5798C97.7255 76.4923 97.4367 77.5374 96.9763 78.715C97.6977 79.1168 98.2669 79.4991 98.6841 79.8618L98.6255 80.3181L99.538 80.4353L99.4795 80.8915C100.181 81.4454 100.827 81.8375 101.415 82.0677C102.004 82.2979 102.478 82.8225 102.837 83.6415L103.293 83.7001L103.117 85.0689L103.573 85.1275C103.799 85.7749 103.863 86.4788 103.766 87.2392C103.801 88.1713 103.855 88.9512 103.929 89.5791C104.136 90.3786 104.438 91.0357 104.835 91.5506C105.233 92.0654 106.04 92.401 107.257 92.5572C108.115 91.8944 108.811 91.2882 109.346 90.7384C109.88 90.1887 110.206 89.4576 110.323 88.5451L110.616 86.2638C110.811 84.7429 111.233 83.8695 111.88 83.6435C112.527 83.4174 113.393 83.2967 114.477 83.2813C114.988 84.1199 115.405 84.4826 115.729 84.3696C116.185 84.4282 116.774 84.6584 117.495 85.0602L117.437 85.5165C117.854 85.8792 118.205 86.1562 118.489 86.3473C118.774 86.5385 119.297 86.6829 120.057 86.7805C120.572 86.3829 121.153 86.071 121.8 85.845C122.448 85.6189 123.181 85.3266 124 84.968L124.059 84.5118C124.667 84.5899 125.447 84.5355 126.398 84.3485L126.457 83.8922L127.369 84.0094L127.428 83.5531C128.493 83.6899 129.54 83.3606 130.57 82.5652C131.599 81.7699 132.97 81.3276 134.682 81.2383C135.212 81.9247 135.563 82.2017 135.735 82.0691C135.906 81.9366 136.277 82.0614 136.846 82.4437L136.788 82.9L137.7 83.0172L137.641 83.4734C138.819 83.9338 139.56 84.1836 139.864 84.2226L139.806 84.6789L148.474 85.7921L148.445 86.0203C148.445 86.0203 148.587 86.1158 148.872 86.307L149.328 86.3656L149.387 85.9093L153.493 86.4366L153.435 86.8929L154.803 87.0687L154.745 87.5249L155.657 87.6421L155.599 88.0984L156.511 88.2155C157.096 89.682 157.749 90.6161 158.47 91.0179C159.172 91.5718 159.673 92.4864 159.973 93.7617C160.733 93.8593 161.58 93.8907 162.512 93.8558C163.424 93.973 164.337 94.0902 165.249 94.2073C167.226 94.4612 168.47 95.0075 168.981 95.846L168.675 101.836L169.132 101.894L169.073 102.351L172.723 102.819L172.782 102.363L174.607 102.598C174.989 102.028 175.352 101.611 175.695 101.346C176.19 101.1 176.572 100.531 176.842 99.6382L177.754 99.7554C178.577 98.1606 179.825 97.4706 181.498 97.6854L183.323 97.9198C184.084 98.0174 184.626 98.0098 184.95 97.8967L185.008 97.4405L185.921 97.5577L185.979 97.1014L187.348 97.2772L187.407 96.8209C188.397 96.3298 189.064 95.9516 189.407 95.6865L189.583 94.3178L190.039 94.3764C190.383 94.1113 190.745 93.6941 191.128 93.1248L192.04 93.242L192.099 92.7857C193.276 93.2461 193.978 93.8 194.204 94.4474C194.582 95.1144 195.608 95.5553 197.281 95.7701C197.624 95.505 198.186 95.3452 198.966 95.2908C199.726 95.3884 200.155 95.0571 200.253 94.2966L202.593 94.1333L202.651 93.6771L203.108 93.7357C203.868 93.8333 204.695 94.0168 205.588 94.2861C206.613 94.7269 207.268 95.043 207.553 95.2341L207.494 95.6904L209.776 95.9833L209.717 96.4396C209.982 96.7828 210.399 97.1456 210.969 97.5279L210.851 98.4404L211.308 98.499C211.573 98.8422 211.818 99.3375 212.044 99.9849L212.957 100.102L212.898 100.558L215.694 100.454L215.753 99.9974L216.209 100.056C217.578 100.232 218.375 100.643 218.601 101.291C218.808 102.09 218.853 102.946 218.735 103.859C218.77 104.791 218.749 105.561 218.671 106.169C218.725 106.949 219.132 107.388 219.893 107.486L224.455 108.072L224.397 108.528C225.457 109.901 226.1 110.911 226.326 111.558C226.533 112.358 226.872 113.329 227.344 114.472C227.648 114.511 228.124 114.417 228.771 114.191L228.83 113.735L229.742 113.852C230.6 113.189 231.343 112.821 231.971 112.747C232.579 112.825 233.17 112.437 233.744 111.583L234.656 111.701L234.715 111.244C235.323 111.322 235.951 111.248 236.598 111.022L236.657 110.566L239.909 110.52L239.968 110.064L244.25 109.222C244.913 110.08 245.767 110.654 246.812 110.943C248.009 111.251 248.559 111.785 248.461 112.546L250.286 112.78L250.227 113.236C250.988 113.334 251.682 113.346 252.31 113.272C252.918 113.35 253.612 113.362 254.392 113.307L254.334 113.764L255.702 113.939C256.194 114.93 256.572 115.597 256.837 115.94L257.293 115.999C257.667 117.902 258.433 119.16 259.591 119.772C260.749 120.385 261.48 120.711 261.785 120.75L261.726 121.206C262.389 122.064 262.691 122.721 262.632 123.177C262.726 123.653 262.685 124.575 262.509 125.944L262.053 125.886C261.935 126.798 262 127.502 262.245 127.997C262.643 128.512 263.05 128.951 263.467 129.314C263.865 129.829 264.187 130.334 264.432 130.829C264.81 131.496 264.941 132.286 264.824 133.198C264.48 133.463 264.395 133.53 264.566 133.397C264.718 133.417 264.613 133.635 264.25 134.052L263.338 133.935C263.221 134.847 262.932 135.892 262.471 137.07Z" fill="#E2ECD3"/>
</svg>
