<svg width="289" height="267" viewBox="0 0 289 267" fill="none" xmlns="http://www.w3.org/2000/svg">
<path d="M218.579 104.7C219.232 104.18 220.523 104.061 222.452 104.341C224.38 104.621 226.022 105.076 227.376 105.706C227.557 106.202 227.568 106.619 227.411 106.958L228.934 107.667L228.697 108.174L229.967 108.765L229.73 109.273C230.521 110.67 230.483 112.3 229.617 114.161L228.672 116.192C228.278 117.038 227.264 118.111 225.63 119.409C223.996 120.708 221.825 120.727 219.118 119.466C218.779 119.309 218.181 118.824 217.323 118.013L217.559 117.506L216.544 117.033L216.78 116.525L215.765 116.053L216.001 115.545C215.742 115.218 215.527 115.016 215.358 114.937C215.189 114.858 214.974 114.655 214.715 114.328L215.117 110.81L214.609 110.573C214.598 110.156 214.71 109.694 214.946 109.186C215.261 108.509 215.706 107.995 216.281 107.645C216.856 107.295 217.307 106.99 217.633 106.73L218.579 104.7ZM244.018 154.22L244.254 153.712C245.022 154.275 246.043 154.956 247.318 155.756C248.672 156.386 249.191 157.039 248.876 157.716C249.045 157.795 249.13 157.835 249.13 157.835C249.209 157.665 249.333 157.62 249.502 157.699C250.01 157.935 250.185 158.223 250.027 158.561C250.039 158.978 250.05 159.396 250.062 159.813L251.585 160.522C251.585 160.522 251.597 160.939 251.62 161.773C252.297 162.088 252.885 163.7 253.384 166.609C253.883 169.518 253.345 172.665 251.77 176.05C251.376 176.896 251.016 177.449 250.689 177.709L249.927 177.354L249.455 178.37L248.947 178.133C248.159 179.826 247.106 180.983 245.787 181.604C244.469 182.226 243.065 182.808 241.577 183.351L240.054 182.642C239.806 182.732 239.643 182.862 239.564 183.031C239.485 183.2 239.322 183.33 239.074 183.421L238.058 182.948L237.822 183.456L236.807 182.983C235.803 182.928 234.968 182.951 234.303 183.053C233.638 183.155 232.882 183.01 232.036 182.616C231.867 182.537 231.184 182.013 229.988 181.045L230.224 180.537L226.162 178.646L226.399 178.139L225.383 177.666L225.348 176.414L224.333 175.942L224.569 175.434C224.05 174.781 223.66 174.29 223.401 173.964C223.31 173.716 223.247 172.966 223.212 171.714L222.705 171.478L223.177 170.462C222.489 169.73 222.178 169.071 222.245 168.484C222.56 167.807 222.836 167.215 223.072 166.707L222.564 166.471L224.337 162.663L223.829 162.427C223.817 162.01 223.93 161.547 224.166 161.039C224.481 160.363 224.886 159.934 225.383 159.753C225.957 159.403 226.408 159.098 226.735 158.838L228.66 156.028C230.137 155.068 231.54 154.486 232.871 154.282C234.37 154.156 235.864 153.822 237.352 153.279L238.368 153.752L238.722 152.99L240.753 153.935C241.249 153.754 241.576 153.495 241.733 153.156L244.018 154.22ZM157.009 106.926L161.324 108.935C161.56 108.427 162.175 107.992 163.167 107.63C164.159 107.269 164.694 107.003 164.773 106.834L165.28 107.07L165.753 106.055C166.249 105.874 166.914 105.772 167.749 105.748L168.221 104.733L168.729 104.969L169.202 103.954L174.02 101.564L175.543 102.273L175.78 101.765C176.287 102.001 177.128 102.187 178.301 102.321L178.537 101.813L184.358 103.905L184.122 104.413C184.539 104.401 185.001 104.513 185.509 104.749C186.017 104.986 186.479 105.098 186.896 105.086C187.034 107.003 187.875 108.734 189.422 110.277C190.878 111.572 191.427 113.269 191.068 115.367L192.083 115.839C191.859 116.764 191.915 117.306 192.254 117.463L192.508 117.581C192.846 117.739 192.988 118.319 192.932 119.323L194.455 120.032C195.179 122.016 196.015 123.538 196.964 124.597C197.821 125.408 198.24 126.941 198.22 129.197L199.235 129.669L198.999 130.177C199.518 130.83 199.778 131.157 199.778 131.157L199.305 132.173C200.163 132.984 200.677 133.429 200.846 133.507L200.373 134.523C200.645 135.267 201.046 136.174 201.577 137.245C202.018 138.068 203.084 138.873 204.776 139.661C205.453 139.976 206 140.127 206.418 140.116L206.654 139.608L209.193 140.79C210.558 141.837 211.501 142.688 212.02 143.341C212.449 143.747 213.161 145.313 214.156 148.041L214.664 148.278C214.349 148.955 214.124 149.88 213.99 151.053L214.497 151.289L214.025 152.304L214.533 152.541C214.544 152.958 214.393 153.505 214.077 154.182C213.132 156.213 212.006 157.747 210.699 158.786C209.301 159.577 208.107 160.153 207.115 160.515L206.878 161.023L205.863 160.55C205.367 160.731 205.04 160.991 204.883 161.329L203.106 160.502C202.948 160.841 202.621 161.1 202.125 161.281L201.11 160.809L200.874 161.316L198.335 160.135L198.099 160.642L195.56 159.461L195.324 159.969L193.801 159.26L193.565 159.767C193.147 159.779 192.77 159.706 192.431 159.549C192.093 159.391 191.715 159.318 191.297 159.33L191.061 159.838L190.046 159.365C188.896 160.065 188.073 160.506 187.577 160.687L186.308 160.096C185.655 160.615 184.584 161.146 183.096 161.689L182.08 161.217C181.844 161.724 181.145 162.12 179.984 162.403C178.732 162.438 177.656 162.76 176.754 163.37L175.739 162.897C175.739 162.897 175.412 163.157 174.759 163.677L173.743 163.204L173.507 163.712C173.168 163.554 172.666 163.526 172.001 163.629C171.415 163.561 171.003 163.782 170.767 164.289L169.244 163.581L169.008 164.088L167.231 163.261L166.994 163.769L164.456 162.587C164.141 163.264 163.729 163.485 163.222 163.248C162.714 163.012 162.043 162.905 161.209 162.929L160.972 163.437C158.232 164.014 156.17 164.907 154.784 166.115L154.311 167.131L153.804 166.894L152.976 168.671L152.469 168.435C152.311 168.773 152.193 169.027 152.114 169.197C151.866 169.287 151.663 169.501 151.506 169.84C150.876 171.194 150.545 172.79 150.513 174.628C150.559 176.297 150.392 177.763 150.01 179.027L149.502 178.79L148.793 180.313L145.309 181.163C144.656 181.682 144.29 182.026 144.211 182.195L143.195 181.723C141.459 182.356 140.219 182.808 139.475 183.08C138.81 183.182 137.666 184.091 136.044 185.807L135.536 185.57L135.064 186.586L134.556 186.349C134.241 187.026 133.887 187.788 133.493 188.634C132.93 189.401 132.225 189.588 131.379 189.194L130.67 190.717L130.162 190.481C130.095 191.068 129.904 191.699 129.589 192.376C129.353 192.884 129.201 193.431 129.134 194.017L128.626 193.781L127.208 196.827L126.701 196.591L124.267 199.165C123.85 199.176 123.557 199.143 123.388 199.064C123.218 198.985 122.925 198.952 122.508 198.963L122.272 199.471C121.854 199.483 121.392 199.37 120.884 199.134C120.377 198.898 119.914 198.785 119.497 198.797L119.261 199.305L118.245 198.832L118.009 199.34C116.836 199.206 115.702 198.987 114.608 198.684C113.424 198.132 112.284 197.705 111.19 197.401L110.954 197.909L109.938 197.436L109.702 197.944C108.202 198.07 107.498 198.256 107.588 198.504C107.509 198.674 107.104 199.103 106.371 199.791L105.356 199.319L103.431 202.129L102.923 201.892L101.978 203.923L101.47 203.687C100.163 204.725 99.0191 205.634 98.0387 206.413C97.1372 207.023 95.5018 206.777 93.1325 205.674C92.1171 205.201 91.0171 204.689 89.8325 204.138C88.7266 203.417 87.6719 203.029 86.6682 202.974L86.4319 203.482L85.4165 203.009L85.1801 203.517L83.1494 202.572C82.4958 203.091 82.169 203.351 82.169 203.351L81.1536 202.878L80.9173 203.386C79.8232 203.082 78.8136 202.818 77.8887 202.594C76.8733 202.121 75.8579 201.648 74.8425 201.176L74.6062 201.683L73.5908 201.211C73.512 201.38 73.1459 201.724 72.4923 202.244L70.4615 201.299L70.2252 201.806C69.1981 200.916 68.1316 200.111 67.0258 199.391C65.9987 198.501 64.9716 197.611 63.9445 196.721L64.1808 196.213C62.4885 195.426 61.0165 195.049 59.7648 195.084C58.3439 195.041 57.1257 194.782 56.1103 194.31C54.9257 193.758 53.989 193.117 53.3004 192.384C52.6906 191.483 52.0019 190.75 51.2346 190.187L51.7072 189.172C50.7706 188.53 50.2964 188 50.2847 187.583C50.3518 186.997 50.041 186.337 49.3524 185.605L47.3216 184.66L47.5579 184.152L46.5425 183.68L46.7788 183.172L44.748 182.227C44.1148 180.491 43.025 178.851 41.4785 177.307C39.8415 175.516 38.9326 174.372 38.7517 173.876L38.988 173.369L37.7188 172.778C37.9551 172.27 37.8588 171.814 37.4298 171.408C37.0797 170.833 36.7354 170.467 36.3969 170.309L36.0905 168.314L35.0751 167.841C35.2326 167.503 35.2209 167.085 35.04 166.589L34.0246 166.117C34.08 165.113 33.9384 164.532 33.6 164.375C33.0923 164.139 32.4941 163.654 31.8055 162.922L32.0418 162.414L31.2627 161.434L31.7353 160.419L31.2277 160.182C30.7753 158.942 30.4981 157.99 30.3959 157.324C30.3726 156.49 30.2646 155.616 30.072 154.703L29.5642 154.467C29.856 152.955 29.7246 151.247 29.1701 149.342C28.5252 147.188 27.8409 145.12 27.1172 143.136L27.8261 141.613C27.4877 141.455 27.228 141.128 27.047 140.632L27.756 139.109L27.2483 138.873L27.7209 137.857L27.2132 137.621L27.9221 136.098C27.8317 135.85 27.7018 135.687 27.5326 135.608C27.3634 135.529 27.2335 135.366 27.143 135.118L27.6157 134.102L27.108 133.866C27.0963 133.449 27.1692 133.071 27.3268 132.732C27.4843 132.394 27.5572 132.016 27.5455 131.599L27.0378 131.363L27.7468 129.839L27.2391 129.603L27.7117 128.588L27.204 128.351L27.6766 127.336L27.1689 127.1C27.3818 125.758 27.4037 125.047 27.2345 124.968C26.9748 124.642 26.7092 124.106 26.4378 123.362L27.3831 121.331L26.3502 120.233L28.2407 116.171L29.3041 113.887C29.6191 113.21 29.9342 112.533 30.2493 111.856C30.3952 111.1 30.665 110.299 31.0589 109.453C31.6103 108.268 32.2127 107.416 32.8663 106.897C33.3506 106.299 33.8407 105.909 34.3368 105.728C34.8328 105.547 35.3288 105.367 35.8248 105.186C36.1516 104.926 36.4725 104.458 36.7876 103.781L36.2799 103.544C36.5833 102.45 37.05 101.226 37.6802 99.8724C38.1411 98.4397 37.9485 97.5265 37.1024 97.1326L37.575 96.1172L37.0673 95.8809L37.6581 94.6117L37.1504 94.3754L38.0956 92.3446L37.5879 92.1083L38.0605 91.0929L37.5528 90.8566C37.7104 90.5181 37.9919 90.1344 38.3975 89.7055C38.8818 89.1073 39.3209 88.3852 39.7147 87.539L40.2224 87.7753C40.876 87.2559 41.3267 86.951 41.5747 86.8605C41.6535 86.6913 42.1101 86.595 42.9446 86.5716L43.1809 86.0639L44.1963 86.5365C44.3539 86.1981 44.6806 85.9384 45.1766 85.7575L46.192 86.2301C46.3496 85.8916 46.6763 85.6319 47.1723 85.451L48.1877 85.9236C48.6838 85.7427 48.9259 85.4436 48.9142 85.0264C48.9025 84.6091 49.1447 84.3101 49.6407 84.1291L50.8924 84.0941L51.7195 82.3171L52.2272 82.5534L53.8814 78.9996L53.3737 78.7632L55.0278 75.2094C55.0949 74.6229 55.3254 73.9066 55.7193 73.0604C56.7433 70.8604 58.3319 69.4379 60.4852 68.793L60.7215 68.2853C61.6464 68.5099 62.6166 68.8585 63.632 69.3312C64.7261 69.6346 65.7751 69.814 66.7788 69.8693L66.5425 70.377L67.0502 70.6133L67.2865 70.1056L68.5557 70.6964L68.792 70.1887L70.8228 71.134C71.7915 69.9377 72.6025 69.0798 73.2561 68.5604L73.7638 68.7967L74.2364 67.7813L74.7441 68.0176L75.6894 65.9869C78.2248 64.0785 80.1694 63.4395 81.5233 64.0696C82.7079 64.621 84.0107 64.9186 85.4316 64.9623C87.0655 63.6638 89.512 63.0524 92.7711 63.1281C96.109 63.0346 98.7029 63.2124 100.553 63.6617L100.789 63.154L101.804 63.6266L102.041 63.1189L102.548 63.3552L102.312 63.8629L103.835 64.5718L103.599 65.0795L105.884 66.1429L105.647 66.6506L106.663 67.1233L106.426 67.631C106.855 68.0365 107.408 68.3968 108.085 68.7119C109.439 69.3421 110.826 69.679 112.247 69.7227C113.668 69.7664 114.751 69.6525 115.495 69.3812L115.731 68.8735L117.254 69.5824C117.75 69.4015 118.325 69.0513 118.978 68.5319C119.498 69.1855 119.758 69.5122 119.758 69.5122C120.254 69.3313 120.58 69.0716 120.738 68.7332L121.753 69.2058L121.99 68.6981C122.407 68.6864 122.954 68.8381 123.631 69.1532C124.815 69.7046 125.797 70.4704 126.576 71.4508C127.186 72.3523 127.706 73.0059 128.135 73.4114L129.658 74.1203L129.421 74.628L130.437 75.1007C130.889 76.3407 131.284 77.0395 131.623 77.197C132.04 77.1853 132.593 77.5456 133.282 78.2779L133.045 78.7856C134.14 79.089 135.234 79.3924 136.328 79.6958C137.253 79.9204 138.262 80.1844 139.357 80.4878L139.12 80.9955L140.136 81.4681L139.899 81.9758C140.317 81.9641 140.61 81.9977 140.779 82.0765C140.948 82.1552 141.241 82.1888 141.659 82.1771L141.422 82.6848C142.099 82.9999 142.517 82.9882 142.674 82.6497C143.182 82.886 143.396 83.0888 143.317 83.258C143.239 83.4272 143.284 83.5512 143.453 83.63L146.499 85.0479C146.523 85.8824 146.845 86.959 147.467 88.2778C148.167 89.4273 148.913 90.7009 149.703 92.0984C150.494 93.496 151.161 94.9388 151.704 96.4268C152.325 97.7456 152.693 98.9462 152.807 100.029L153.822 100.501L153.586 101.009C154.782 101.978 155.64 102.789 156.159 103.442L155.687 104.458C156.285 104.942 156.629 105.308 156.72 105.556C156.889 105.635 157.064 105.922 157.245 106.418L157.009 106.926ZM246.102 90.0236C245.583 89.3701 245.221 88.3781 245.017 87.0476L247.048 87.9928L246.374 90.7676L245.866 90.5313L246.102 90.0236ZM132.925 25.2992L133.432 25.5355L133.196 26.0432L133.704 26.2795C133.208 26.4604 133.044 26.5903 133.214 26.669C133.292 26.4998 133.038 26.3816 132.452 26.3146L132.925 25.2992Z" fill="#F2AC81"/>
</svg>
